<?xml version="1.0" standalone="no"?>
<!DOCTYPE svg PUBLIC "-//W3C//DTD SVG 1.1//EN" "http://www.w3.org/Graphics/SVG/1.1/DTD/svg11.dtd" >
<svg xmlns="http://www.w3.org/2000/svg">
<metadata>
Created by FontPrep 20130207 at Sun Jul  6 13:39:53 2014
 By Michael Ball
Copyright c 1992 Southern Software, Inc. All Rights Reserved.
</metadata>
<defs>
<font id="80642bcc2f0959b9c42a6d50ba919c71" horiz-adv-x='1024' >
  <font-face 
    font-family="VAGRoundedBlackSSiBold"
    font-weight="400"
    font-stretch="normal"
    units-per-em="2048"
    panose-1="2 11 5 0 0 0 0 0 0 0"
    ascent="1638"
    descent="-410"
    x-height="1100"
    cap-height="1485"
    bbox="-940 -451 2171 1944"
    underline-thickness="50"
    underline-position="-75"
    unicode-range="U+0020-F002"
  />
<missing-glyph horiz-adv-x="1536" 
d="M1247 33v1214h-958v-1214h958zM256 0v1280h1024v-1280h-1024z" />
    <glyph glyph-name=".notdef" horiz-adv-x="1536" 
d="M1247 33v1214h-958v-1214h958zM256 0v1280h1024v-1280h-1024z" />
    <glyph glyph-name=".null" horiz-adv-x="0" 
 />
    <glyph glyph-name="nonmarkingreturn" horiz-adv-x="0" 
 />
    <glyph glyph-name="space" unicode=" " horiz-adv-x="549" 
 />
    <glyph glyph-name="exclam" unicode="!" horiz-adv-x="684" 
d="M342 -25q-66 0 -113 48t-47 114t47 113t113 47t113 -47t47 -113t-47 -114t-113 -48zM195 561v797q0 63 41 101t105 38t106 -38t42 -101v-797q0 -63 -42 -102t-106 -39t-105 38.5t-41 102.5z" />
    <glyph glyph-name="quotedbl" unicode="&#x22;" horiz-adv-x="909" 
d="M145 1022v352q0 56 33.5 89.5t90.5 33.5t89.5 -33.5t32.5 -89.5v-352q0 -55 -33 -90t-89 -35t-90 35t-34 90zM518 1022v352q0 56 32.5 89.5t90.5 33.5t90.5 -33.5t32.5 -89.5v-352q0 -55 -33 -90t-90 -35t-90 35t-33 90z" />
    <glyph glyph-name="numbersign" unicode="#" horiz-adv-x="1229" 
d="M535 854l-33 -236h194l33 236h-194zM160 854q-49 0 -74 29.5t-25 70.5t25 70t74 29h205l45 333q7 55 31 77t67 22t70.5 -23.5t27.5 -49.5t-4 -58l-41 -301h197l45 333q7 55 31 77t67 22t70.5 -23.5t27.5 -49.5t-4 -58l-41 -301h176q49 0 74 -29.5t25 -69.5t-25 -70
t-74 -30h-204l-33 -236h176q49 0 73.5 -28t24.5 -70t-24.5 -71t-73.5 -29h-205l-45 -334q-7 -54 -30.5 -76t-66.5 -22t-71 23t-28 49t4 61l41 299h-197l-45 -334q-7 -54 -30.5 -76t-67.5 -22t-71.5 23t-27.5 49t4 61l41 299h-176q-48 0 -73 30t-25 70t25 69t73 29h205
l33 236h-176z" />
    <glyph glyph-name="dollar" unicode="$" horiz-adv-x="1100" 
d="M45 1040q0 114 58.5 216.5t159 162.5t222.5 74v66q0 67 14.5 81.5t46.5 14.5t41 -22t9 -74v-66q126 -4 242 -53.5t116 -143.5t-49 -125.5t-79 -31.5q-43 0 -114 25.5t-116 29.5v-276q142 -41 235 -83.5t161.5 -133.5t68.5 -235t-61.5 -248t-168 -164.5t-235.5 -71.5v-66
q0 -49 -9 -73.5t-47 -24.5t-46.5 24.5t-8.5 73.5v64q-247 5 -346.5 75.5t-99.5 142.5t38.5 114t90.5 42t157 -37t160 -43v347q-59 18 -147 47t-151.5 71.5t-102.5 114.5t-39 186zM377 1070q0 -42 27.5 -67.5t80.5 -46.5v236q-48 -13 -78 -46.5t-30 -75.5zM729 451
q0 89 -133 135v-303q63 15 98 61t35 107z" />
    <glyph glyph-name="percent" unicode="%" horiz-adv-x="1479" 
d="M1100 186q50 0 78 35t28 87t-28 88t-78 36t-78.5 -36t-28.5 -88t28.5 -87t78.5 -35zM1100 -25q-134 0 -225 98.5t-91 234.5t91 235.5t225 99.5q88 0 160 -45.5t113.5 -124t41.5 -166.5t-41.5 -165t-114 -122t-159.5 -45zM379 829q-134 0 -225 99t-91 235q0 88 41 165
t113 123t161 46t161 -45.5t113.5 -123.5t41.5 -166t-41.5 -165.5t-114 -122.5t-159.5 -45zM1074 1509q33 0 78.5 -24.5t45.5 -89.5q0 -31 -16 -64l-688 -1300q-29 -41 -43.5 -54.5t-52.5 -13.5t-75.5 34.5t-37.5 74.5t20 82l678 1290q21 39 39.5 52t51.5 13zM378 1040
q50 0 78.5 36t28.5 88t-28.5 87t-78.5 35t-78 -35t-28 -87t28 -88t78 -36z" />
    <glyph glyph-name="ampersand" unicode="&#x26;" horiz-adv-x="1442" 
d="M788 1143q0 63 -42 91t-90 28t-87 -30t-39 -74t23.5 -80.5t85.5 -96.5q149 76 149 162zM1262 760q47 0 79.5 -36t32.5 -100t-112 -192l-52 -55l140 -160q23 -27 34 -47.5t11 -65.5t-43.5 -87t-103.5 -42t-105 48l-142 149q-110 -99 -216.5 -148t-239.5 -49t-247.5 52
t-181.5 154.5t-67 244.5t86.5 255.5t222.5 188.5q-67 70 -101 135t-34 161t62 175t160 117.5t203 38.5t201.5 -37t159 -110t62.5 -164t-52 -191.5t-208 -183.5l215 -240l80 93q45 53 77 74.5t79 21.5zM344 444q0 -88 59 -142t147 -54t146 29.5t121 91.5l-297 331
q-82 -51 -129 -109.5t-47 -146.5z" />
    <glyph glyph-name="quotesingle" unicode="'" horiz-adv-x="492" 
d="M123 1022v352q0 56 32.5 89.5t90.5 33.5t90.5 -33.5t32.5 -89.5v-352q0 -55 -33 -90t-90 -35t-90 35t-33 90z" />
    <glyph glyph-name="parenleft" unicode="(" horiz-adv-x="494" 
d="M356 1497q48 0 87.5 -33t39.5 -86q1 -21 -45 -162t-73 -302.5t-27 -295.5q0 -374 94 -641q51 -135 51 -178t-36.5 -80.5t-96.5 -37.5t-104 79q-75 134 -120.5 387t-45.5 405t23.5 334t70 349t111.5 235q23 27 71 27z" />
    <glyph glyph-name="parenright" unicode=")" horiz-adv-x="494" 
d="M138 -319q-49 0 -88.5 34.5t-39.5 76.5t39 147q107 324 107 659t-95 604q-51 138 -51 180t36 78.5t96 36.5q113 0 192.5 -315t79.5 -552t-56 -530.5t-149 -390.5q-22 -28 -71 -28z" />
    <glyph glyph-name="asterisk" unicode="*" horiz-adv-x="797" 
d="M398 1485q44 0 74 -23t30 -57t-7.5 -77.5t-9.5 -67.5q24 16 68.5 51t75.5 35t69.5 -28t38.5 -93q0 -35 -24 -57t-75.5 -43.5t-64.5 -28.5q8 -4 61.5 -25t78 -43t24.5 -64t-30.5 -79t-64.5 -37t-54.5 11.5t-54.5 39t-48 37.5l17 -131q0 -49 -29.5 -72.5t-74.5 -23.5
t-75 23.5t-30 60.5t7 78t9 65q-83 -64 -104 -76t-55 -12t-62.5 37t-28.5 79t33 71t129 61q-4 2 -42 18t-79 40.5t-41 70.5t28.5 83.5t62.5 37.5t52.5 -10.5t57 -39.5t49.5 -36l-16 131q0 48 30.5 71t74.5 23z" />
    <glyph glyph-name="plus" unicode="+" horiz-adv-x="1229" 
d="M492 647v301q0 56 32 89.5t90 33.5t90.5 -33.5t32.5 -89.5v-301h297q58 0 90.5 -33.5t32.5 -89.5t-33.5 -90.5t-89.5 -34.5h-297v-301q0 -54 -33.5 -88.5t-89.5 -34.5t-89 34.5t-33 88.5v301h-297q-56 0 -89.5 34.5t-33.5 90.5t32.5 89.5t90.5 33.5h297z" />
    <glyph glyph-name="comma" unicode="," horiz-adv-x="549" 
d="M104 -276q-42 0 -83 39.5t-41 82.5t24 97l170 309q25 44 63.5 58t55.5 14q55 0 98 -41t43 -97q0 -23 -26 -82l-172 -311q-36 -69 -132 -69z" />
    <glyph glyph-name="hyphen" unicode="-" horiz-adv-x="797" 
d="M733 600q0 -56 -31 -91.5t-86 -39.5h-436q-55 4 -86 39t-31 91t31 92t86 40h436q55 -4 86 -39.5t31 -91.5z" />
    <glyph glyph-name="period" unicode="." horiz-adv-x="549" 
d="M115 136q0 66 46.5 113.5t112.5 47.5t113 -47t47 -113t-47 -114t-113 -48t-112.5 47.5t-46.5 113.5z" />
    <glyph glyph-name="slash" unicode="/" horiz-adv-x="834" 
d="M696 1497q51 0 86 -32.5t35 -80.5q0 -12 -18 -59l-545 -1274q-35 -76 -115 -76q-49 0 -86 33t-37 80q0 15 19 59l547 1274q30 76 114 76z" />
    <glyph glyph-name="zero" unicode="0" 
d="M588 -25q-194 0 -316 114t-174.5 287.5t-52.5 335.5t28 293.5t92 244t169.5 180t253.5 67.5t253 -67.5t168.5 -179.5t92 -245t28.5 -268t-28.5 -268.5t-91.5 -245.5t-169 -180t-253 -68zM588 1217q-223 0 -223 -480q0 -180 44 -330.5t179 -150.5q94 0 158.5 105t64.5 376
q0 480 -223 480z" />
    <glyph glyph-name="one" unicode="1" horiz-adv-x="758" 
d="M311 150v1038h-121q-69 0 -104 41t-35 99t37.5 101.5t101.5 43.5h291q86 0 111.5 -52t25.5 -96v-1175q0 -78 -42 -120t-110 -42t-111.5 43t-43.5 119z" />
    <glyph glyph-name="two" unicode="2" 
d="M924 272q72 0 115.5 -33.5t43.5 -101.5t-41.5 -102.5t-105.5 -34.5h-684q-72 0 -116 35t-44 91t56 126q56 68 151.5 176t181.5 209t163 213t77 190t-42.5 125t-112.5 47t-106 -43t-61 -126t-52 -124.5t-95 -41.5t-108 44t-40 107q0 127 67 235t179 171t236 63t228.5 -53
t165 -150.5t60.5 -211.5t-47 -218.5t-122 -204t-184.5 -225.5t-137.5 -162h375z" />
    <glyph glyph-name="three" unicode="3" 
d="M991 1118q0 -208 -168 -315q114 -52 182 -150.5t68 -220.5t-68.5 -227.5t-187.5 -167.5t-261 -62t-254 60.5t-174 152.5t-62 163t49 111t105 40t118 -89t94 -121t121 -32t145 55t56 145t-44.5 123.5t-133 48t-129.5 38.5t-41 100t36.5 103.5t108.5 46.5t108.5 48t36.5 98
t-39.5 107.5t-106.5 38.5t-104 -26t-72 -77t-60.5 -75t-77.5 -24t-89.5 45.5t-37.5 105.5q0 125 139.5 230.5t306.5 105.5q205 0 320.5 -119.5t115.5 -259.5z" />
    <glyph glyph-name="four" unicode="4" 
d="M670 598v578h-4l-277 -578h281zM670 326h-494q-69 0 -106 38t-37 82t28 93l459 839q36 64 83 91.5t118 27.5t124.5 -28t86.5 -88.5t33 -147.5v-635h34q86 0 115 -48t29 -88t-29 -88t-115 -48h-34v-176q0 -84 -34.5 -123t-112.5 -39t-113 39.5t-35 122.5v176z" />
    <glyph glyph-name="five" unicode="5" 
d="M635 989q121 0 218 -59t151.5 -159.5t54.5 -224.5q0 -260 -140.5 -415.5t-402.5 -155.5q-83 0 -189.5 33.5t-183.5 97t-77 146.5t51 112t85 29t107.5 -45.5t114 -66.5t98.5 -21q102 0 159.5 82t57.5 200t-66 158.5t-119 40.5t-79.5 -9t-60.5 -27t-55 -25.5t-66 -7.5
t-79 33t-34 56t2 40t4 39l52 436q16 118 50 157.5t109 39.5h494q68 0 108.5 -36.5t40.5 -112.5t-46.5 -106t-96.5 -30h-385l-31 -219q98 20 154 20z" />
    <glyph glyph-name="six" unicode="6" 
d="M592 702q-60 0 -129.5 -43.5t-69.5 -171.5q0 -90 52.5 -152.5t140.5 -62.5t142 62t54 136t-22 123t-65 79t-103 30zM568 -25q-132 0 -250 69.5t-181 187.5t-63 258t82 323t204 349.5t234 271.5q10 10 65 49q23 14 65 14t92 -48t50 -93t-36 -87t-145 -164t-144 -173l4 -6
q53 26 151 26t195.5 -63.5t154 -171.5t56.5 -219t-37.5 -203.5t-106 -164t-163.5 -113.5t-227 -42z" />
    <glyph glyph-name="seven" unicode="7" horiz-adv-x="1102" 
d="M182 1188q-77 0 -114 41t-37 101t36 101.5t115 41.5h742q48 0 97.5 -37t49.5 -113q0 -41 -47 -135l-508 -1043q-32 -67 -62 -112t-109 -45t-125 47t-46 89t21 83l512 981h-525z" />
    <glyph glyph-name="eight" unicode="8" 
d="M588 1225q-70 0 -109 -43.5t-39 -113.5t40 -114.5t108 -44.5t108.5 44.5t40.5 114.5t-39.5 113.5t-109.5 43.5zM604 -25q-228 0 -375 133.5t-147 337.5q0 119 59 211.5t160 147.5q-156 112 -156 295q0 117 59 207.5t160.5 140t207.5 49.5q202 0 331 -108.5t129 -288.5
q0 -88 -42 -168.5t-116 -126.5q141 -71 180.5 -175.5t39.5 -183.5q0 -138 -68.5 -246t-184 -166.5t-237.5 -58.5zM588 674q-86 0 -136.5 -58.5t-50.5 -145.5t49.5 -148.5t137.5 -61.5q56 0 98.5 29t65 78t22.5 100q0 97 -50 152t-136 55z" />
    <glyph glyph-name="nine" unicode="9" 
d="M585 770q89 0 143 61t54 152t-52 154t-140 63t-142.5 -62.5t-54.5 -151.5t51.5 -152.5t140.5 -63.5zM590 1497q112 0 209 -41t200 -148t103 -323q0 -144 -82.5 -326t-203.5 -347.5t-234 -272.5q-67 -64 -120 -64q-52 0 -102.5 48.5t-50.5 91.5q-1 43 35 87t143.5 163.5
t147.5 177.5l-4 4q-54 -25 -151 -25t-195 63.5t-154.5 171t-56.5 219.5t37 203t107.5 163.5t165 113.5t206.5 41z" />
    <glyph glyph-name="colon" unicode=":" horiz-adv-x="549" 
d="M115 136q0 66 46.5 113.5t112.5 47.5t113 -47t47 -113t-47 -114t-113 -48t-112.5 47.5t-46.5 113.5zM115 801q0 66 46 114t113 48t113.5 -47.5t46.5 -113.5t-47 -114.5t-113 -48.5t-112.5 48t-46.5 114z" />
    <glyph glyph-name="semicolon" unicode=";" horiz-adv-x="549" 
d="M115 801q0 66 46 114t113 48t113.5 -47.5t46.5 -113.5t-47 -114.5t-113 -48.5t-112.5 48t-46.5 114zM293 324q55 0 98 -41t43 -97q0 -23 -26 -82l-172 -311q-36 -69 -132 -69q-42 0 -83 39.5t-41 82.5t24 97l170 309q25 44 63.5 58t55.5 14z" />
    <glyph glyph-name="less" unicode="&#x3c;" horiz-adv-x="1229" 
d="M1157 136q0 -68 -28.5 -102t-68.5 -34t-104 29l-809 377q-75 32 -75 118t75 117l809 375q66 31 97 31t67.5 -24t36.5 -102t-74 -110l-682 -287l682 -288q74 -32 74 -100z" />
    <glyph glyph-name="equal" unicode="=" horiz-adv-x="1229" 
d="M195 416h839q58 0 90.5 -34.5t32.5 -90.5t-32.5 -89.5t-90.5 -33.5h-839q-58 0 -90.5 33.5t-32.5 89.5t32.5 90.5t90.5 34.5zM195 879h839q58 0 90.5 -34.5t32.5 -89.5t-32.5 -89.5t-90.5 -34.5h-839q-58 0 -90.5 34.5t-32.5 89.5t32.5 89.5t90.5 34.5z" />
    <glyph glyph-name="greater" unicode="&#x3e;" horiz-adv-x="1229" 
d="M72 911q0 68 28.5 102t67.5 34t104 -31l809 -375q76 -31 76 -117t-76 -118l-809 -377q-63 -29 -103 -29t-68.5 34t-28.5 102t73 100l682 288l-682 287q-73 32 -73 100z" />
    <glyph glyph-name="question" unicode="?" horiz-adv-x="985" 
d="M450 -25q-66 0 -113.5 48t-47.5 114t47.5 113t113.5 47t112 -47t46 -113t-46 -114t-112 -48zM950 1066q0 -339 -354 -429v-74q0 -64 -41 -103.5t-107 -39.5t-106.5 39.5t-40.5 103.5v207q0 49 37.5 67.5t121.5 40.5t127.5 59t43.5 111t-51.5 119t-113.5 45t-104 -28
t-86 -79t-73 -74t-79 -23t-84 41t-34 113t44 137.5t150.5 131.5t250.5 66t255 -53t177.5 -154.5t66.5 -223.5z" />
    <glyph glyph-name="at" unicode="@" horiz-adv-x="1638" 
d="M901 412q-81 -101 -225 -101q-74 0 -143.5 51.5t-109.5 134.5t-40 171q0 187 112 324.5t281 137.5q168 0 246 -122h4v24q0 98 115 98q40 0 67 -15t27 -41t-8 -66l-82 -377q-8 -34 -8 -68q0 -43 47 -43q35 0 84 35t85 105.5t36 175.5t-46 194t-169 185t-356 96
q-234 0 -356.5 -122.5t-167 -228.5t-44.5 -283.5t166.5 -346t407.5 -168.5t421 96q15 8 65 49t72 41q76 0 76 -78q0 -44 -55 -110q-199 -185 -569 -185q-325 0 -488.5 165t-221.5 303.5t-58 293.5t58 293.5t162.5 244t241 164t286.5 58.5t285.5 -49.5t242 -139.5t169 -212
t62.5 -263t-62.5 -243t-150.5 -161.5t-177.5 -88.5t-135.5 -29q-142 0 -142 101h-4zM730 522q62 0 109.5 30.5t74 82t26.5 117.5t-42 117t-104 51t-106.5 -33t-70 -84t-25.5 -113t38 -115t100 -53z" />
    <glyph glyph-name="A" unicode="A" horiz-adv-x="1290" 
d="M647 1176l-194 -601h389l-191 601h-4zM651 1497q77 0 133.5 -47t83.5 -125l402 -1124q16 -44 16 -90t-41.5 -84.5t-99.5 -38.5q-114 0 -150 106l-61 195h-569l-62 -193q-34 -108 -147 -108q-63 0 -107.5 42t-44.5 103q0 29 14 68l412 1124q29 77 86.5 124.5t134.5 47.5z
" />
    <glyph glyph-name="B" unicode="B" 
d="M399 616v-344h242q85 0 139 48t54 128t-55.5 124t-162.5 44h-217zM399 1200v-311h160q76 0 121 43.5t45 117.5t-46.5 112t-119.5 38h-160zM1032 1108q0 -213 -190 -303v-4q134 -19 222.5 -119t88.5 -233q0 -214 -130 -331.5t-345 -117.5h-422q-72 0 -118 43t-46 115v1159
q0 73 45.5 114.5t116.5 41.5h393q107 0 194.5 -46t139 -129.5t51.5 -189.5z" />
    <glyph glyph-name="C" unicode="C" horiz-adv-x="1251" 
d="M231.5 1279.5q196.5 217.5 507.5 217.5q156 0 253.5 -37t142.5 -83t45 -107t-37 -102.5t-80 -41.5t-104.5 24.5t-103 37t-125.5 12.5q-171 0 -273.5 -134.5t-102.5 -332.5t102.5 -329.5t282.5 -131.5q73 0 119 15.5t110 44t102 28.5t68.5 -23.5t46 -58.5t15.5 -59
q0 -91 -109 -167.5t-352 -76.5q-306 0 -505 218.5t-199 543.5t196.5 542.5z" />
    <glyph glyph-name="D" unicode="D" horiz-adv-x="1366" 
d="M399 1188v-903h207q189 0 287 124t98 322q0 285 -134 371t-271 86h-187zM92 156v1157q0 71 44.5 115.5t113.5 44.5h340q224 0 387.5 -92.5t248.5 -264.5t85 -392t-87 -384t-247 -252t-367 -88h-356q-62 0 -112 38.5t-50 117.5z" />
    <glyph glyph-name="E" unicode="E" horiz-adv-x="948" 
d="M92 156v1136q0 82 41 131.5t119 49.5h508q70 0 107.5 -42t37.5 -90t-27.5 -100.5t-117.5 -52.5h-361v-303h336q72 0 111 -41.5t39 -99.5t-40 -101t-110 -43h-336v-315h379q71 0 108.5 -41.5t37.5 -99.5t-38.5 -101t-107.5 -43h-528q-68 0 -113 43.5t-45 112.5z" />
    <glyph glyph-name="F" unicode="F" horiz-adv-x="909" 
d="M92 150v1161q0 68 43 115t117 47h524q65 0 101 -42.5t36 -100.5t-36 -100t-101 -42h-377v-303h318q71 0 109 -41t38 -89t-27 -101.5t-120 -53.5h-318v-450q0 -78 -42.5 -120t-110.5 -42t-111 43t-43 119z" />
    <glyph glyph-name="G" unicode="G" horiz-adv-x="1442" 
d="M879 872h348q96 0 138 -48.5t42 -173.5t-46.5 -253.5t-134.5 -223.5t-212 -146.5t-275 -51.5t-281 57.5t-226 163t-146.5 243t-50.5 380.5t196.5 460.5t507.5 217.5q229 0 396.5 -89t167.5 -208q0 -60 -36.5 -99.5t-85.5 -39.5t-96.5 27.5t-121.5 75.5t-210 48
t-223.5 -65t-131.5 -173t-44 -237t43 -238t130.5 -174t192.5 -65t185 34.5t131 109t51 184.5h-208q-63 0 -103.5 40.5t-40.5 103.5t41.5 101.5t102.5 38.5z" />
    <glyph glyph-name="H" unicode="H" horiz-adv-x="1442" 
d="M92 150v1173q0 76 43 119t111 43t110.5 -42t42.5 -120v-438h643v438q0 76 43 119t111 43t111 -42t43 -120v-1173q0 -78 -42 -120t-111 -42t-112 43t-43 119v450h-643v-450q0 -78 -42.5 -120t-110.5 -42t-111 43t-43 119z" />
    <glyph glyph-name="I" unicode="I" horiz-adv-x="492" 
d="M92 150v1173q0 76 43 119t111 43t110.5 -42t42.5 -120v-1173q0 -78 -42.5 -120t-110.5 -42t-111 43t-43 119z" />
    <glyph glyph-name="J" unicode="J" horiz-adv-x="834" 
d="M754 1323v-909q0 -239 -119.5 -339t-269.5 -100t-234.5 40t-122 86.5t-37.5 100.5t33 95t71 41t66 -10t87.5 -39t103.5 -29q75 0 94.5 49t19.5 125v889q0 76 43 119t111 43t111 -42t43 -120z" />
    <glyph glyph-name="K" unicode="K" horiz-adv-x="1251" 
d="M92 137v1194q0 66 43 110t111 44t110.5 -41t42.5 -113v-446l504 542q53 58 117 58t109 -41.5t45 -93.5t-24 -89t-77 -90l-387 -385l473 -499q86 -82 86 -154t-46 -108.5t-100 -36.5t-86.5 22t-82.5 74l-531 580v-527q0 -63 -43 -106t-110 -43t-110.5 41t-43.5 108z" />
    <glyph glyph-name="L" unicode="L" horiz-adv-x="872" 
d="M92 170v1153q0 76 43 119t111 43t110.5 -42t42.5 -120v-1038h365q74 0 111 -44.5t35 -102.5t-41.5 -98t-104.5 -40h-512q-74 0 -117 46t-43 124z" />
    <glyph glyph-name="M" unicode="M" horiz-adv-x="1782" 
d="M440 1485q76 0 132.5 -44t74.5 -106l242 -817h4l242 817q17 60 74 105t132 45t132 -49.5t67 -110.5l191 -1153q2 -12 2 -35q0 -68 -42.5 -108.5t-111.5 -40.5t-105.5 34.5t-48.5 110.5l-120 842h-5l-245 -866q-35 -121 -165 -121t-163 121l-246 866h-4l-121 -842
q-11 -75 -46.5 -110t-105.5 -35t-112.5 41.5t-42.5 107.5q0 23 2 35l191 1153q10 61 66 110.5t132 49.5z" />
    <glyph glyph-name="N" unicode="N" horiz-adv-x="1403" 
d="M80 150v1173q0 77 42.5 119.5t110.5 42.5q29 0 69 -19.5t60 -48.5l650 -874h4v780q0 77 43 119.5t111 42.5t110.5 -42t42.5 -120v-1173q0 -78 -42 -120t-112 -42q-28 0 -66.5 19.5t-62.5 47.5l-649 865h-4v-770q0 -78 -42 -120t-111 -42t-111.5 42.5t-42.5 119.5z" />
    <glyph glyph-name="O" unicode="O" horiz-adv-x="1479" 
d="M741 -25q-153 0 -283 57.5t-226 163t-146.5 243t-50.5 380.5t196.5 460.5t507.5 217.5q201 0 362 -101.5t252 -275.5t91 -358t-50 -322.5t-145 -244t-225 -163t-283 -57.5zM724 260q200 0 300 136.5t100 340.5q0 129 -44 237t-131.5 173t-209.5 65t-209.5 -65
t-131.5 -173t-44 -237t43 -238t130 -174t197 -65z" />
    <glyph glyph-name="P" unicode="P" horiz-adv-x="1139" 
d="M399 1200v-438h209q94 0 152.5 61.5t58.5 156.5t-58.5 157.5t-152.5 62.5h-209zM92 150v1161q0 74 42 118t118 44h362q230 0 377.5 -137.5t147.5 -356.5q0 -146 -68 -258.5t-185.5 -173t-258.5 -60.5h-228v-337q0 -78 -42.5 -120t-110.5 -42t-111 43t-43 119z" />
    <glyph glyph-name="Q" unicode="Q" horiz-adv-x="1479" 
d="M1124 724q0 140 -44 248.5t-131 174t-209 65.5t-210 -65t-132 -173t-44 -237t43 -238t130.5 -174t211.5 -65q59 0 131 14l-73 74q-39 36 -39 90t38.5 98t87.5 44t91 -27l100 -82q49 113 49 253zM1444 737q0 -279 -137 -479l116 -100q72 -61 72 -130q0 -68 -53 -97
t-101 -29t-124 65l-117 99q-158 -91 -335 -91t-307 57.5t-226 163t-146.5 243t-50.5 380.5t196.5 460.5t507.5 217.5q201 0 362 -101.5t252 -275.5t91 -383z" />
    <glyph glyph-name="R" unicode="R" horiz-adv-x="1139" 
d="M399 1188v-367h211q119 0 155 65t36 136t-52.5 118.5t-138.5 47.5h-211zM92 150v1161q0 76 40.5 119t117.5 43h360q244 0 377 -115.5t133 -351.5q0 -164 -106.5 -264.5t-272.5 -127.5l349 -376q40 -44 40 -98t-44.5 -103t-113.5 -49t-114 53l-455 557h-4v-448
q0 -78 -42.5 -120t-110.5 -42t-111 43t-43 119z" />
    <glyph glyph-name="S" unicode="S" horiz-adv-x="1100" 
d="M524 1497q76 0 147 -11t133 -33t106 -63.5t44 -90.5t-28 -104.5t-109 -55.5q-40 0 -121 30.5t-151 30.5t-119 -35t-49 -101t112 -106t248 -85t230 -141t94 -258t-71 -271.5t-191.5 -168.5t-278.5 -59t-319.5 52.5t-161.5 179.5q0 63 38.5 105t84.5 42q65 0 176 -41
t178 -41q68 0 140.5 34.5t72.5 144.5q0 79 -54.5 103t-250 85.5t-287.5 144.5t-92 244q0 210 110.5 307t201.5 129.5t167 32.5z" />
    <glyph glyph-name="T" unicode="T" horiz-adv-x="983" 
d="M338 150v1038h-223q-69 0 -104.5 41t-35.5 89t27.5 101.5t112.5 53.5h753q64 0 102 -43.5t38 -101.5t-35 -99t-105 -41h-223v-1038q0 -78 -42 -120t-111 -42t-111.5 42t-42.5 120z" />
    <glyph glyph-name="U" unicode="U" horiz-adv-x="1403" 
d="M80 586v737q0 77 43 119.5t111 42.5t110.5 -42t42.5 -120v-721q0 -95 38.5 -173t110.5 -123.5t166 -45.5q137 0 225.5 101.5t88.5 240.5v721q0 77 43 119.5t111 42.5t110.5 -42t42.5 -120v-737q0 -260 -183 -435.5t-440 -175.5t-438.5 176t-181.5 435z" />
    <glyph glyph-name="V" unicode="V" horiz-adv-x="1212" 
d="M-8 1338q0 42 35 94.5t124 52.5t138 -101l317 -860l318 860q47 101 137 101t125 -53t35 -95t-15 -77l-448 -1151q-22 -57 -56 -89t-96 -32t-95.5 31t-55.5 90l-449 1151q-14 36 -14 78z" />
    <glyph glyph-name="W" unicode="W" horiz-adv-x="1860" 
d="M16 1357q0 44 41 86t105 42q133 0 164 -150l174 -878h4l266 907q18 55 61 88t99 33t100 -33t60 -88l266 -907h4l174 878q29 150 164 150q65 0 105 -41.5t40 -85.5t-8 -80l-260 -1128q-16 -72 -68 -117t-130 -45t-133 42t-75 109l-237 799h-4l-238 -799q-19 -67 -74 -109
t-133 -42t-130 45t-68 117l-260 1128q-9 35 -9 79z" />
    <glyph glyph-name="X" unicode="X" horiz-adv-x="1253" 
d="M84 1343q0 58 44.5 100t96.5 42q96 0 148 -76l254 -365l254 365q22 32 59 54t77 22t96 -29t56 -123q0 -47 -32 -90l-332 -455l405 -550q35 -46 35 -108t-43.5 -102t-117.5 -40t-121 67l-336 473l-336 -473q-47 -67 -121 -67t-118 40t-44 100t35 110l406 550l-332 455
q-33 42 -33 100z" />
    <glyph glyph-name="Y" unicode="Y" horiz-adv-x="1098" 
d="M395 139v551l-387 551q-28 42 -28 99t41 101t93 44q100 0 140 -62l295 -432l295 432q40 62 129 62q41 0 93 -32t52 -120q0 -50 -28 -92l-388 -551v-551q0 -65 -39 -108t-115 -43t-114.5 43t-38.5 108z" />
    <glyph glyph-name="Z" unicode="Z" horiz-adv-x="1214" 
d="M1022 272q66 0 106.5 -35t40.5 -97t-44.5 -101t-102.5 -39h-805q-81 0 -126.5 41t-45.5 106t41 121l659 932h-538q-63 0 -103.5 35t-40.5 95t42 101.5t102 41.5h749q84 0 128 -43.5t44 -111.5t-45 -126l-655 -920h594z" />
    <glyph glyph-name="bracketleft" unicode="[" horiz-adv-x="569" 
d="M90 -170v1520q0 68 41.5 107.5t108.5 39.5h204q49 0 79 -28.5t30 -88.5q0 -118 -109 -118h-96v-1344h96q48 0 78.5 -29t30.5 -89t-30.5 -89.5t-78.5 -29.5h-204q-66 0 -108 41t-42 108z" />
    <glyph glyph-name="backslash" unicode="\" horiz-adv-x="834" 
d="M817 88q0 -47 -36 -80t-87 -33q-82 0 -112 76l-549 1274q-17 53 -17 59q0 47 35 80t86 33q83 0 115 -76l547 -1274q18 -42 18 -59z" />
    <glyph glyph-name="bracketright" unicode="]" horiz-adv-x="569" 
d="M479 1350v-1520q0 -67 -41 -108t-108 -41h-205q-48 0 -78.5 30.5t-30.5 88.5t30.5 88t78.5 30h96v1344h-96q-49 0 -79 30t-30 88t30 87.5t79 29.5h205q68 0 108.5 -39.5t40.5 -107.5z" />
    <glyph glyph-name="asciicircum" unicode="^" horiz-adv-x="1229" 
d="M268 651q-118 0 -118 84q0 32 26 82l330 606q30 62 109 62t108 -62l330 -606q26 -50 26 -86t-29 -58t-88 -22t-92 45l-256 480l-256 -480q-32 -45 -90 -45z" />
    <glyph glyph-name="underscore" unicode="_" horiz-adv-x="1024" 
d="M1024 -258h-1024q-24 0 -41.5 14t-17.5 37t16.5 37t42.5 14h1024q26 0 42.5 -13.5t16.5 -37.5t-17.5 -37.5t-41.5 -13.5z" />
    <glyph glyph-name="grave" unicode="`" horiz-adv-x="455" 
d="M479 1372q0 -40 -32 -87.5t-67 -47.5t-48.5 5t-42.5 15l-230 93q-84 29 -84 120q0 44 33.5 86.5t68.5 42.5t87 -20l242 -100l16 -9q57 -30 57 -98z" />
    <glyph glyph-name="a" unicode="a" 
d="M336 548q0 -75 26.5 -144t79 -112.5t126.5 -43.5t151.5 65.5t77.5 235.5q0 118 -59.5 210.5t-168.5 92.5q-75 0 -128 -44t-79 -114.5t-26 -145.5zM542 -25q-151 0 -262.5 73.5t-175 204.5t-63.5 293t65.5 294.5t178 208t243.5 75.5q83 0 158 -34t123 -101q6 54 46.5 88.5
t94.5 34.5q94 0 118 -53.5t24 -140.5v-736q0 -86 -24 -140t-118 -54q-60 0 -92.5 31.5t-48.5 95.5q-116 -140 -267 -140z" />
    <glyph glyph-name="b" unicode="b" 
d="M379 536q0 -98 59.5 -193t169.5 -95t171 92t61 208t-61 210t-169 94q-74 0 -127 -42t-78.5 -109t-25.5 -165zM84 154v1273q0 74 41 120t95 46t106.5 -33t52.5 -133v-405q117 102 275 102t265 -83.5t161.5 -218.5t54.5 -281t-60 -276t-172.5 -210t-253.5 -80
q-81 0 -155 35.5t-115 102.5q-30 -125 -148 -125q-66 0 -106.5 45.5t-40.5 120.5z" />
    <glyph glyph-name="c" unicode="c" horiz-adv-x="948" 
d="M930 945q0 -59 -32 -104.5t-74 -45.5t-115 28.5t-129 28.5q-114 0 -179 -90.5t-65 -210.5t66.5 -211.5t181.5 -91.5q41 0 123.5 31.5t95.5 31.5q52 0 89.5 -38.5t37.5 -100.5t-62.5 -108t-149.5 -67.5t-149 -21.5q-154 0 -274.5 77.5t-187 208.5t-66.5 265t38 238
t108.5 185t169.5 128t189 47t176 -18.5t147 -60t61 -100.5z" />
    <glyph glyph-name="d" unicode="d" 
d="M797 559q0 76 -25.5 142.5t-78.5 108.5t-128 42q-107 0 -168 -93.5t-61 -209.5t61 -208.5t168 -92.5q76 0 128.5 45.5t78 117.5t25.5 148zM1092 1427v-1273q0 -102 -53 -134t-95 -32q-119 0 -147 125q-41 -67 -115.5 -102.5t-155.5 -35.5q-141 0 -253 80t-172 210.5
t-60 276.5t54 280t161.5 218t265.5 84t275 -102v405q0 74 41 120t95 46t106.5 -33t52.5 -133z" />
    <glyph glyph-name="e" unicode="e" horiz-adv-x="1100" 
d="M550 877q-65 0 -141.5 -46t-93.5 -182h469q-15 140 -92 184t-142 44zM950 451h-628q14 -107 91.5 -161t165.5 -54t130.5 19t117.5 60t106 41t76.5 -30.5t45.5 -95.5t-74 -124t-188 -95t-228 -36q-238 0 -391.5 163t-153.5 402q0 240 109.5 365t208.5 172t213 47t213 -48
t207 -171t108 -321q0 -133 -129 -133z" />
    <glyph glyph-name="f" unicode="f" horiz-adv-x="606" 
d="M152 154v686h-66q-60 0 -94.5 35t-34.5 93t37 95t92 37h66v153q0 161 85.5 250.5t223.5 89.5q205 0 205 -135q0 -127 -121 -127q-49 0 -74 -18.5t-25 -89.5v-123h93q149 0 149 -130t-149 -130h-93v-686q0 -103 -52.5 -134.5t-106.5 -31.5t-94.5 45.5t-40.5 120.5z" />
    <glyph glyph-name="g" unicode="g" 
d="M797 542q0 75 -25.5 147t-78 117.5t-126.5 45.5t-152.5 -66.5t-78.5 -239.5t78 -235.5t153 -62.5t127 42.5t77.5 109.5t25.5 142zM41 547q0 149 60 282.5t171.5 214t238.5 80.5t193 -46t93 -89q28 123 147 123q89 0 118.5 -58t29.5 -106v-862q0 -172 -106 -354.5
t-462 -182.5q-70 0 -182.5 23.5t-197.5 75t-85 125.5q0 41 39 86t79 45t125.5 -33.5t127.5 -47t116 -13.5t162.5 43t88.5 192v72h-4q-96 -142 -306 -142t-328 166t-118 406z" />
    <glyph glyph-name="h" unicode="h" horiz-adv-x="1139" 
d="M84 154v1273q0 74 41 120t95 46t106.5 -33t52.5 -133v-405h4q80 102 268 102q116 0 208 -47.5t144 -138t52 -213.5v-571q0 -102 -53 -134t-107 -32t-94.5 45.5t-40.5 120.5v518q0 101 -53.5 153t-140.5 52t-137 -58t-50 -147v-518q0 -102 -53 -134t-107 -32t-94.5 45.5
t-40.5 120.5z" />
    <glyph glyph-name="i" unicode="i" horiz-adv-x="455" 
d="M216 1561q52 0 91.5 -23t62.5 -61.5t23 -94.5t-48.5 -106.5t-116.5 -50.5t-117.5 52t-49.5 117t51.5 116t103.5 51zM80 154v794q0 75 40.5 119.5t94.5 44.5t107 -32t53 -132v-794q0 -102 -53 -134t-107 -32t-94.5 45.5t-40.5 120.5z" />
    <glyph glyph-name="j" unicode="j" horiz-adv-x="455" 
d="M216 1561q52 0 91.5 -23t62.5 -61.5t23 -94.5t-48.5 -106.5t-116.5 -50.5t-117.5 52t-49.5 117t51.5 116t103.5 51zM80 -285v1233q0 75 40.5 119.5t94.5 44.5t107 -32t53 -132v-1233q0 -75 -41.5 -120.5t-106.5 -45.5t-106 46t-41 120z" />
    <glyph glyph-name="k" unicode="k" horiz-adv-x="1024" 
d="M84 154v1273q0 74 41 120t95 46t106.5 -33t52.5 -133v-694l323 316q67 63 127 63t96 -41t36 -99t-58 -112l-262 -235l346 -410q37 -41 37 -99t-40.5 -99.5t-88.5 -41.5t-80 21.5t-72 69.5l-360 448h-4v-360q0 -102 -53 -134t-107 -32t-94.5 45.5t-40.5 120.5z" />
    <glyph glyph-name="l" unicode="l" horiz-adv-x="455" 
d="M80 154v1273q0 74 41 120t95 46t106.5 -33t52.5 -133v-1273q0 -102 -53 -134t-107 -32t-94.5 45.5t-40.5 120.5z" />
    <glyph glyph-name="m" unicode="m" horiz-adv-x="1745" 
d="M84 154v794q0 75 40 119.5t102 44.5q124 0 141 -111q112 123 286 123t293 -149q59 67 147.5 108t186.5 41t189.5 -46t141.5 -136t50 -217v-571q0 -102 -53 -134t-107 -32t-94.5 45.5t-40.5 120.5v518q0 126 -59.5 165.5t-113.5 39.5t-113.5 -39.5t-59.5 -165.5v-518
q0 -102 -53 -134t-107 -32t-94.5 45.5t-40.5 120.5v518q0 126 -59.5 165.5t-115.5 39.5t-113.5 -37.5t-57.5 -167.5v-518q0 -102 -53 -134t-107 -32t-94.5 45.5t-40.5 120.5z" />
    <glyph glyph-name="n" unicode="n" horiz-adv-x="1139" 
d="M651 1124q116 0 208 -47.5t144 -138t52 -213.5v-571q0 -102 -53 -134t-107 -32t-94.5 45.5t-40.5 120.5v518q0 101 -53.5 153t-140.5 52t-137 -58t-50 -147v-518q0 -102 -53 -134t-107 -32t-94.5 45.5t-40.5 120.5v794q0 75 40.5 119.5t106.5 44.5q119 0 136 -108
q87 120 284 120z" />
    <glyph glyph-name="o" unicode="o" horiz-adv-x="1139" 
d="M570 852q-76 0 -129 -44t-79 -114.5t-26 -145.5t26.5 -144t79 -112.5t128.5 -43.5t154.5 65.5t78.5 235.5q0 73 -26 143.5t-78.5 115t-128.5 44.5zM570 1124q114 0 213 -47.5t207 -172t108 -359.5t-147.5 -402.5t-401.5 -167.5q-134 0 -254.5 77.5t-187 208.5t-66.5 265
t38 238t108.5 185t169.5 128t213 47z" />
    <glyph glyph-name="p" unicode="p" 
d="M379 536q0 -98 59.5 -193t169.5 -95t171 92t61 208t-61 210t-169 94q-74 0 -127 -42t-78.5 -109t-25.5 -165zM644 -25q-146 0 -265 103v-363q0 -75 -41.5 -120.5t-106.5 -45.5t-106 46t-41 120v1233q0 75 40.5 119.5t106.5 44.5q118 0 148 -123q41 66 117 100.5t163 34.5
q152 0 259.5 -83.5t162 -218.5t54.5 -281t-60 -276t-172.5 -210t-258.5 -80z" />
    <glyph glyph-name="q" unicode="q" 
d="M797 559q0 76 -25.5 142.5t-78.5 108.5t-128 42q-107 0 -168 -93.5t-61 -209.5t61 -208.5t168 -92.5q76 0 128.5 45.5t78 117.5t25.5 148zM41 542q0 146 54 280t162 218t244 84q210 0 296 -135q28 123 147 123q89 0 118.5 -58t29.5 -106v-1233q0 -75 -41.5 -120.5
t-106.5 -45.5t-106 46t-41 120v363q-119 -103 -266 -103q-146 0 -258 80t-172 210.5t-60 276.5z" />
    <glyph glyph-name="r" unicode="r" horiz-adv-x="682" 
d="M80 154v811q0 69 45.5 108t105.5 39q144 0 144 -123h4q45 65 92 94t109 29t105.5 -41t43.5 -101t-22.5 -84t-61.5 -40t-109 -46t-115.5 -71t-45.5 -119v-456q0 -102 -53 -134t-107 -32t-94.5 45.5t-40.5 120.5z" />
    <glyph glyph-name="s" unicode="s" horiz-adv-x="872" 
d="M825 918q0 -60 -34.5 -100t-71.5 -40t-101.5 29t-100 43t-77.5 14t-71 -21t-29 -63t88 -80.5t186 -79t168 -109.5t70 -177t-52.5 -188t-148.5 -125.5t-201 -45.5t-201 30t-162.5 83.5t-66.5 116.5t45.5 98t83.5 35t68 -12.5t98 -51t136 -38.5q67 0 92.5 20.5t25.5 64.5
t-87 81t-187.5 79.5t-169 112.5t-68.5 178t51 186.5t142.5 122t189.5 43.5t182.5 -24t143.5 -73t59 -109z" />
    <glyph glyph-name="t" unicode="t" horiz-adv-x="606" 
d="M156 154v686h-66q-60 0 -94.5 35t-34.5 93t37 95t92 37h66v178q0 75 41 120.5t95 45.5t106.5 -32.5t52.5 -133.5v-178h84q61 0 101 -32t40 -98t-39.5 -98t-101.5 -32h-84v-686q0 -102 -53 -134t-107 -32t-94.5 45.5t-40.5 120.5z" />
    <glyph glyph-name="u" unicode="u" horiz-adv-x="1139" 
d="M84 410v538q0 75 40.5 119.5t94.5 44.5t107 -32t53 -132v-532q0 -90 56.5 -141.5t120.5 -51.5t134 36.5t70 156.5v532q0 75 40.5 119.5t94.5 44.5t107 -32t53 -132v-538q0 -274 -167 -354.5t-319 -80.5q-230 0 -357.5 117.5t-127.5 317.5z" />
    <glyph glyph-name="v" unicode="v" horiz-adv-x="946" 
d="M-2 982q0 54 45 92t109 38q96 0 131 -104l188 -588h4l189 588q32 104 131 104q64 0 108.5 -37.5t44.5 -91.5t-18 -102l-297 -768q-23 -65 -57 -95t-103 -30t-102 30t-58 95l-297 768q-18 47 -18 101z" />
    <glyph glyph-name="w" unicode="w" horiz-adv-x="1593" 
d="M14 993q0 50 42 84.5t100 34.5t95.5 -32t49.5 -85l170 -569h4l172 557q19 63 54 96t97 33t96.5 -33t51.5 -96l172 -557h4l170 569q30 117 146 117q60 0 100.5 -38t40.5 -105q0 -26 -29 -113l-252 -717q-51 -151 -178 -151t-170 139l-151 479h-4l-152 -479
q-43 -139 -169 -139t-179 151l-250 713q-31 91 -31 141z" />
    <glyph glyph-name="x" unicode="x" horiz-adv-x="1024" 
d="M45 970q0 56 46.5 99t106.5 43t107 -57l207 -260l207 260q48 57 107 57t106 -43t47 -99t-45 -110l-250 -282l299 -345q41 -41 41 -103t-41 -102t-95 -40t-78.5 15t-53.5 50l-244 303l-244 -303q-29 -35 -53.5 -50t-78.5 -15t-95 40.5t-41 100.5t41 104l299 345l-250 282
q-45 54 -45 110z" />
    <glyph glyph-name="y" unicode="y" horiz-adv-x="985" 
d="M-4 994q0 44 44 81t96 37q109 0 147 -104l202 -562l217 562q42 104 148 104q50 0 94.5 -37t44.5 -85t-14 -83l-494 -1241q-46 -117 -139 -117q-71 0 -112.5 38.5t-41.5 82.5t19 94l129 322l-326 821q-14 43 -14 87z" />
    <glyph glyph-name="z" unicode="z" horiz-adv-x="985" 
d="M170 840q-57 0 -95 35t-38 95t38 95t95 35h670q32 0 64 -20t32 -71t-31 -91l-465 -658h389q58 0 96 -35t38 -95t-38 -95t-96 -35h-686q-52 0 -86 26t-34 70t26 86l463 658h-342z" />
    <glyph glyph-name="braceleft" unicode="{" horiz-adv-x="682" 
d="M176 -47v401q0 82 -25.5 108.5t-72.5 26.5t-72.5 30.5t-25.5 70.5t25 69t65 29t73 14.5t33 122.5v402q0 270 273 270h126q41 0 67 -23.5t26 -68.5t-26 -69.5t-67 -24.5h-51q-90 0 -90 -119v-391q0 -123 -65.5 -162t-155.5 -47v-4q90 -8 155.5 -47t65.5 -162v-391
q0 -121 90 -121h51q41 0 67 -23.5t26 -67.5t-25.5 -69.5t-67.5 -25.5h-126q-181 0 -227 88.5t-46 183.5z" />
    <glyph glyph-name="bar" unicode="|" horiz-adv-x="455" 
d="M350 1468v-1370q0 -54 -33.5 -88.5t-88.5 -34.5t-89.5 34.5t-34.5 88.5v1370q0 55 34 90t90 35t89 -35t33 -90z" />
    <glyph glyph-name="braceright" unicode="}" horiz-adv-x="682" 
d="M506 -47q0 -272 -273 -272h-127q-40 0 -66 25.5t-26 69.5t26 67.5t66 23.5h52q90 0 90 121v391q0 87 36.5 131.5t83.5 58.5t101 19v4q-54 5 -101 19t-83.5 58.5t-36.5 131.5v391q0 119 -90 119h-52q-40 0 -66 24.5t-26 69.5t26 68.5t66 23.5h127q273 0 273 -270v-402
q0 -85 25.5 -111t73.5 -26t72.5 -28t24.5 -70t-25 -71.5t-73 -29.5t-73 -26.5t-25 -108.5v-401z" />
    <glyph glyph-name="asciitilde" unicode="~" horiz-adv-x="1229" 
d="M832 578q35 0 61.5 15.5t58.5 46.5t55 46.5t59 15.5t57.5 -29t21.5 -83t-37.5 -117t-108.5 -103t-143 -40t-125.5 17.5t-167.5 69.5t-158 52t-71 -16t-62 -50t-53.5 -46.5t-54.5 -12.5t-58 30t-22 82t37 116t109 104.5t144 40.5t131.5 -19.5t141.5 -56.5t116 -50t69 -13z
" />
    <glyph glyph-name="u009D" horiz-adv-x="0" 
d="M893 1104q49 0 49 -49q0 -27 -21.5 -63.5t-51.5 -62.5t-56 -26q-47 0 -47 51q0 26 21 62t50.5 62t55.5 26zM360 86q0 60 68 212t151 281.5t115 129.5q16 0 27.5 -10.5t11.5 -26.5t-98.5 -169t-165.5 -378q-14 -50 -24.5 -69t-34.5 -19t-37 15t-13 34zM94 1284
q0 66 -86 66q-48 0 -133 -40t-156 -94t-128.5 -142t-57.5 -158t20.5 -123t45 -94t76.5 -123t69 -119q62 37 96 37q62 0 62 -50q0 -19 -12.5 -29.5t-40 -21t-59.5 -30t-32 -105.5q4 -57 53.5 -89t118.5 -32q4 2 9 2q70 0 138.5 26t113.5 74.5t45 106.5t-30 115t-88 143.5
t-88 150t-30 131.5t23 134q-5 -4 -14 -14t-43 -37t-112 -72t-112 -45t-53 14t-19 33l2 4q0 40 70 66q108 35 207 110q145 121 145 205zM674 1290q0 66 -88 66q-50 0 -134.5 -40t-153.5 -94t-127 -142t-58 -166t30.5 -141.5t90.5 -155t91 -151t31 -116.5q0 -92 -64 -164.5
t-162 -111.5t-187 -39q-191 0 -262 110q-61 -54 -149.5 -85t-179.5 -31t-191.5 48.5t-100.5 186.5q2 89 61 156t152 67q49 0 49 -49q0 -28 -48 -49.5t-71.5 -41.5t-23.5 -83t49 -98t123 -35q4 2 8 2q70 0 138.5 26t113.5 74.5t45 106.5t-30 115t-88 143.5t-88 150.5t-30 130
q0 202 197 376q89 81 204 138t201 57t133.5 -37t47.5 -106q0 -22 -6 -43q88 80 202 136t202 56q181 0 181 -150q0 -76 -62 -159t-136 -141q-189 -148 -277 -148q-19 0 -38 14t-19 33l2 4q0 40 70 66q110 37 194 103q158 124 158 212z" />
    <glyph glyph-name="nonbreakingspace" unicode="&#xa0;" horiz-adv-x="1536" 
 />
    <glyph glyph-name="exclamdown" unicode="&#xa1;" horiz-adv-x="684" 
d="M342 1124q66 0 113 -46t47 -114t-47 -114.5t-113 -46.5t-113 46.5t-47 114.5t47 114t113 46zM195 -256v797q0 63 41 101t105 38t106 -38t42 -101v-797q0 -63 -42 -102t-106 -39t-105 38.5t-41 102.5z" />
    <glyph glyph-name="cent" unicode="&#xa2;" horiz-adv-x="948" 
d="M803 311q52 0 89.5 -38.5t37.5 -92.5q0 -96 -106.5 -147.5t-225.5 -57.5v-47q0 -49 -9 -73.5t-47 -24.5t-46.5 24.5t-8.5 73.5v56q-136 19 -238 98t-155 202t-53 269t55 265.5t157 198t234 99.5v60q0 67 14.5 81.5t46.5 14.5t41 -22t9 -74v-52q174 -5 253 -64.5
t79 -117.5t-32 -104.5t-74 -46.5t-111.5 28t-114.5 31v-602q40 3 115.5 33t89.5 30zM336 552q0 -92 39.5 -169t111.5 -111v557q-73 -30 -112 -107.5t-39 -169.5z" />
    <glyph glyph-name="sterling" unicode="&#xa3;" horiz-adv-x="1251" 
d="M870 877q91 0 119.5 -49.5t28.5 -105.5t-41 -93t-107 -37h-264q0 -160 -104 -307h569q91 0 119.5 -49.5t28.5 -105.5t-41 -93t-107 -37h-803q-76 0 -117.5 43.5t-41.5 118.5q0 27 25.5 62.5t89 125.5t63.5 242h-107q-66 0 -106.5 38t-40.5 104t40.5 104.5t106.5 38.5h43
q-19 39 -36 108t-17 111q0 119 70 210.5t188 141t242 49.5q232 0 383 -100.5t151 -255.5q0 -72 -44 -115t-102 -43t-85 24t-69.5 79t-87.5 84.5t-122 29.5t-134.5 -42t-57.5 -112t26 -114l31 -55h311z" />
    <glyph glyph-name="currency" unicode="&#xa4;" horiz-adv-x="1229" 
d="M614 1016q-114 0 -188 -80t-74 -198t75 -197.5t187 -79.5t187.5 79.5t75.5 197.5t-74.5 198t-188.5 80zM1122 750q0 -190 -94 -301l119 -119q29 -29 29 -58q0 -30 -24 -64t-67 -34q-42 0 -63 25l-117 123q-47 -45 -126 -71t-165 -26t-164 26t-126 71l-117 -123
q-21 -25 -63 -25t-66 34t-25 64q0 30 29 58l119 119q-95 109 -95 288q0 87 24.5 167.5t70.5 123.5l-119 121q-25 25 -29 47q0 45 25 76t66 31t63 -25l117 -117q49 40 128.5 65t161.5 25t163.5 -25.5t127.5 -64.5l117 117q22 25 63 25q41 -1 66 -35t25 -62t-29 -57l-119 -121
q94 -88 94 -278z" />
    <glyph glyph-name="yen" unicode="&#xa5;" 
d="M434 139v250h-291q-39 0 -68.5 24.5t-29.5 62.5t29.5 62.5t68.5 24.5h291v139h-291q-40 0 -69 26t-29 63t29.5 61.5t68.5 24.5h166l-260 364q-29 43 -29 99t42 100.5t92 44.5q100 0 141 -62l293 -432l293 432q17 27 55 44.5t76 17.5t90.5 -32t52.5 -120q0 -51 -29 -92
l-260 -364h166q39 0 68.5 -24.5t29.5 -61.5t-29 -63t-69 -26h-291v-139h291q39 0 68.5 -24.5t29.5 -62.5t-29.5 -62.5t-68.5 -24.5h-291v-250q0 -64 -37.5 -107.5t-115.5 -43.5t-116 43.5t-38 107.5z" />
    <glyph glyph-name="brokenbar" unicode="&#xa6;" horiz-adv-x="455" 
d="M104 1067v401q0 55 34 90t90 35t89 -35t33 -90v-401q0 -56 -32.5 -89.5t-89.5 -33.5t-90.5 33.5t-33.5 89.5zM104 98v402q0 56 33.5 90.5t90.5 34.5t89.5 -34.5t32.5 -90.5v-402q0 -54 -33.5 -88.5t-88.5 -34.5t-89.5 34.5t-34.5 88.5z" />
    <glyph glyph-name="section" unicode="&#xa7;" 
d="M815 477q0 94 -151 152l-226 88q-90 -68 -90 -151t105 -134l258 -108q104 59 104 153zM580 1497q97 0 214 -30.5t201 -99t84 -175.5q0 -59 -40.5 -103.5t-88.5 -44.5t-77 19.5t-79.5 67t-90 71t-97.5 23.5t-102.5 -40.5t-44.5 -98.5t41 -86t144.5 -67.5t154.5 -66.5
q102 -42 219 -113.5t117 -238.5q0 -125 -52 -206.5t-165 -160.5q44 -58 66 -107.5t22 -123.5t-34.5 -145t-127.5 -146.5t-271 -75.5q-117 0 -236.5 44.5t-195 117.5t-75.5 145t48 116t100 44t78 -22t69 -71.5t82 -75t94 -25.5t102 32t47 80q0 84 -72 121.5t-236 102.5
q-165 64 -251 147.5t-86 231.5t58 224t124 130q-50 58 -73 105t-23 125t35 151.5t97 123t143 75.5t178 26z" />
    <glyph glyph-name="dieresis" unicode="&#xa8;" horiz-adv-x="455" 
d="M-145 1397q0 63 42.5 105t104.5 42t105 -42t43 -105t-43 -106.5t-105 -43.5t-104.5 43.5t-42.5 106.5zM305 1397q0 61 43.5 104t105.5 43t104 -42t42 -105t-42 -106.5t-104 -43.5t-105.5 44.5t-43.5 105.5z" />
    <glyph glyph-name="copyright" unicode="&#xa9;" horiz-adv-x="1638" 
d="M250 676.5q0 -177.5 166.5 -346t402.5 -168.5q116 0 221.5 44.5t183 123t121.5 185t44 222.5t-44.5 223t-121.5 184.5t-182 122t-221 44.5t-220 -44t-182.5 -122.5t-123 -184.5t-44.5 -283.5zM66 737q0 155 58 293.5t162.5 244t241 164t291.5 58.5t292.5 -58.5
t241.5 -163.5t162 -244t58 -294t-58 -294t-162.5 -244.5t-243.5 -164.5t-290 -59t-289 59t-243 165t-163 244.5t-58 293.5zM817 977q-83 0 -130.5 -64.5t-47.5 -176.5t48 -176t129 -64t115 22t56 57q27 55 43.5 74t67.5 19q49 -9 65.5 -31.5t16.5 -75.5t-46 -111.5
t-127 -98.5t-193 -40t-204 55t-142 151.5t-50 218.5t49.5 219t142 152.5t204.5 55.5t193 -40.5t127 -99.5t46 -111t-16 -75t-66 -32q-48 0 -67.5 20.5t-41.5 64.5q-22 43 -55.5 65t-116.5 22z" />
    <glyph glyph-name="ordfeminine" unicode="&#xaa;" horiz-adv-x="764" 
d="M370 971q70 0 106 54t36 128t-36 128t-106 54t-108.5 -54.5t-38.5 -127.5t38.5 -127.5t108.5 -54.5zM709 1386v-487q0 -90 -91 -90q-85 0 -92 80q-76 -80 -170 -80t-169.5 44t-117.5 122.5t-42 175.5t42 176.5t115 124.5t160 45q121 0 182 -80q7 80 92 80q53 0 72 -30
t19 -81z" />
    <glyph glyph-name="guillemotleft" unicode="&#xab;" horiz-adv-x="1024" 
d="M410 1024q56 0 88 -33t32 -81t-22 -79l-162 -249l162 -246q22 -35 22 -81t-34 -83t-94 -37t-97 51l-211 328q-18 30 -18 76t49 115l199 284q30 35 86 35zM828 1024q56 0 88 -33t32 -81t-22 -79l-162 -249l162 -246q22 -35 22 -81t-35 -83t-95 -37t-95 51l-211 328
q-18 30 -18 76t49 115l198 284q31 35 87 35z" />
    <glyph glyph-name="logicalnot" unicode="&#xac;" horiz-adv-x="1229" 
d="M195 879h839q58 0 90.5 -34.5t32.5 -88.5v-471q0 -56 -32.5 -89.5t-90.5 -33.5t-90.5 33.5t-32.5 89.5v346h-716q-58 0 -90.5 34.5t-32.5 89.5t32.5 89.5t90.5 34.5z" />
    <glyph glyph-name="registered" unicode="&#xae;" horiz-adv-x="1638" 
d="M250 676.5q0 -177.5 166.5 -346t402.5 -168.5q116 0 221.5 44.5t183 123t121.5 185t44 222.5t-44.5 223t-121.5 184.5t-182 122t-221 44.5t-220 -44t-182.5 -122.5t-123 -184.5t-44.5 -283.5zM66 737q0 155 58 293.5t162.5 244t241 164t291.5 58.5t292.5 -58.5
t241.5 -163.5t162 -244t58 -294t-58 -294t-162.5 -244.5t-243.5 -164.5t-290 -59t-289 59t-243 165t-163 244.5t-58 293.5zM700 803h154q55 0 82 18.5t27 72.5t-26.5 73.5t-82.5 19.5h-154v-184zM516 1049q0 86 94 86h232q305 0 305 -242q0 -144 -70 -184t-135 -43l145 -240
q13 -23 13 -43q0 -72 -96 -72q-54 0 -74 31.5t-39 67.5l-129 243h-62v-243q0 -99 -92 -99q-51 0 -71.5 23.5t-20.5 75.5v639z" />
    <glyph glyph-name="macron" unicode="&#xaf;" horiz-adv-x="455" 
d="M37 1509h381q58 0 95.5 -32.5t37.5 -90.5t-37 -91t-96 -33h-381q-59 0 -96 33t-37 91t37.5 90.5t95.5 32.5z" />
    <glyph glyph-name="degree" unicode="&#xb0;" horiz-adv-x="819" 
d="M80 1166q0 91 44.5 166.5t119 120t154.5 44.5q147 0 244 -95t97 -237q0 -90 -44 -167t-121 -122t-165 -45t-164 44.5t-120.5 122t-44.5 168.5zM240 1164q0 -70 50.5 -120.5t119.5 -50.5t119.5 50.5t50.5 108.5t-23 97.5t-63 62.5t-97 23t-107 -50.5t-50 -120.5z" />
    <glyph glyph-name="plusminus" unicode="&#xb1;" horiz-adv-x="1229" 
d="M195 248h839q58 0 90.5 -33.5t32.5 -89.5t-32.5 -90.5t-90.5 -34.5h-839q-58 0 -90.5 34.5t-32.5 90.5t32.5 89.5t90.5 33.5zM492 815v133q0 56 32 89.5t90 33.5t90.5 -33.5t32.5 -89.5v-133h297q58 0 90.5 -34.5t32.5 -90.5t-32.5 -89.5t-90.5 -33.5h-297v-133
q0 -56 -32.5 -89.5t-90.5 -33.5t-90 33.5t-32 89.5v133h-297q-58 0 -90.5 33.5t-32.5 89.5t32.5 90.5t90.5 34.5h297z" />
    <glyph glyph-name="twosuperior" unicode="&#xb2;" horiz-adv-x="764" 
d="M467 1227q0 84 -99 84q-47 0 -70.5 -24.5t-39.5 -71.5t-33.5 -69t-60.5 -22q-96 0 -96 117q0 49 38 109.5t109 103.5t159 43t155.5 -31t107 -89t39.5 -128t-30 -131.5t-70 -112t-98.5 -113t-71.5 -79.5h208q91 1 91 -105t-91 -106h-458q-42 0 -69.5 21t-27.5 56t34 71
t145 152t182 214q47 69 47 111z" />
    <glyph glyph-name="threesuperior" unicode="&#xb3;" horiz-adv-x="764" 
d="M382 1497q65 0 130.5 -27.5t106 -79.5t40.5 -118q0 -123 -112 -191q103 -45 133.5 -109t30.5 -114q0 -130 -101.5 -199t-223.5 -69t-227.5 65t-105.5 164q0 33 33.5 57.5t65.5 24.5t48.5 -14.5t54 -62.5t105.5 -48t105 27t37 75q0 84 -113 99q-61 11 -88 25t-27 52
t17.5 61.5t70.5 35.5t77 30.5t24 55.5q0 74 -90 74q-58 0 -108.5 -52.5t-92.5 -52.5q-43 0 -66.5 27.5t-23.5 73.5t48 92t117.5 72t134.5 26z" />
    <glyph glyph-name="acute" unicode="&#xb4;" horiz-adv-x="455" 
d="M378 1599q35 0 68 -42t33 -87q0 -91 -84 -120l-229 -93l-28 -10q-28 -10 -63 -10t-67.5 47.5t-32.5 101.5t58 84l16 9l242 100q52 20 87 20z" />
    <glyph glyph-name="mu" unicode="&#xb5;" horiz-adv-x="1139" 
d="M84 -285v1233q0 75 40.5 119.5t94.5 44.5t107 -32t53 -132v-532q0 -90 56.5 -141.5t120.5 -51.5t134 36.5t70 156.5v532q0 75 40.5 119.5t94.5 44.5t107 -32t53 -132v-794q0 -102 -52.5 -134t-106.5 -32t-95 38.5t-41 104.5h-4q-29 -77 -82.5 -116.5t-103.5 -39.5
t-103.5 28.5t-83.5 74.5h-4v-363q0 -75 -41.5 -120.5t-106.5 -45.5t-106 46t-41 120z" />
    <glyph glyph-name="paragraph" unicode="&#xb6;" horiz-adv-x="1270" 
d="M487 -315v1067q-297 0 -376.5 121.5t-79.5 280.5t131.5 239t372.5 80h520q56 0 89.5 -34.5t33.5 -88.5v-1665q0 -56 -33.5 -89.5t-90.5 -33.5t-89.5 33.5t-32.5 89.5v1601h-199v-1601q0 -56 -32.5 -89.5t-89.5 -33.5t-90.5 33.5t-33.5 89.5z" />
    <glyph glyph-name="cedilla" unicode="&#xb8;" horiz-adv-x="455" 
d="M502 -262q0 -56 -34 -101t-88 -66.5t-114 -21.5t-118 21.5t-58 81.5q0 23 14 39t35 16l99 -22q67 0 67 59q0 37 -17.5 47t-51.5 10q-43 5 -56.5 11t-13.5 33t45 87l49 68h123l-80 -106l45 8q91 0 122.5 -54t31.5 -110z" />
    <glyph glyph-name="onesuperior" unicode="&#xb9;" horiz-adv-x="492" 
d="M180 680v594h-69q-91 0 -91 108q0 46 24.5 74.5t66.5 28.5h190q43 0 65.5 -24t22.5 -62v-719q0 -38 -27.5 -64t-75.5 -26t-77 25t-29 65z" />
    <glyph glyph-name="ordmasculine" unicode="&#xba;" horiz-adv-x="739" 
d="M370 971q69 0 107.5 55.5t38.5 127.5t-36 126.5t-108 54.5t-110.5 -55t-38.5 -126t39 -127t108 -56zM370 1497q98 0 177 -48t122.5 -126.5t43.5 -170.5t-43 -171t-121.5 -125.5t-177.5 -46.5q-150 0 -247 100.5t-97 243.5q0 89 43.5 168.5t122.5 127.5t177 48z" />
    <glyph glyph-name="guillemotright" unicode="&#xbb;" horiz-adv-x="1024" 
d="M76 903q0 47 33.5 84t95.5 37t96 -51l211 -330q18 -25 18 -75t-49 -115l-198 -283q-31 -35 -87 -35t-88 33t-32 80t22 80l162 254l-162 241q-22 33 -22 80zM494 903q0 47 33.5 84t94.5 37t97 -51l211 -330q18 -25 18 -75t-49 -115l-199 -283q-30 -35 -86 -35t-88 33
t-32 80t22 80l162 254l-162 241q-22 33 -22 80z" />
    <glyph glyph-name="onequarter" unicode="&#xbc;" horiz-adv-x="1763" 
d="M1368 371v315h-4l-172 -315h176zM1421 895q63 0 109.5 -39.5t46.5 -118.5v-366h20q40 0 66.5 -24.5t26.5 -73.5t-26 -75t-67 -26h-20v-94q-1 -90 -105 -90t-104 90v94h-334q-40 0 -60 25.5t-20 54.5t19 67l297 504q23 39 55.5 55.5t95.5 16.5zM233 680v594h-69
q-90 0 -90 108q0 46 24.5 74.5t65.5 28.5h190q43 0 65.5 -23.5t22.5 -62.5v-719q0 -38 -27 -64t-75 -26t-77.5 25t-29.5 65zM1100 1509q32 0 78.5 -24t46.5 -90q0 -31 -17 -64l-688 -1300q-29 -41 -43.5 -54.5t-52.5 -13.5t-75.5 34.5t-37.5 72.5t21 84l678 1290
q19 38 38.5 51.5t51.5 13.5z" />
    <glyph glyph-name="onehalf" unicode="&#xbd;" horiz-adv-x="1763" 
d="M233 680v594h-69q-90 0 -90 108q0 46 24.5 74.5t65.5 28.5h190q43 0 65.5 -23.5t22.5 -62.5v-719q0 -38 -27 -64t-75 -26t-77.5 25t-29.5 65zM1149 526q-96 0 -96 115q0 50 38 109.5t110 102t159 42.5t194 -49t107 -205q0 -110 -65.5 -192t-126.5 -148.5t-78 -89.5h202
q38 0 67.5 -32.5t29.5 -78.5q0 -100 -84 -100h-465q-42 0 -69.5 21t-27.5 57t34 72t204 215t170 261q0 83 -94 83q-54 0 -76.5 -24t-39 -70t-33.5 -67.5t-60 -21.5zM1100 1509q32 0 78.5 -24t46.5 -90q0 -31 -17 -64l-688 -1300q-29 -41 -43.5 -54.5t-52.5 -13.5t-75.5 34.5
t-37.5 72.5t21 84l678 1290q19 38 38.5 51.5t51.5 13.5z" />
    <glyph glyph-name="threequarters" unicode="&#xbe;" horiz-adv-x="1763" 
d="M1395 371v315h-4l-172 -315h176zM1448 895q63 0 109.5 -39.5t46.5 -118.5v-366h20q41 0 66.5 -24.5t25.5 -73.5t-25.5 -75t-66.5 -26h-20v-94q0 -90 -104 -90t-105 90v94h-334q-42 0 -61 25.5t-19 55.5t18 66l297 504q25 39 57 55.5t95 16.5zM376 1497q65 0 130.5 -27.5
t106 -79.5t40.5 -118q0 -123 -112 -191q103 -45 133.5 -109t30.5 -114q0 -130 -102 -199t-236 -69q-71 0 -145.5 28t-124.5 81t-50 120q0 33 33 57.5t66 24.5t49 -14.5t53.5 -62.5t105.5 -48t105 27t37 75q0 84 -113 99q-61 11 -88 25t-27 59t25 62.5t71 28.5t69.5 28.5
t23.5 55.5q0 74 -90 75q-58 0 -108.5 -52.5t-92.5 -52.5q-43 0 -66.5 27.5t-23.5 73.5t48 92t117.5 72t134.5 26zM1266 1509q42 0 78 -33.5t36 -72.5t-16 -72l-688 -1300q-29 -41 -43.5 -54.5t-52.5 -13.5t-75.5 34.5t-37.5 74.5t20 82l678 1290q21 40 40 52.5t61 12.5z" />
    <glyph glyph-name="questiondown" unicode="&#xbf;" horiz-adv-x="985" 
d="M649.5 1077.5q46.5 -46.5 46.5 -113.5t-46 -114t-112 -47t-113.5 46.5t-47.5 114.5t47 114t113 46t112.5 -46.5zM684 539v-207q0 -49 -35 -67t-69 -27.5t-86 -23.5t-96 -51t-44 -118q0 -43 38 -100.5t132 -57.5q57 0 96 25.5t87 80t75.5 77t77.5 22.5t84.5 -40t34.5 -112
t-43 -137t-149 -132.5t-263 -67.5q-206 0 -347.5 121.5t-141.5 320.5q0 326 354 418v76q0 61 42 101t108 40t105.5 -39.5t39.5 -101.5z" />
    <glyph glyph-name="Agrave" unicode="&#xc0;" horiz-adv-x="1290" 
d="M897 1708q0 -40 -32.5 -87.5t-67.5 -47.5t-48 5t-42 15l-230 93q-84 29 -84 120q0 45 32.5 87t68.5 42t88 -20l241 -100l17 -9q57 -30 57 -98zM647 1176l-194 -601h389l-191 601h-4zM651 1497q77 0 133.5 -47t83.5 -125l402 -1124q16 -44 16 -90t-41.5 -84.5t-99.5 -38.5
q-114 0 -150 106l-61 195h-569l-62 -193q-34 -108 -147 -108q-63 0 -107.5 42t-44.5 103q0 29 14 68l412 1124q29 77 86.5 124.5t134.5 47.5z" />
    <glyph glyph-name="Aacute" unicode="&#xc1;" horiz-adv-x="1290" 
d="M795 1935q36 0 69 -42t33 -87q0 -91 -84 -120l-229 -93l-28 -10q-28 -10 -63 -10t-67.5 47.5t-32.5 101.5t58 84l16 9l242 100q50 20 86 20zM647 1176l-194 -601h389l-191 601h-4zM651 1497q77 0 133.5 -47t83.5 -125l402 -1124q16 -44 16 -90t-41.5 -84.5t-99.5 -38.5
q-114 0 -150 106l-61 195h-569l-62 -193q-34 -108 -147 -108q-63 0 -107.5 42t-44.5 103q0 29 14 68l412 1124q29 77 86.5 124.5t134.5 47.5z" />
    <glyph glyph-name="Acircumflex" unicode="&#xc2;" horiz-adv-x="1290" 
d="M956 1702q0 -51 -38 -92t-87 -41q-21 0 -106 37l-80 34l-80 -34q-85 -37 -106 -37q-49 0 -87 41t-38 92q0 88 94 125l217 90l217 -90q94 -39 94 -125zM647 1176l-194 -601h389l-191 601h-4zM651 1497q77 0 133.5 -47t83.5 -125l402 -1124q16 -44 16 -90t-41.5 -84.5
t-99.5 -38.5q-114 0 -150 106l-61 195h-569l-62 -193q-34 -108 -147 -108q-63 0 -107.5 42t-44.5 103q0 29 14 68l412 1124q29 77 86.5 124.5t134.5 47.5z" />
    <glyph glyph-name="Atilde" unicode="&#xc3;" horiz-adv-x="1290" 
d="M400 1587q-32 0 -63.5 34.5t-31.5 74.5q0 82 56.5 131t124.5 49t148 -25.5t97 -25.5t72 30.5t93 30.5t63.5 -35t25.5 -82q0 -75 -62.5 -127.5t-138.5 -52.5q-31 0 -120 25.5t-108 25.5t-31.5 -5.5t-36.5 -20.5t-40 -21t-48 -6zM647 1176l-194 -601h389l-191 601h-4z
M651 1497q77 0 133.5 -47t83.5 -125l402 -1124q16 -44 16 -90t-41.5 -84.5t-99.5 -38.5q-114 0 -150 106l-61 195h-569l-62 -193q-34 -108 -147 -108q-63 0 -107.5 42t-44.5 103q0 29 14 68l412 1124q29 77 86.5 124.5t134.5 47.5z" />
    <glyph glyph-name="Adieresis" unicode="&#xc4;" horiz-adv-x="1290" 
d="M272 1733q0 61 43 104t105 43t104.5 -42t42.5 -105t-42.5 -106.5t-104.5 -43.5t-105 44.5t-43 105.5zM723 1733q0 63 42.5 105t104.5 42t105 -42t43 -105t-43 -106.5t-105 -43.5t-104.5 43.5t-42.5 106.5zM647 1176l-194 -601h389l-191 601h-4zM651 1497q77 0 133.5 -47
t83.5 -125l402 -1124q16 -44 16 -90t-41.5 -84.5t-99.5 -38.5q-114 0 -150 106l-61 195h-569l-62 -193q-34 -108 -147 -108q-63 0 -107.5 42t-44.5 103q0 29 14 68l412 1124q29 77 86.5 124.5t134.5 47.5z" />
    <glyph glyph-name="Aring" unicode="&#xc5;" horiz-adv-x="1290" 
d="M553 1740q0 -40 27.5 -67.5t65.5 -27.5t64.5 27.5t26.5 66.5t-26.5 66t-64.5 27t-65.5 -26t-27.5 -66zM442 1724q0 70 26.5 117t73 75t103.5 28t103.5 -28t73 -75.5t26.5 -102.5t-26.5 -102t-73 -74.5t-116.5 -27.5t-130 60t-60 130zM647 1176l-194 -601h389l-191 601h-4
zM651 1497q77 0 133.5 -47t83.5 -125l402 -1124q16 -44 16 -90t-41.5 -84.5t-99.5 -38.5q-114 0 -150 106l-61 195h-569l-62 -193q-34 -108 -147 -108q-63 0 -107.5 42t-44.5 103q0 29 14 68l412 1124q29 77 86.5 124.5t134.5 47.5z" />
    <glyph glyph-name="AE" unicode="&#xc6;" horiz-adv-x="1706" 
d="M850 539v600h-4l-324 -600h328zM799 1473h719q70 0 107.5 -42t37.5 -90t-27.5 -100.5t-117.5 -52.5h-361v-303h336q71 0 110 -41.5t39 -99.5t-40 -101t-109 -43h-336v-315h379q70 0 107.5 -41.5t37.5 -99.5t-38.5 -101t-106.5 -43h-528q-68 0 -113 43.5t-45 112.5v102
h-469l-96 -170q-58 -100 -146 -100q-62 0 -104.5 35.5t-42.5 87.5t28 106l635 1186q38 70 144 70z" />
    <glyph glyph-name="Ccedilla" unicode="&#xc7;" horiz-adv-x="1251" 
d="M705 -256q0 37 -17.5 47t-52.5 10q-43 5 -56.5 11t-13.5 33t45 87l35 49q-246 31 -428 231t-182 525t196.5 542.5t507.5 217.5q156 0 253.5 -37t142.5 -83t45 -107t-37 -102.5t-80 -41.5t-104.5 24.5t-103 37t-125.5 12.5q-171 0 -273.5 -134.5t-102.5 -332.5
t102.5 -329.5t282.5 -131.5q73 0 119 15.5t110 44t102 28.5t68.5 -23.5t46 -58.5t15.5 -59q0 -91 -103.5 -164t-333.5 -80l-61 -81l46 8q90 0 121.5 -54.5t31.5 -110.5t-34 -100.5t-87.5 -66t-113.5 -21.5t-118.5 21.5t-58.5 81.5q0 23 14 39t36 16l98 -22q68 0 68 59z" />
    <glyph glyph-name="Egrave" unicode="&#xc8;" horiz-adv-x="948" 
d="M727 1708q0 -40 -32.5 -87.5t-67.5 -47.5t-48 5t-42 15l-230 93q-84 29 -84 120q0 45 32.5 87t68.5 42t88 -20l241 -100l17 -9q57 -30 57 -98zM92 156v1136q0 82 41 131.5t119 49.5h508q70 0 107.5 -42t37.5 -90t-27.5 -100.5t-117.5 -52.5h-361v-303h336q72 0 111 -41.5
t39 -99.5t-40 -101t-110 -43h-336v-315h379q71 0 108.5 -41.5t37.5 -99.5t-38.5 -101t-107.5 -43h-528q-68 0 -113 43.5t-45 112.5z" />
    <glyph glyph-name="Eacute" unicode="&#xc9;" horiz-adv-x="948" 
d="M625 1935q36 0 69 -42t33 -87q0 -91 -84 -120l-229 -93l-28 -10q-28 -10 -63 -10t-67.5 47.5t-32.5 101.5t58 84l16 9l242 100q50 20 86 20zM92 156v1136q0 82 41 131.5t119 49.5h508q70 0 107.5 -42t37.5 -90t-27.5 -100.5t-117.5 -52.5h-361v-303h336q72 0 111 -41.5
t39 -99.5t-40 -101t-110 -43h-336v-315h379q71 0 108.5 -41.5t37.5 -99.5t-38.5 -101t-107.5 -43h-528q-68 0 -113 43.5t-45 112.5z" />
    <glyph glyph-name="Ecircumflex" unicode="&#xca;" horiz-adv-x="948" 
d="M786 1702q0 -33 -28.5 -83t-95.5 -50q-22 0 -107 37l-80 34l-80 -34q-85 -37 -106 -37q-49 0 -87 41t-38 92q0 88 94 125l217 90l217 -90q94 -39 94 -125zM92 156v1136q0 82 41 131.5t119 49.5h508q70 0 107.5 -42t37.5 -90t-27.5 -100.5t-117.5 -52.5h-361v-303h336
q72 0 111 -41.5t39 -99.5t-40 -101t-110 -43h-336v-315h379q71 0 108.5 -41.5t37.5 -99.5t-38.5 -101t-107.5 -43h-528q-68 0 -113 43.5t-45 112.5z" />
    <glyph glyph-name="Edieresis" unicode="&#xcb;" horiz-adv-x="948" 
d="M102 1733q0 61 43 104t105 43t104.5 -42t42.5 -105t-42.5 -106.5t-104.5 -43.5t-105 44.5t-43 105.5zM553 1733q0 63 42.5 105t104.5 42t105 -42t43 -105t-43 -106.5t-105 -43.5t-104.5 43.5t-42.5 106.5zM92 156v1136q0 82 41 131.5t119 49.5h508q70 0 107.5 -42
t37.5 -90t-27.5 -100.5t-117.5 -52.5h-361v-303h336q72 0 111 -41.5t39 -99.5t-40 -101t-110 -43h-336v-315h379q71 0 108.5 -41.5t37.5 -99.5t-38.5 -101t-107.5 -43h-528q-68 0 -113 43.5t-45 112.5z" />
    <glyph glyph-name="Igrave" unicode="&#xcc;" horiz-adv-x="492" 
d="M498 1708q0 -40 -32.5 -87.5t-67.5 -47.5t-39 1l-281 112q-84 29 -84 120q0 45 33 87t69 42t86 -20l242 -100l16 -9q58 -30 58 -98zM92 150v1173q0 76 43 119t111 43t110.5 -42t42.5 -120v-1173q0 -78 -42.5 -120t-110.5 -42t-111 43t-43 119z" />
    <glyph glyph-name="Iacute" unicode="&#xcd;" horiz-adv-x="492" 
d="M396 1935q36 0 69 -42t33 -87q0 -91 -84 -120l-230 -93q-29 -10 -40.5 -15t-48.5 -5q-36 0 -68.5 47.5t-32.5 87.5q0 68 57 98l258 109q51 20 87 20zM92 150v1173q0 76 43 119t111 43t110.5 -42t42.5 -120v-1173q0 -78 -42.5 -120t-110.5 -42t-111 43t-43 119z" />
    <glyph glyph-name="Icircumflex" unicode="&#xce;" horiz-adv-x="492" 
d="M557 1702q0 -51 -38 -92t-87 -41q-21 0 -106 37l-80 34l-80 -34q-84 -37 -120 -37t-74 41t-38 92q0 89 95 125l217 90l217 -90q94 -40 94 -125zM92 150v1173q0 76 43 119t111 43t110.5 -42t42.5 -120v-1173q0 -78 -42.5 -120t-110.5 -42t-111 43t-43 119z" />
    <glyph glyph-name="Idieresis" unicode="&#xcf;" horiz-adv-x="492" 
d="M-127 1733q0 61 42.5 104t104.5 43t105 -42t43 -105t-44 -106.5t-104 -43.5t-103.5 44.5t-43.5 105.5zM324 1733q0 63 42 105t105 42t105 -42t42 -105t-42.5 -106.5t-104.5 -43.5t-104.5 43.5t-42.5 106.5zM92 150v1173q0 76 43 119t111 43t110.5 -42t42.5 -120v-1173
q0 -78 -42.5 -120t-110.5 -42t-111 43t-43 119z" />
    <glyph glyph-name="Eth" unicode="&#xd0;" horiz-adv-x="1366" 
d="M399 1188v-324h168q61 0 95 -34t34 -82t-34.5 -83.5t-94.5 -35.5h-168v-344h207q189 0 287 124t98 322q0 285 -134 371t-271 86h-187zM92 156v473h-55q-60 0 -94.5 35.5t-34.5 83.5t34 82t95 34h55v449q0 71 44.5 115.5t113.5 44.5h340q224 0 387.5 -92.5t248.5 -264.5
t85 -392t-87 -384t-247 -252t-367 -88h-356q-62 0 -112 38.5t-50 117.5z" />
    <glyph glyph-name="Ntilde" unicode="&#xd1;" horiz-adv-x="1403" 
d="M458 1587q-30 0 -63 34.5t-33 74.5q0 82 56 131t124 49t148.5 -25.5t97.5 -25.5t72 30.5t93 30.5t63.5 -35t25.5 -83t-29 -89.5t-75 -65.5t-87 -24t-130 25.5t-108 25.5t-30.5 -5.5t-35 -20t-41.5 -21t-48 -6.5zM80 150v1173q0 77 42.5 119.5t110.5 42.5q29 0 69 -19.5
t60 -48.5l650 -874h4v780q0 77 43 119.5t111 42.5t110.5 -42t42.5 -120v-1173q0 -78 -42 -120t-112 -42q-28 0 -66.5 19.5t-62.5 47.5l-649 865h-4v-770q0 -78 -42 -120t-111 -42t-111.5 42.5t-42.5 119.5z" />
    <glyph glyph-name="Ograve" unicode="&#xd2;" horiz-adv-x="1479" 
d="M991 1708q0 -40 -32 -87.5t-67 -47.5t-48.5 5t-42.5 15l-230 93q-84 29 -84 120q0 44 33.5 86.5t68.5 42.5t87 -20l242 -100l16 -9q57 -30 57 -98zM741 -25q-153 0 -283 57.5t-226 163t-146.5 243t-50.5 380.5t196.5 460.5t507.5 217.5q201 0 362 -101.5t252 -275.5
t91 -358t-50 -322.5t-145 -244t-225 -163t-283 -57.5zM724 260q200 0 300 136.5t100 340.5q0 129 -44 237t-131.5 173t-209.5 65t-209.5 -65t-131.5 -173t-44 -237t43 -238t130 -174t197 -65z" />
    <glyph glyph-name="Oacute" unicode="&#xd3;" horiz-adv-x="1479" 
d="M890 1935q35 0 68 -42t33 -87q0 -91 -84 -120l-229 -93l-28 -10q-28 -10 -63 -10t-67.5 47.5t-32.5 101.5t58 84l16 9l242 100q52 20 87 20zM741 -25q-153 0 -283 57.5t-226 163t-146.5 243t-50.5 380.5t196.5 460.5t507.5 217.5q201 0 362 -101.5t252 -275.5t91 -358
t-50 -322.5t-145 -244t-225 -163t-283 -57.5zM724 260q200 0 300 136.5t100 340.5q0 129 -44 237t-131.5 173t-209.5 65t-209.5 -65t-131.5 -173t-44 -237t43 -238t130 -174t197 -65z" />
    <glyph glyph-name="Ocircumflex" unicode="&#xd4;" horiz-adv-x="1479" 
d="M1051 1700q0 -49 -37.5 -90t-73.5 -41t-121 37l-80 34l-80 -34q-83 -37 -119 -37t-74 41t-38 92q0 88 94 125l217 90l217 -90q95 -38 95 -127zM741 -25q-153 0 -283 57.5t-226 163t-146.5 243t-50.5 380.5t196.5 460.5t507.5 217.5q201 0 362 -101.5t252 -275.5t91 -358
t-50 -322.5t-145 -244t-225 -163t-283 -57.5zM724 260q200 0 300 136.5t100 340.5q0 129 -44 237t-131.5 173t-209.5 65t-209.5 -65t-131.5 -173t-44 -237t43 -238t130 -174t197 -65z" />
    <glyph glyph-name="Otilde" unicode="&#xd5;" horiz-adv-x="1479" 
d="M496 1587q-30 0 -63.5 34.5t-33.5 74.5q0 82 56.5 131t124.5 49t148 -25.5t97 -25.5t72 30.5t93 30.5t63.5 -35t25.5 -83t-29 -89.5t-75 -65.5t-87 -24t-130 25.5t-108 25.5t-31.5 -5.5t-36.5 -20.5t-40 -21t-46 -6zM741 -25q-153 0 -283 57.5t-226 163t-146.5 243
t-50.5 380.5t196.5 460.5t507.5 217.5q201 0 362 -101.5t252 -275.5t91 -358t-50 -322.5t-145 -244t-225 -163t-283 -57.5zM724 260q200 0 300 136.5t100 340.5q0 129 -44 237t-131.5 173t-209.5 65t-209.5 -65t-131.5 -173t-44 -237t43 -238t130 -174t197 -65z" />
    <glyph glyph-name="Odieresis" unicode="&#xd6;" horiz-adv-x="1479" 
d="M367 1733q0 63 42.5 105t104.5 42t105 -42t43 -105t-43 -106.5t-105 -43.5t-104.5 43.5t-42.5 106.5zM817 1733q0 61 43.5 104t105.5 43t104 -42t42 -105t-42 -106.5t-104 -43.5t-105.5 44.5t-43.5 105.5zM741 -25q-153 0 -283 57.5t-226 163t-146.5 243t-50.5 380.5
t196.5 460.5t507.5 217.5q201 0 362 -101.5t252 -275.5t91 -358t-50 -322.5t-145 -244t-225 -163t-283 -57.5zM724 260q200 0 300 136.5t100 340.5q0 129 -44 237t-131.5 173t-209.5 65t-209.5 -65t-131.5 -173t-44 -237t43 -238t130 -174t197 -65z" />
    <glyph glyph-name="multiply" unicode="&#xd7;" horiz-adv-x="1229" 
d="M953 989q46 0 84 -38t38 -85t-39 -86l-254 -256l254 -258q39 -36 39 -82t-37 -86t-83 -41q-46 0 -87 39l-254 258l-254 -258q-40 -39 -86 -39q-46 1 -83 41t-37 86t39 82l253 258l-253 256q-39 39 -39 86t38 85t84 38t84 -39l254 -258l254 258q39 39 85 39z" />
    <glyph glyph-name="Oslash" unicode="&#xd8;" horiz-adv-x="1479" 
d="M752 1212q-135 0 -222.5 -65t-131.5 -173t-44 -240t43 -230l580 620q-90 88 -225 88zM35 737q0 325 196.5 542.5t507.5 217.5q273 0 443 -158l98 101q33 35 56 52t57 17t60 -21t26 -57t-21 -61l-155 -162q141 -208 141 -471q0 -325 -197 -543.5t-508 -218.5
q-267 0 -446 158l-127 -131q-36 -39 -74 -39t-65 28t-27 61t29 69l143 145q-137 204 -137 471zM739 260q185 0 285 136.5t100 340.5q0 138 -45 236l-579 -623q87 -90 239 -90z" />
    <glyph glyph-name="Ugrave" unicode="&#xd9;" horiz-adv-x="1403" 
d="M954 1708q0 -40 -32 -87.5t-67 -47.5t-48.5 5t-42.5 15l-229 93q-84 29 -84 120q0 45 33 87t68 42t87 -20l242 -100l16 -9q57 -30 57 -98zM80 586v737q0 77 43 119.5t111 42.5t110.5 -42t42.5 -120v-721q0 -95 38.5 -173t110.5 -123.5t166 -45.5q137 0 225.5 101.5
t88.5 240.5v721q0 77 43 119.5t111 42.5t110.5 -42t42.5 -120v-737q0 -260 -183 -435.5t-440 -175.5t-438.5 176t-181.5 435z" />
    <glyph glyph-name="Uacute" unicode="&#xda;" horiz-adv-x="1403" 
d="M853 1935q35 0 68 -42t33 -87q0 -91 -84 -120l-229 -93q-29 -10 -40.5 -15t-48.5 -5q-36 0 -68.5 47.5t-32.5 87.5q0 68 57 98l16 9l242 100q52 20 87 20zM80 586v737q0 77 43 119.5t111 42.5t110.5 -42t42.5 -120v-721q0 -95 38.5 -173t110.5 -123.5t166 -45.5
q137 0 225.5 101.5t88.5 240.5v721q0 77 43 119.5t111 42.5t110.5 -42t42.5 -120v-737q0 -260 -183 -435.5t-440 -175.5t-438.5 176t-181.5 435z" />
    <glyph glyph-name="Ucircumflex" unicode="&#xdb;" horiz-adv-x="1403" 
d="M1014 1702q0 -51 -38 -92t-74 -41t-120 37l-80 34l-79 -34q-85 -37 -121 -37t-73.5 41t-37.5 92q0 88 94 125l217 90l218 -90q94 -40 94 -125zM80 586v737q0 77 43 119.5t111 42.5t110.5 -42t42.5 -120v-721q0 -95 38.5 -173t110.5 -123.5t166 -45.5q137 0 225.5 101.5
t88.5 240.5v721q0 77 43 119.5t111 42.5t110.5 -42t42.5 -120v-737q0 -260 -183 -435.5t-440 -175.5t-438.5 176t-181.5 435z" />
    <glyph glyph-name="Udieresis" unicode="&#xdc;" horiz-adv-x="1403" 
d="M330 1733q0 63 42 105t104 42t105.5 -42t43.5 -105t-43.5 -106.5t-105.5 -43.5t-104 43.5t-42 106.5zM780 1733q0 61 43 104t105 43t104.5 -42t42.5 -105t-42.5 -106.5t-104.5 -43.5t-105 44.5t-43 105.5zM80 586v737q0 77 43 119.5t111 42.5t110.5 -42t42.5 -120v-721
q0 -95 38.5 -173t110.5 -123.5t166 -45.5q137 0 225.5 101.5t88.5 240.5v721q0 77 43 119.5t111 42.5t110.5 -42t42.5 -120v-737q0 -260 -183 -435.5t-440 -175.5t-438.5 176t-181.5 435z" />
    <glyph glyph-name="Yacute" unicode="&#xdd;" horiz-adv-x="1098" 
d="M700 1935q36 0 68.5 -42t32.5 -87q0 -91 -84 -120l-230 -93q-29 -10 -41.5 -15t-47.5 -5q-36 0 -68.5 47.5t-32.5 87.5q0 68 57 98l258 109q52 20 88 20zM395 139v551l-387 551q-28 42 -28 99t41 101t93 44q100 0 140 -62l295 -432l295 432q40 62 129 62q41 0 93 -32
t52 -120q0 -50 -28 -92l-388 -551v-551q0 -65 -39 -108t-115 -43t-114.5 43t-38.5 108z" />
    <glyph glyph-name="Thorn" unicode="&#xde;" horiz-adv-x="1139" 
d="M92 150v1173q0 76 43 119t111 43t110.5 -42t42.5 -120v-57h215q230 0 377.5 -137.5t147.5 -356.5q0 -146 -68 -257.5t-185.5 -172.5t-258.5 -61h-228v-131q0 -78 -42.5 -120t-110.5 -42t-111 43t-43 119zM399 993v-438h209q94 0 152.5 61.5t58.5 156.5t-58.5 157.5
t-152.5 62.5h-209z" />
    <glyph glyph-name="germandbls" unicode="&#xdf;" horiz-adv-x="1139" 
d="M80 154v913q0 232 125 379t348 147q124 0 224.5 -53.5t159 -150.5t58.5 -205q0 -223 -139 -310q166 -49 210 -182.5t44 -235.5t-56.5 -217.5t-158.5 -189.5t-212 -74t-155 43t-45 108t41 89.5t117 40.5t125 75t49 157t-45.5 145t-135.5 71.5t-126.5 47t-36.5 93.5
t29.5 94.5t89.5 45.5t91.5 59t31.5 109t-45 119t-115 47q-106 0 -142 -68t-36 -184v-913q0 -102 -53 -134t-107 -32t-94.5 45.5t-40.5 120.5z" />
    <glyph glyph-name="agrave" unicode="&#xe0;" 
d="M840 1372q0 -40 -32.5 -87.5t-67.5 -47.5t-39 1l-281 112q-84 29 -84 120q0 45 33 87t69 42t86 -20l242 -100l16 -9q58 -30 58 -98zM336 548q0 -75 26.5 -144t79 -112.5t126.5 -43.5t151.5 65.5t77.5 235.5q0 118 -59.5 210.5t-168.5 92.5q-75 0 -128 -44t-79 -114.5
t-26 -145.5zM542 -25q-151 0 -262.5 73.5t-175 204.5t-63.5 293t65.5 294.5t178 208t243.5 75.5q83 0 158 -34t123 -101q6 54 46.5 88.5t94.5 34.5q94 0 118 -53.5t24 -140.5v-736q0 -86 -24 -140t-118 -54q-60 0 -92.5 31.5t-48.5 95.5q-116 -140 -267 -140z" />
    <glyph glyph-name="aacute" unicode="&#xe1;" 
d="M738 1599q36 0 69 -42t33 -87q0 -91 -84 -120l-230 -93q-29 -10 -40.5 -15t-48.5 -5q-36 0 -68.5 47.5t-32.5 87.5q0 68 57 98l258 109q51 20 87 20zM336 548q0 -75 26.5 -144t79 -112.5t126.5 -43.5t151.5 65.5t77.5 235.5q0 118 -59.5 210.5t-168.5 92.5
q-75 0 -128 -44t-79 -114.5t-26 -145.5zM542 -25q-151 0 -262.5 73.5t-175 204.5t-63.5 293t65.5 294.5t178 208t243.5 75.5q83 0 158 -34t123 -101q6 54 46.5 88.5t94.5 34.5q94 0 118 -53.5t24 -140.5v-736q0 -86 -24 -140t-118 -54q-60 0 -92.5 31.5t-48.5 95.5
q-116 -140 -267 -140z" />
    <glyph glyph-name="acircumflex" unicode="&#xe2;" 
d="M899 1366q0 -51 -38 -92t-87 -41q-21 0 -106 37l-80 35l-80 -35q-84 -37 -120 -37t-74 41t-38 92q0 89 95 125l217 90l217 -90q94 -40 94 -125zM336 548q0 -75 26.5 -144t79 -112.5t126.5 -43.5t151.5 65.5t77.5 235.5q0 118 -59.5 210.5t-168.5 92.5q-75 0 -128 -44
t-79 -114.5t-26 -145.5zM542 -25q-151 0 -262.5 73.5t-175 204.5t-63.5 293t65.5 294.5t178 208t243.5 75.5q83 0 158 -34t123 -101q6 54 46.5 88.5t94.5 34.5q94 0 118 -53.5t24 -140.5v-736q0 -86 -24 -140t-118 -54q-60 0 -92.5 31.5t-48.5 95.5q-116 -140 -267 -140z
" />
    <glyph glyph-name="atilde" unicode="&#xe3;" 
d="M342 1251q-30 0 -62 34.5t-32 74.5q0 83 56 131.5t124 48.5t148 -25.5t98 -25.5t72 30.5t84 30.5t64 -25t34 -84q0 -58 -29.5 -99t-75 -65t-89.5 -24t-131 26t-105 26t-30 -5.5t-35.5 -20t-42 -21.5t-48.5 -7zM336 548q0 -75 26.5 -144t79 -112.5t126.5 -43.5t151.5 65.5
t77.5 235.5q0 118 -59.5 210.5t-168.5 92.5q-75 0 -128 -44t-79 -114.5t-26 -145.5zM542 -25q-151 0 -262.5 73.5t-175 204.5t-63.5 293t65.5 294.5t178 208t243.5 75.5q83 0 158 -34t123 -101q6 54 46.5 88.5t94.5 34.5q94 0 118 -53.5t24 -140.5v-736q0 -86 -24 -140
t-118 -54q-60 0 -92.5 31.5t-48.5 95.5q-116 -140 -267 -140z" />
    <glyph glyph-name="adieresis" unicode="&#xe4;" 
d="M215 1397q0 61 42.5 104t104.5 43t105 -42t43 -105t-44 -106.5t-104 -43.5t-103.5 44.5t-43.5 105.5zM666 1397q0 63 42 105t104 42t105.5 -42t43.5 -105t-43.5 -106.5t-105.5 -43.5t-104 43.5t-42 106.5zM336 548q0 -75 26.5 -144t79 -112.5t126.5 -43.5t151.5 65.5
t77.5 235.5q0 118 -59.5 210.5t-168.5 92.5q-75 0 -128 -44t-79 -114.5t-26 -145.5zM542 -25q-151 0 -262.5 73.5t-175 204.5t-63.5 293t65.5 294.5t178 208t243.5 75.5q83 0 158 -34t123 -101q6 54 46.5 88.5t94.5 34.5q94 0 118 -53.5t24 -140.5v-736q0 -86 -24 -140
t-118 -54q-60 0 -92.5 31.5t-48.5 95.5q-116 -140 -267 -140z" />
    <glyph glyph-name="aring" unicode="&#xe5;" 
d="M496 1404q0 -40 27.5 -67.5t65.5 -27.5t64.5 27.5t26.5 66.5t-26.5 66t-64.5 27t-65.5 -26t-27.5 -66zM385 1402q0 84 59.5 145t129.5 61t116 -27.5t73.5 -75t27.5 -103.5t-27 -102.5t-74.5 -74t-115.5 -27.5t-128.5 60t-60.5 144zM336 548q0 -75 26.5 -144t79 -112.5
t126.5 -43.5t151.5 65.5t77.5 235.5q0 118 -59.5 210.5t-168.5 92.5q-75 0 -128 -44t-79 -114.5t-26 -145.5zM542 -25q-151 0 -262.5 73.5t-175 204.5t-63.5 293t65.5 294.5t178 208t243.5 75.5q83 0 158 -34t123 -101q6 54 46.5 88.5t94.5 34.5q94 0 118 -53.5t24 -140.5
v-736q0 -86 -24 -140t-118 -54q-60 0 -92.5 31.5t-48.5 95.5q-116 -140 -267 -140z" />
    <glyph glyph-name="ae" unicode="&#xe6;" horiz-adv-x="1858" 
d="M1310 877q-64 0 -141 -46t-94 -182h467q-15 139 -91.5 183.5t-140.5 44.5zM528 1124q182 0 285 -135h4q0 59 34 91t83 32q90 0 110 -82q100 94 259 94q103 0 201.5 -43.5t215.5 -161.5t117 -335q0 -133 -129 -133h-629q16 -106 94.5 -160.5t164.5 -54.5t125 17.5t118 60
t110 42.5t76 -30.5t45 -95.5t-73.5 -124t-188 -95t-219.5 -36q-171 0 -287 86q-13 -37 -36.5 -55t-73.5 -18q-125 0 -125 127h-4q-109 -140 -277 -140q-137 0 -248.5 73.5t-175 204.5t-63.5 293t65.5 294.5t178 208t243.5 75.5zM336 548q0 -75 26.5 -144t79 -112.5
t126.5 -43.5t151.5 65.5t77.5 235.5q0 118 -59.5 210.5t-168.5 92.5q-75 0 -128 -44t-79 -114.5t-26 -145.5z" />
    <glyph glyph-name="ccedilla" unicode="&#xe7;" horiz-adv-x="948" 
d="M553 -256q0 37 -17.5 47t-52.5 10q-42 5 -55.5 11t-13.5 33t45 87l35 48q-110 14 -200 72q-120 78 -186.5 209t-66.5 265t38 238t108.5 185t169.5 128t189 47t176 -18.5t147 -60t61 -100.5t-32 -104.5t-74 -45.5t-115 28.5t-129 28.5q-114 0 -179 -90.5t-65 -210.5
t66.5 -211.5t181.5 -91.5q41 0 123.5 31.5t95.5 31.5q52 0 89.5 -38.5t37.5 -100.5t-78.5 -120t-237.5 -75l-63 -83l45 8q91 0 122.5 -54t31.5 -110t-34 -101t-88 -66.5t-114 -21.5t-118 21.5t-58 81.5q0 23 13.5 39t35.5 16l98 -22q68 0 68 59z" />
    <glyph glyph-name="egrave" unicode="&#xe8;" horiz-adv-x="1100" 
d="M803 1372q0 -40 -32.5 -87.5t-67.5 -47.5t-39 1l-281 112q-84 29 -84 120q0 45 33 87t69 42t86 -20l242 -100l16 -9q58 -30 58 -98zM550 877q-65 0 -141.5 -46t-93.5 -182h469q-15 140 -92 184t-142 44zM950 451h-628q14 -107 91.5 -161t165.5 -54t130.5 19t117.5 60
t106 41t76.5 -30.5t45.5 -95.5t-74 -124t-188 -95t-228 -36q-238 0 -391.5 163t-153.5 402q0 240 109.5 365t208.5 172t213 47t213 -48t207 -171t108 -321q0 -133 -129 -133z" />
    <glyph glyph-name="eacute" unicode="&#xe9;" horiz-adv-x="1100" 
d="M702 1599q36 0 68.5 -42t32.5 -87q0 -91 -84 -120l-230 -93q-29 -10 -41 -15t-48 -5t-68.5 47.5t-32.5 87.5q0 68 57 98l258 109q52 20 88 20zM550 877q-65 0 -141.5 -46t-93.5 -182h469q-15 140 -92 184t-142 44zM950 451h-628q14 -107 91.5 -161t165.5 -54t130.5 19
t117.5 60t106 41t76.5 -30.5t45.5 -95.5t-74 -124t-188 -95t-228 -36q-238 0 -391.5 163t-153.5 402q0 240 109.5 365t208.5 172t213 47t213 -48t207 -171t108 -321q0 -133 -129 -133z" />
    <glyph glyph-name="ecircumflex" unicode="&#xea;" horiz-adv-x="1100" 
d="M862 1366q0 -51 -38 -92t-87 -41q-21 0 -106 37l-80 35l-80 -35q-85 -37 -106 -37q-49 0 -87 40.5t-38 90.5q0 92 94 127l217 90l217 -90q94 -40 94 -125zM550 877q-65 0 -141.5 -46t-93.5 -182h469q-15 140 -92 184t-142 44zM950 451h-628q14 -107 91.5 -161t165.5 -54
t130.5 19t117.5 60t106 41t76.5 -30.5t45.5 -95.5t-74 -124t-188 -95t-228 -36q-238 0 -391.5 163t-153.5 402q0 240 109.5 365t208.5 172t213 47t213 -48t207 -171t108 -321q0 -133 -129 -133z" />
    <glyph glyph-name="edieresis" unicode="&#xeb;" horiz-adv-x="1100" 
d="M178 1397q0 61 43 104t105 43t104.5 -42t42.5 -105t-42.5 -106.5t-104.5 -43.5t-105 44.5t-43 105.5zM629 1397q0 63 42.5 105t104.5 42t105 -42t43 -105t-43 -106.5t-105 -43.5t-104.5 43.5t-42.5 106.5zM550 877q-65 0 -141.5 -46t-93.5 -182h469q-15 140 -92 184
t-142 44zM950 451h-628q14 -107 91.5 -161t165.5 -54t130.5 19t117.5 60t106 41t76.5 -30.5t45.5 -95.5t-74 -124t-188 -95t-228 -36q-238 0 -391.5 163t-153.5 402q0 240 109.5 365t208.5 172t213 47t213 -48t207 -171t108 -321q0 -133 -129 -133z" />
    <glyph glyph-name="igrave" unicode="&#xec;" horiz-adv-x="455" 
d="M479 1372q0 -40 -32 -87.5t-67 -47.5t-48.5 5t-42.5 15l-230 93q-84 29 -84 120q0 44 33.5 86.5t68.5 42.5t87 -20l242 -100l16 -9q57 -30 57 -98zM80 154v794q0 75 40.5 119.5t94.5 44.5t107 -32t53 -132v-794q0 -102 -53 -134t-107 -32t-94.5 45.5t-40.5 120.5z" />
    <glyph glyph-name="iacute" unicode="&#xed;" horiz-adv-x="455" 
d="M378 1599q35 0 68 -42t33 -87q0 -91 -84 -120l-229 -93l-28 -10q-28 -10 -63 -10t-67.5 47.5t-32.5 101.5t58 84l16 9l242 100q52 20 87 20zM80 154v794q0 75 40.5 119.5t94.5 44.5t107 -32t53 -132v-794q0 -102 -53 -134t-107 -32t-94.5 45.5t-40.5 120.5z" />
    <glyph glyph-name="icircumflex" unicode="&#xee;" horiz-adv-x="455" 
d="M539 1364q0 -49 -37.5 -90t-73.5 -41t-121 37l-80 35l-80 -35q-83 -37 -119 -37t-74 40.5t-38 90.5q0 90 94 127l217 90l217 -90q95 -38 95 -127zM80 154v794q0 75 40.5 119.5t94.5 44.5t107 -32t53 -132v-794q0 -102 -53 -134t-107 -32t-94.5 45.5t-40.5 120.5z" />
    <glyph glyph-name="idieresis" unicode="&#xef;" horiz-adv-x="455" 
d="M-145 1397q0 63 42.5 105t104.5 42t105 -42t43 -105t-43 -106.5t-105 -43.5t-104.5 43.5t-42.5 106.5zM305 1397q0 61 43.5 104t105.5 43t104 -42t42 -105t-42 -106.5t-104 -43.5t-105.5 44.5t-43.5 105.5zM80 154v794q0 75 40.5 119.5t94.5 44.5t107 -32t53 -132v-794
q0 -102 -53 -134t-107 -32t-94.5 45.5t-40.5 120.5z" />
    <glyph glyph-name="eth" unicode="&#xf0;" horiz-adv-x="1139" 
d="M570 817q-70 0 -123.5 -38.5t-82 -101t-28.5 -133.5t26.5 -140t79 -112.5t128.5 -43.5t154.5 65.5t78.5 235.5q-4 156 -83.5 212t-149.5 56zM238 1490q0 116 172 116q96 0 254 -99l163 90q43 23 74 23t51.5 -22.5t20.5 -54.5t-16.5 -48.5t-65.5 -42.5l-107 -57
q223 -211 268.5 -418t45.5 -383t-66 -317.5t-187 -221.5t-275 -80t-275 77.5t-187.5 209t-66.5 274.5t65 266t178.5 199t259.5 76t224 -88l4 4q-79 180 -229 271l-135 -72q-24 -12 -67 -34.5t-70 -22.5q-28 0 -50 20.5t-22 55.5t21 54t59 38l102 55q-66 27 -104.5 52.5
t-38.5 79.5z" />
    <glyph glyph-name="ntilde" unicode="&#xf1;" horiz-adv-x="1139" 
d="M324 1251q-30 0 -62.5 34.5t-32.5 74.5q0 83 56.5 131.5t124.5 48.5t148 -25.5t97 -25.5t72 30.5t93 30.5t63.5 -34t25.5 -84t-29 -90.5t-75 -64.5t-89 -24t-130 26t-106 26t-31.5 -5.5t-36.5 -20.5t-41 -21.5t-47 -6.5zM651 1124q116 0 208 -47.5t144 -138t52 -213.5
v-571q0 -102 -53 -134t-107 -32t-94.5 45.5t-40.5 120.5v518q0 101 -53.5 153t-140.5 52t-137 -58t-50 -147v-518q0 -102 -53 -134t-107 -32t-94.5 45.5t-40.5 120.5v794q0 75 40.5 119.5t106.5 44.5q119 0 136 -108q87 120 284 120z" />
    <glyph glyph-name="ograve" unicode="&#xf2;" horiz-adv-x="1139" 
d="M821 1372q0 -40 -32 -87.5t-67 -47.5t-48.5 5t-42.5 15l-230 93q-84 29 -84 120q0 44 33.5 86.5t68.5 42.5t87 -20l242 -100l16 -9q57 -30 57 -98zM570 852q-76 0 -129 -44t-79 -114.5t-26 -145.5t26.5 -144t79 -112.5t128.5 -43.5t154.5 65.5t78.5 235.5q0 73 -26 143.5
t-78.5 115t-128.5 44.5zM570 1124q114 0 213 -47.5t207 -172t108 -359.5t-147.5 -402.5t-401.5 -167.5q-134 0 -254.5 77.5t-187 208.5t-66.5 265t38 238t108.5 185t169.5 128t213 47z" />
    <glyph glyph-name="oacute" unicode="&#xf3;" horiz-adv-x="1139" 
d="M720 1599q35 0 68 -42t33 -87q0 -91 -84 -120l-229 -93q-29 -10 -40.5 -15t-48.5 -5t-69.5 47.5t-32.5 101.5t58 84l16 9l242 100q52 20 87 20zM570 852q-76 0 -129 -44t-79 -114.5t-26 -145.5t26.5 -144t79 -112.5t128.5 -43.5t154.5 65.5t78.5 235.5q0 73 -26 143.5
t-78.5 115t-128.5 44.5zM570 1124q114 0 213 -47.5t207 -172t108 -359.5t-147.5 -402.5t-401.5 -167.5q-134 0 -254.5 77.5t-187 208.5t-66.5 265t38 238t108.5 185t169.5 128t213 47z" />
    <glyph glyph-name="ocircumflex" unicode="&#xf4;" horiz-adv-x="1139" 
d="M881 1364q0 -49 -37.5 -90t-73.5 -41t-121 37l-80 35l-80 -35q-83 -37 -119 -37t-74 40.5t-38 90.5q0 90 94 127l217 90l217 -90q95 -38 95 -127zM570 852q-76 0 -129 -44t-79 -114.5t-26 -145.5t26.5 -144t79 -112.5t128.5 -43.5t154.5 65.5t78.5 235.5q0 73 -26 143.5
t-78.5 115t-128.5 44.5zM570 1124q114 0 213 -47.5t207 -172t108 -359.5t-147.5 -402.5t-401.5 -167.5q-134 0 -254.5 77.5t-187 208.5t-66.5 265t38 238t108.5 185t169.5 128t213 47z" />
    <glyph glyph-name="otilde" unicode="&#xf5;" horiz-adv-x="1139" 
d="M324 1251q-30 0 -62.5 34.5t-32.5 74.5q0 83 56.5 131.5t124.5 48.5t148 -25.5t97 -25.5t72 30.5t93 30.5t63.5 -34t25.5 -84t-29 -90.5t-75 -64.5t-89 -24t-130 26t-106 26t-31.5 -5.5t-36.5 -20.5t-41 -21.5t-47 -6.5zM570 852q-76 0 -129 -44t-79 -114.5t-26 -145.5
t26.5 -144t79 -112.5t128.5 -43.5t154.5 65.5t78.5 235.5q0 73 -26 143.5t-78.5 115t-128.5 44.5zM570 1124q114 0 213 -47.5t207 -172t108 -359.5t-147.5 -402.5t-401.5 -167.5q-134 0 -254.5 77.5t-187 208.5t-66.5 265t38 238t108.5 185t169.5 128t213 47z" />
    <glyph glyph-name="odieresis" unicode="&#xf6;" horiz-adv-x="1139" 
d="M197 1397q0 63 42.5 105t104.5 42t105 -42t43 -105t-43 -106.5t-105 -43.5t-104.5 43.5t-42.5 106.5zM647 1397q0 61 43.5 104t105.5 43t104 -42t42 -105t-42 -106.5t-104 -43.5t-105.5 44.5t-43.5 105.5zM570 852q-76 0 -129 -44t-79 -114.5t-26 -145.5t26.5 -144
t79 -112.5t128.5 -43.5t154.5 65.5t78.5 235.5q0 73 -26 143.5t-78.5 115t-128.5 44.5zM570 1124q114 0 213 -47.5t207 -172t108 -359.5t-147.5 -402.5t-401.5 -167.5q-134 0 -254.5 77.5t-187 208.5t-66.5 265t38 238t108.5 185t169.5 128t213 47z" />
    <glyph glyph-name="divide" unicode="&#xf7;" horiz-adv-x="1229" 
d="M455 952q0 66 46.5 113t112.5 47t113 -47t47 -113t-47 -113.5t-113 -47.5t-112.5 47.5t-46.5 113.5zM455 95q0 66 46.5 113.5t112.5 47.5t113 -47t47 -114t-47 -114t-113 -47t-112.5 47.5t-46.5 113.5zM195 647h839q58 0 90.5 -33.5t32.5 -89.5t-33.5 -90.5t-89.5 -34.5
h-839q-56 0 -89.5 34.5t-33.5 90.5t32.5 89.5t90.5 33.5z" />
    <glyph glyph-name="oslash" unicode="&#xf8;" horiz-adv-x="1139" 
d="M570 248q76 0 154.5 65.5t78.5 235.5q0 59 -15 108l-346 -364q52 -45 128 -45zM569 1124q187 0 326 -120l94 98q29 31 59 31t55 -24.5t25 -58.5t-20 -57l-107 -112q97 -152 97 -332q0 -239 -107 -360.5t-207.5 -167.5t-214.5 -46q-188 0 -321 111l-103 -106
q-23 -25 -53 -25t-56 25.5t-26 59.5t21 54l108 115q-98 146 -98 359t108.5 337.5t207.5 171.5t212 47zM574 852q-80 0 -133 -44t-79 -114.5t-26 -138.5t18 -121l351 369q-51 49 -131 49z" />
    <glyph glyph-name="ugrave" unicode="&#xf9;" horiz-adv-x="1139" 
d="M821 1372q0 -40 -32 -87.5t-67 -47.5t-48.5 5t-42.5 15l-230 93q-84 29 -84 120q0 44 33.5 86.5t68.5 42.5t87 -20l242 -100l16 -9q57 -30 57 -98zM84 410v538q0 75 40.5 119.5t94.5 44.5t107 -32t53 -132v-532q0 -90 56.5 -141.5t120.5 -51.5t134 36.5t70 156.5v532
q0 75 40.5 119.5t94.5 44.5t107 -32t53 -132v-538q0 -274 -167 -354.5t-319 -80.5q-230 0 -357.5 117.5t-127.5 317.5z" />
    <glyph glyph-name="uacute" unicode="&#xfa;" horiz-adv-x="1139" 
d="M720 1599q35 0 68 -42t33 -87q0 -91 -84 -120l-229 -93q-29 -10 -40.5 -15t-48.5 -5t-69.5 47.5t-32.5 101.5t58 84l16 9l242 100q52 20 87 20zM84 410v538q0 75 40.5 119.5t94.5 44.5t107 -32t53 -132v-532q0 -90 56.5 -141.5t120.5 -51.5t134 36.5t70 156.5v532
q0 75 40.5 119.5t94.5 44.5t107 -32t53 -132v-538q0 -274 -167 -354.5t-319 -80.5q-230 0 -357.5 117.5t-127.5 317.5z" />
    <glyph glyph-name="ucircumflex" unicode="&#xfb;" horiz-adv-x="1139" 
d="M881 1364q0 -49 -37.5 -90t-73.5 -41t-121 37l-80 35l-80 -35q-83 -37 -119 -37t-74 40.5t-38 90.5q0 90 94 127l217 90l217 -90q95 -38 95 -127zM84 410v538q0 75 40.5 119.5t94.5 44.5t107 -32t53 -132v-532q0 -90 56.5 -141.5t120.5 -51.5t134 36.5t70 156.5v532
q0 75 40.5 119.5t94.5 44.5t107 -32t53 -132v-538q0 -274 -167 -354.5t-319 -80.5q-230 0 -357.5 117.5t-127.5 317.5z" />
    <glyph glyph-name="udieresis" unicode="&#xfc;" horiz-adv-x="1139" 
d="M197 1397q0 63 42.5 105t104.5 42t105 -42t43 -105t-43 -106.5t-105 -43.5t-104.5 43.5t-42.5 106.5zM647 1397q0 61 43.5 104t105.5 43t104 -42t42 -105t-42 -106.5t-104 -43.5t-105.5 44.5t-43.5 105.5zM84 410v538q0 75 40.5 119.5t94.5 44.5t107 -32t53 -132v-532
q0 -90 56.5 -141.5t120.5 -51.5t134 36.5t70 156.5v532q0 75 40.5 119.5t94.5 44.5t107 -32t53 -132v-538q0 -274 -167 -354.5t-319 -80.5q-230 0 -357.5 117.5t-127.5 317.5z" />
    <glyph glyph-name="yacute" unicode="&#xfd;" horiz-adv-x="985" 
d="M644 1599q35 0 68 -42t33 -87q0 -91 -83 -120l-230 -93q-29 -10 -40.5 -15t-48.5 -5q-36 0 -68.5 47.5t-32.5 87.5q0 68 57 98l16 9l242 100q52 20 87 20zM-4 994q0 44 44 81t96 37q109 0 147 -104l202 -562l217 562q42 104 148 104q50 0 94.5 -37t44.5 -85t-14 -83
l-494 -1241q-46 -117 -139 -117q-71 0 -112.5 38.5t-41.5 82.5t19 94l129 322l-326 821q-14 43 -14 87z" />
    <glyph glyph-name="thorn" unicode="&#xfe;" 
d="M379 565q0 -98 25.5 -165t77.5 -109.5t126 -42.5t126.5 45t79 115t26.5 144t-26 142.5t-78.5 113t-125.5 44.5q-112 0 -171.5 -94.5t-59.5 -192.5zM84 -285v1712q0 74 41 120t95 46t106.5 -33t52.5 -133v-438h4q38 66 111 100.5t155 34.5q141 0 253 -79.5t172.5 -209
t60.5 -254.5t-32.5 -229.5t-93 -189.5t-151 -136t-199.5 -51q-162 0 -280 103v-363q0 -75 -41.5 -120.5t-106.5 -45.5t-106 46t-41 120z" />
    <glyph glyph-name="ydieresis" unicode="&#xff;" horiz-adv-x="985" 
d="M121 1397q0 63 42.5 105t104.5 42t105 -42t43 -105t-43 -106.5t-105 -43.5t-104.5 43.5t-42.5 106.5zM571 1397q0 61 43.5 104t105.5 43t104 -42t42 -105t-42 -106.5t-104 -43.5t-105.5 44.5t-43.5 105.5zM-4 994q0 44 44 81t96 37q109 0 147 -104l202 -562l217 562
q42 104 148 104q50 0 94.5 -37t44.5 -85t-14 -83l-494 -1241q-46 -117 -139 -117q-71 0 -112.5 38.5t-41.5 82.5t19 94l129 322l-326 821q-14 43 -14 87z" />
    <glyph glyph-name="dotlessi" unicode="&#x131;" horiz-adv-x="455" 
d="M80 152v786q0 73 41 118.5t95 45.5t106.5 -32t52.5 -132v-786q0 -100 -53 -132t-107 -32t-94.5 45.5t-40.5 118.5z" />
    <glyph glyph-name="Lslash" unicode="&#x141;" horiz-adv-x="872" 
d="M92 168v324l-80 -62q-26 -20 -56 -20t-63.5 20t-33.5 72t23.5 77.5t84.5 71.5l125 94v566q0 74 43 116.5t111 42.5t110.5 -41.5t42.5 -117.5v-332l226 168q38 27 78 27t69 -27.5t29 -66.5t-25.5 -66.5t-79.5 -67.5l-297 -217v-446h365q74 0 111 -44.5t35 -100.5t-42 -97
t-104 -41h-512q-74 0 -117 45.5t-43 122.5z" />
    <glyph glyph-name="lslash" unicode="&#x142;" horiz-adv-x="455" 
d="M-23 471q-42 0 -67 29.5t-25 69.5t43 83l152 152v608q0 73 41 118.5t95 45.5t106.5 -32t52.5 -132v-323q37 37 60 51t57 14t55.5 -26t21.5 -73t-43 -87l-151 -152v-665q0 -100 -53 -132t-107 -32t-94.5 45.5t-40.5 118.5v380q-61 -61 -103 -61z" />
    <glyph glyph-name="OE" unicode="&#x152;" horiz-adv-x="1972" 
d="M354 737q0 -129 43 -238t130 -174t197 -65q200 0 300 136.5t100 340.5q0 129 -44 237t-131.5 173t-209.5 65t-209.5 -65t-131.5 -173t-44 -237zM1419 1188v-303h340q72 0 111 -41.5t39 -99.5t-40 -101t-110 -43h-340v-315h383q71 0 108.5 -41.5t37.5 -99.5t-38.5 -101
t-107.5 -43h-569q-62 0 -77 28.5t-15 90.5h-4q-105 -144 -405 -144t-498.5 218.5t-198.5 543.5t196.5 542.5t507.5 217.5q157 0 253.5 -52t146.5 -104l4 7q0 78 28.5 101.5t118.5 23.5h494q70 0 107.5 -42t37.5 -90t-27.5 -100.5t-117.5 -52.5h-365z" />
    <glyph glyph-name="oe" unicode="&#x153;" horiz-adv-x="1858" 
d="M336 548q0 -75 26.5 -144t79 -112.5t128.5 -43.5t154.5 65.5t78.5 235.5q0 73 -26 143.5t-78.5 115t-128.5 44.5t-129 -44t-79 -114.5t-26 -145.5zM41 526q0 134 38 238t108.5 185t169.5 128t212 47q217 0 381 -166q57 73 149.5 119.5t199.5 46.5t205.5 -43.5
t215.5 -161.5t117 -335q0 -133 -129 -133h-629q16 -106 94.5 -160.5t164.5 -54.5t125 17.5t118 60t110 42.5t76 -30.5t45 -95.5t-73.5 -124t-188 -95t-219.5 -36q-251 0 -391 172q-138 -172 -371 -172q-154 0 -274.5 77.5t-187 208.5t-66.5 265zM1294 877
q-80 0 -143.5 -64.5t-77.5 -163.5h469q-15 139 -91.5 183.5t-156.5 44.5z" />
    <glyph glyph-name="Scaron" unicode="&#x160;" horiz-adv-x="1100" 
d="M240 1776q0 50 39 91.5t73 41.5t119 -39l80 -35l80 35q85 39 112 39t55.5 -19.5t46 -51.5t17.5 -62q0 -89 -94 -127l-217 -88l-217 88q-94 34 -94 127zM524 1497q76 0 147 -11t133 -33t106 -63.5t44 -90.5t-28 -104.5t-109 -55.5q-40 0 -121 30.5t-151 30.5t-119 -35
t-49 -101t112 -106t248 -85t230 -141t94 -258t-71 -271.5t-191.5 -168.5t-278.5 -59t-319.5 52.5t-161.5 179.5q0 63 38.5 105t84.5 42q65 0 176 -41t178 -41q68 0 140.5 34.5t72.5 144.5q0 79 -54.5 103t-250 85.5t-287.5 144.5t-92 244q0 210 110.5 307t201.5 129.5
t167 32.5z" />
    <glyph glyph-name="scaron" unicode="&#x161;" horiz-adv-x="872" 
d="M125 1440q0 50 38.5 91.5t72.5 41.5t120 -39l80 -35l80 35q84 39 112 39t56.5 -20t46 -51.5t17.5 -61.5q0 -89 -95 -127l-217 -88l-217 88q-94 35 -94 127zM825 918q0 -60 -34.5 -100t-71.5 -40t-101.5 29t-100 43t-77.5 14t-71 -21t-29 -63t88 -80.5t186 -79t168 -109.5
t70 -177t-52.5 -188t-148.5 -125.5t-201 -45.5t-201 30t-162.5 83.5t-66.5 116.5t45.5 98t83.5 35t68 -12.5t98 -51t136 -38.5q67 0 92.5 20.5t25.5 64.5t-87 81t-187.5 79.5t-169 112.5t-68.5 178t51 186.5t142.5 122t189.5 43.5t182.5 -24t143.5 -73t59 -109z" />
    <glyph glyph-name="Ydieresis" unicode="&#x178;" horiz-adv-x="1098" 
d="M176 1733q0 61 43 104t105 43t104.5 -42t42.5 -105t-42.5 -106.5t-104.5 -43.5t-105 44.5t-43 105.5zM627 1733q0 63 42.5 105t104.5 42t105 -42t43 -105t-43 -106.5t-105 -43.5t-104.5 43.5t-42.5 106.5zM395 139v551l-387 551q-28 42 -28 99t41 101t93 44
q100 0 140 -62l295 -432l295 432q40 62 129 62q41 0 93 -32t52 -120q0 -50 -28 -92l-388 -551v-551q0 -65 -39 -108t-115 -43t-114.5 43t-38.5 108z" />
    <glyph glyph-name="Zcaron" unicode="&#x17d;" horiz-adv-x="1214" 
d="M297 1757q0 50 38 90.5t73 40.5t120 -37l80 -34l80 34q84 37 120 37t74 -40.5t38 -88.5t-23.5 -77t-71.5 -50l-217 -88l-217 88q-94 37 -94 125zM1022 270q66 0 106.5 -35t40.5 -97t-44.5 -100t-102.5 -38h-805q-80 0 -126 41t-46 105t41 120l659 922h-538
q-63 0 -103.5 35t-40.5 95t42.5 100t101.5 40h749q84 0 128 -44t44 -110t-45 -124l-655 -910h594z" />
    <glyph glyph-name="zcaron" unicode="&#x17e;" horiz-adv-x="985" 
d="M182 1425q0 50 38 90.5t87 40.5q19 0 107 -36l80 -35l79 35q88 36 107 36q49 0 87 -40.5t38 -90.5q0 -85 -94 -125l-217 -88l-218 88q-94 37 -94 125zM170 831q-57 0 -95 35.5t-38 94.5t38 94t95 35h670q32 0 64 -21t32 -61t-7 -58t-24 -41l-465 -651h389q58 0 96 -35
t38 -94t-38 -94t-96 -35h-686q-52 0 -86 27t-34 69t26 84l463 651h-342z" />
    <glyph glyph-name="florin" unicode="&#x192;" 
d="M356 614q-139 0 -139 142q0 50 42.5 84t111.5 34h82l59 314q53 309 338 309q82 0 141.5 -31t59.5 -105t-42.5 -99t-100.5 -25t-79.5 -29t-31.5 -84l-45 -250h71q144 0 144 -132q0 -68 -48.5 -98t-146.5 -30h-67l-130 -714q-28 -165 -109 -258t-239 -93q-88 0 -143 28
t-55 108t46.5 102.5t114.5 22.5t93 129l125 675h-52z" />
    <glyph glyph-name="circumflex" unicode="&#x2c6;" horiz-adv-x="455" 
d="M539 1364q0 -49 -37.5 -90t-73.5 -41t-121 37l-80 35l-80 -35q-83 -37 -119 -37t-74 40.5t-38 90.5q0 90 94 127l217 90l217 -90q95 -38 95 -127z" />
    <glyph glyph-name="caron" unicode="&#x2c7;" horiz-adv-x="455" 
d="M-84 1425q0 50 38 90.5t87 40.5q20 0 106 -36l80 -35l80 35q88 36 107 36q49 0 87 -40.5t38 -88.5t-23.5 -77t-71.5 -50l-217 -88l-217 88q-94 37 -94 125z" />
    <glyph glyph-name="breve" unicode="&#x2d8;" horiz-adv-x="455" 
d="M-90 1424q0 134 92 135q53 0 83 -35t59.5 -70t74.5 -35t65.5 17t45.5 51.5t52.5 53t61.5 18.5t67.5 -30.5t33.5 -95.5q0 -66 -51.5 -114.5t-125 -72t-140.5 -23.5t-142.5 23t-125.5 70.5t-50 107.5z" />
    <glyph glyph-name="dotaccent" unicode="&#x2d9;" horiz-adv-x="455" 
d="M80 1382q0 62 42 105t104 43t105.5 -43t43.5 -105t-43.5 -104.5t-105.5 -42.5t-104 42.5t-42 104.5z" />
    <glyph glyph-name="ring" unicode="&#x2da;" horiz-adv-x="455" 
d="M135 1390q0 -40 27.5 -67t65.5 -27t64.5 28t26.5 66t-26.5 64.5t-64.5 26.5t-65.5 -25.5t-27.5 -65.5zM25 1374q0 68 27 115.5t74 74.5t102 27t101.5 -27t73.5 -73.5t27 -116.5t-60 -129t-142 -59t-142.5 60t-60.5 128z" />
    <glyph glyph-name="ogonek" unicode="&#x2db;" horiz-adv-x="455" 
d="M414 -342q0 -60 -76 -82t-144 -22t-119.5 46.5t-51.5 128.5t74 160.5t153 110.5h141q-61 -30 -116.5 -98t-55.5 -140t72 -73l80 14q43 0 43 -45z" />
    <glyph glyph-name="tilde" unicode="&#x2dc;" horiz-adv-x="455" 
d="M-18 1251q-30 0 -62.5 34.5t-32.5 74.5q0 83 56.5 131.5t124.5 48.5t148 -25.5t96 -25.5t73 29.5t95 29.5t62.5 -33t24.5 -83t-29 -90.5t-75 -64.5t-89 -24t-130 26t-106 26t-31.5 -5.5t-36.5 -20.5t-41 -21.5t-47 -6.5z" />
    <glyph glyph-name="hungarumlaut" unicode="&#x2dd;" horiz-adv-x="455" 
d="M662 1583q36 0 69 -41.5t33 -85.5q0 -90 -84 -121l-229 -90l-28 -10q-28 -10 -63 -10t-67.5 46.5t-32.5 86.5q0 68 57 98l258 107q51 20 87 20zM93 1583q35 0 68.5 -41t33.5 -86q0 -90 -84 -121l-230 -90q-29 -10 -40.5 -15t-48.5 -5q-36 0 -68.5 47t-32.5 86q0 67 57 98
l258 107q52 20 87 20z" />
    <glyph glyph-name="emdash" unicode="&#x2013;" horiz-adv-x="1024" 
d="M123 725h778q57 0 90 -35t33 -90t-33 -90t-90 -35h-778q-57 0 -90 35t-33 90t33 90t90 35z" />
    <glyph glyph-name="endash" unicode="&#x2014;" horiz-adv-x="2048" 
d="M0 725h2048q57 0 90 -35t33 -90t-33 -90t-90 -35h-2048q-57 0 -90 35t-33 90t33 90t90 35z" />
    <glyph glyph-name="quoteleft" unicode="&#x2018;" horiz-adv-x="492" 
d="M144 897q-42 0 -84 41.5t-42 82.5t25 95l170 311q41 70 133 70q42 0 84.5 -39.5t42.5 -81.5t-27 -98l-172 -309q-16 -33 -52 -52.5t-78 -19.5z" />
    <glyph glyph-name="quoteright" unicode="&#x2019;" horiz-adv-x="492" 
d="M144 897q-42 0 -84 41.5t-42 82.5t25 95l170 311q41 70 133 70q42 0 84.5 -39.5t42.5 -81.5t-27 -98l-172 -309q-16 -33 -52 -52.5t-78 -19.5z" />
    <glyph glyph-name="quotesinglbase" unicode="&#x201a;" horiz-adv-x="492" 
d="M144 -276q-42 0 -84 40t-42 82t25 97l170 309q25 44 63.5 58t55.5 14q55 0 98 -41t43 -97q0 -26 -27 -82l-172 -311q-17 -33 -52.5 -51t-77.5 -18z" />
    <glyph glyph-name="quotedblleft" unicode="&#x201c;" horiz-adv-x="909" 
d="M144 897q-42 0 -84 41.5t-42 82.5t25 95l170 311q41 70 133 70q42 0 84.5 -39.5t42.5 -81.5t-27 -98l-172 -309q-16 -33 -52 -52.5t-78 -19.5zM562 897q-42 0 -84 41.5t-42 82.5t25 95l170 311q37 70 131 70q44 0 86.5 -39.5t42.5 -81.5t-27 -98l-172 -309
q-16 -33 -52 -52.5t-78 -19.5z" />
    <glyph glyph-name="quotedblright" unicode="&#x201d;" horiz-adv-x="909" 
d="M144 897q-42 0 -84 41.5t-42 82.5t25 95l170 311q41 70 133 70q42 0 84.5 -39.5t42.5 -81.5t-27 -98l-172 -309q-16 -33 -52 -52.5t-78 -19.5zM562 897q-42 0 -84 41.5t-42 82.5t25 95l170 311q37 70 131 70q44 0 86.5 -39.5t42.5 -81.5t-27 -98l-172 -309
q-16 -33 -52 -52.5t-78 -19.5z" />
    <glyph glyph-name="quotedblbase" unicode="&#x201e;" horiz-adv-x="909" 
d="M144 -276q-42 0 -84 40t-42 82t25 97l170 309q25 44 63.5 58t55.5 14q55 0 98 -41t43 -97q0 -26 -27 -82l-172 -311q-17 -33 -52.5 -51t-77.5 -18zM562 -276q-42 0 -84 40t-42 82t25 97l170 309q18 33 54 52.5t78 19.5t85 -41t43 -97q0 -26 -27 -82l-172 -311
q-17 -33 -52.5 -51t-77.5 -18z" />
    <glyph glyph-name="dagger" unicode="&#x2020;" horiz-adv-x="1290" 
d="M504 -307v1085h-336q-53 0 -85 34.5t-32 95.5t32 95.5t85 34.5h336v318q0 66 38.5 103.5t102.5 37.5t102.5 -37.5t38.5 -103.5v-318h336q53 0 85 -34.5t32 -95.5t-32 -95.5t-85 -34.5h-336v-1085q0 -68 -38 -106t-103 -38t-103 38t-38 106z" />
    <glyph glyph-name="daggerdbl" unicode="&#x2021;" horiz-adv-x="1290" 
d="M504 -307v319h-336q-53 0 -85 34.5t-32 95.5t32 95.5t85 34.5h336v506h-336q-53 0 -85 34.5t-32 95.5t32 95.5t85 34.5h336v318q0 66 38.5 103.5t102.5 37.5t102.5 -37.5t38.5 -103.5v-318h336q53 0 85 -34.5t32 -95.5t-32 -95.5t-85 -34.5h-336v-506h336q53 0 85 -34.5
t32 -95.5t-32 -95.5t-85 -34.5h-336v-319q0 -68 -38 -106t-103 -38t-103 38t-38 106z" />
    <glyph glyph-name="bullet" unicode="&#x2022;" horiz-adv-x="1024" 
d="M147 738q0 100 49 184t132.5 133t171.5 49q162 0 269.5 -107t107.5 -260q0 -99 -49.5 -184t-133 -134.5t-182.5 -49.5t-182.5 49.5t-133 134.5t-49.5 185z" />
    <glyph glyph-name="ellipsis" unicode="&#x2026;" horiz-adv-x="2048" 
d="M1546 137q0 66 47 113t113 47t113 -47t47 -113t-47 -114t-113 -48t-113 48t-47 114zM864 137q0 66 47 113t113 47t113 -47t47 -113t-47 -114t-113 -48t-113 48t-47 114zM182 137q0 66 47 113t113 47t113 -47t47 -113t-47 -114t-113 -48t-113 48t-47 114z" />
    <glyph glyph-name="perthousand" unicode="&#x2030;" horiz-adv-x="2200" 
d="M1100 186q50 0 78 35t28 87t-28 88t-78 36t-78.5 -36t-28.5 -88t28.5 -87t78.5 -35zM1100 -25q-134 0 -225 98.5t-91 234.5t91 235.5t225 99.5q88 0 160 -45.5t113.5 -124t41.5 -166.5t-41.5 -165t-114 -122t-159.5 -45zM379 829q-134 0 -225 99t-91 235q0 88 41 165
t113 123t161 46t161 -45.5t113.5 -123.5t41.5 -166t-41.5 -165.5t-114 -122.5t-159.5 -45zM1074 1509q33 0 78.5 -24.5t45.5 -89.5q0 -31 -16 -64l-688 -1300q-29 -41 -43.5 -54.5t-52.5 -13.5t-75.5 34.5t-37.5 74.5t20 82l678 1290q21 39 39.5 52t51.5 13zM378 1040
q50 0 78.5 36t28.5 88t-28.5 87t-78.5 35t-78 -35t-28 -87t28 -88t78 -36zM1820 186q50 0 78.5 35t28.5 87t-28.5 88t-78.5 36t-78 -36t-28 -88t28 -87t78 -35zM1820 -25q-88 0 -160 45t-113.5 122t-41.5 165t41.5 166.5t113.5 124t160 45.5t160.5 -45.5t114 -124
t41.5 -166.5t-41.5 -165t-114 -122t-160.5 -45z" />
    <glyph glyph-name="guilsinglleft" unicode="&#x2039;" horiz-adv-x="606" 
d="M530 255q0 -46 -34 -83t-94 -37t-97 51l-211 328q-18 30 -18 76t49 115l199 284q30 35 86 35t88 -33t32 -81t-22 -79l-162 -249l162 -246q22 -35 22 -81z" />
    <glyph glyph-name="guilsinglright" unicode="&#x203a;" horiz-adv-x="606" 
d="M76 903q0 47 33.5 84t95.5 37t96 -51l211 -330q18 -25 18 -75t-49 -115l-198 -283q-31 -35 -87 -35t-88 33t-32 80t22 80l162 250l-162 245q-22 33 -22 80z" />
    <glyph glyph-name="fraction" unicode="&#x2044;" horiz-adv-x="340" 
d="M502 1495q32 0 78.5 -24t46.5 -91q0 -30 -17 -61l-688 -1288q-29 -41 -43.5 -54.5t-52.5 -13.5t-75.5 34.5t-37.5 72.5t21 82l678 1278q19 38 38.5 51.5t51.5 13.5z" />
    <glyph glyph-name="trademark" unicode="&#x2122;" horiz-adv-x="2048" 
d="M958 745v613q0 127 175 127q65 0 106.5 -24.5t75.5 -102.5l145 -377l146 377q35 79 75.5 103t106.5 24q174 0 174 -127v-613q0 -84 -34 -104t-77 -20t-76.5 20t-33.5 104v431h-4l-148 -431q-22 -65 -47 -94.5t-73 -29.5t-79 19.5t-59 104.5l-147 431h-4v-431
q0 -84 -34 -104t-76 -20t-77 20t-35 104zM340 745v541h-162q-40 0 -66 25t-26 69t26 68.5t66 24.5h570q41 0 66.5 -24.5t25.5 -68.5t-25.5 -69t-66.5 -25h-162v-541q0 -55 -32.5 -89.5t-90.5 -34.5t-90.5 34.5t-32.5 89.5z" />
    <glyph glyph-name="minus" unicode="&#x2212;" horiz-adv-x="1229" 
d="M195 641h839q58 0 90.5 -33.5t32.5 -89.5t-32.5 -89.5t-90.5 -33.5h-839q-58 0 -90.5 33.5t-32.5 89.5t32.5 89.5t90.5 33.5z" />
    <glyph glyph-name="periodcentered" unicode="&#x2219;" horiz-adv-x="549" 
d="M273 743q66 0 113.5 -48.5t47.5 -114.5t-47 -113t-113 -47t-112.5 48t-46.5 114t46 113.5t112 47.5z" />
    <glyph glyph-name="fi" unicode="&#xf001;" horiz-adv-x="1063" 
d="M826 1544q54 0 114.5 -36t60.5 -115q0 -80 -48.5 -130.5t-114.5 -50.5t-117 52t-51 116t51 114t105 50zM688 152v786q0 72 41 118t107 46t106.5 -45.5t40.5 -118.5v-786q0 -73 -40.5 -118.5t-106.5 -45.5t-107 46t-41 118zM152 152v679h-66q-58 0 -93.5 35.5t-35.5 92.5
t37 94t92 37h66v151q0 160 85.5 248t223.5 88q71 0 125.5 -32t54.5 -101q0 -125 -109 -125q-46 0 -66 -17t-20 -92v-120h72q144 0 144 -129q0 -111 -45 -120.5t-99 -9.5h-72v-679q0 -73 -40.5 -118.5t-106.5 -45.5t-106.5 45.5t-40.5 118.5z" />
    <glyph glyph-name="fl" unicode="&#xf002;" horiz-adv-x="1063" 
d="M688 152v1261q0 72 41 118t107 46t106.5 -45.5t40.5 -118.5v-1261q0 -73 -40.5 -118.5t-106.5 -45.5t-107 46t-41 118zM152 152v679h-66q-58 0 -93.5 35.5t-35.5 92.5t37 94t92 37h66v151q0 160 85.5 248t223.5 88q71 0 125.5 -32t54.5 -101q0 -125 -109 -125
q-46 0 -66 -17t-20 -92v-120h72q144 0 144 -129q0 -111 -45 -120.5t-99 -9.5h-72v-679q0 -73 -40.5 -118.5t-106.5 -45.5t-106.5 45.5t-40.5 118.5z" />
    </font>
</defs>
</svg>
