<?xml version="1.0" standalone="no"?>
<!DOCTYPE svg PUBLIC "-//W3C//DTD SVG 1.1//EN" "http://www.w3.org/Graphics/SVG/1.1/DTD/svg11.dtd" >
<svg xmlns="http://www.w3.org/2000/svg">
<metadata>
Created by FontPrep 20130207 at Sun Jul  6 13:39:57 2014
 By Michael Ball
(c) 1989, 1995, 2001 Adobe Systems Incorporated. All rights reserved.
</metadata>
<defs>
<font id="0124f2b440d5223ff8fab9542dba9117" horiz-adv-x='1024' >
  <font-face 
    font-family="VAGRoundedStd-Thin"
    font-weight="250"
    font-stretch="normal"
    units-per-em="2048"
    panose-1="2 15 4 2 2 2 4 2 2 4"
    ascent="1577"
    descent="-471"
    x-height="1090"
    cap-height="1470"
    bbox="-221 -590 2156 1888"
    underline-thickness="102"
    underline-position="-102"
    unicode-range="U+0020-FB02"
  />
<missing-glyph horiz-adv-x="1024" 
d="M102 1239v-1044l349 522zM164 102h696l-348 523zM573 717l349 -522v1044zM512 809l348 522h-696zM0 0v1434h1024v-1434h-1024z" />
    <glyph glyph-name="f_i" unicode="fi" horiz-adv-x="909" 
d="M700 1270q-40 0 -70 30t-30 70q0 41 30 71q30 29 70 29t71 -30q30 -30 30 -70t-30 -70t-71 -30zM774 1008v-926q0 -94 -74 -94t-73 94v926q-1 94 73 94t74 -94zM319 967v-885q1 -94 -73 -94t-74 94v885h-96q-33 0 -48 19t-16 42q0 23 16 42t48 20h96v280q0 104 54 158
t141 53h75q100 0 101 -68q0 -68 -78 -67h-68q-35 0 -57 -20t-21 -48v-288h132q33 0 48 -20t15 -42q0 -23 -15 -42t-48 -19h-132z" />
    <glyph glyph-name="f_l" unicode="fl" horiz-adv-x="909" 
d="M774 1487v-1405q0 -94 -74 -94t-73 94v1405q-1 94 73 94t74 -94zM319 967v-885q1 -94 -73 -94t-74 94v885h-96q-33 0 -48 19t-16 42q0 23 16 42t48 20h96v280q0 104 54 158t141 53h75q100 0 101 -68q0 -68 -78 -67h-68q-35 0 -57 -20t-21 -48v-288h132q33 0 48 -20
t15 -42q0 -23 -15 -42t-48 -19h-132z" />
    <glyph glyph-name=".notdef" horiz-adv-x="1024" 
d="M102 1239v-1044l349 522zM164 102h696l-348 523zM573 717l349 -522v1044zM512 809l348 522h-696zM0 0v1434h1024v-1434h-1024z" />
    <glyph glyph-name=".null" horiz-adv-x="0" 
 />
    <glyph glyph-name="nonmarkingreturn" horiz-adv-x="681" 
 />
    <glyph glyph-name="space" unicode=" " horiz-adv-x="491" 
 />
    <glyph glyph-name="exclam" unicode="!" horiz-adv-x="569" 
d="M211 508v868q0 94 74 94t73 -94v-868q0 -94 -74 -94t-73 94zM190 81q0 39 29 67t66 28t65 -29t29 -67q0 -38 -29 -65q-30 -27 -66 -27t-65 28t-29 65z" />
    <glyph glyph-name="quotedbl" unicode="&#x22;" horiz-adv-x="645" 
d="M387 1122v271q-1 35 19 57t49 20q29 0 48 -22t19 -55v-271q0 -34 -19 -56t-48 -22t-49 22t-19 56zM123 1122v271q0 35 19 57t48 20q29 0 49 -21q19 -22 19 -56v-271q0 -34 -19 -56t-49 -22t-48 22q-19 22 -19 56z" />
    <glyph glyph-name="numbersign" unicode="#" 
d="M664 565l45 328h-273l-45 -328h273zM911 565q84 0 84 -60t-84 -63h-143l-53 -381q-10 -74 -70 -73q-53 0 -53 57q0 33 10 98l41 299h-270l-54 -381q-10 -74 -69 -73q-53 0 -53 57q0 33 10 98l41 299h-125q-37 0 -61 16t-23 46q0 61 84 61h143l47 328h-127q-84 0 -84 61
q0 29 24 45t60 17h144l53 381q10 74 70 73q53 0 53 -57q0 -33 -10 -98l-41 -299h270l53 381q10 74 70 73q53 0 53 -57q0 -33 -10 -98l-41 -299h125q37 0 61 -16t23 -46q0 -61 -84 -61h-144l-47 -328h127z" />
    <glyph glyph-name="dollar" unicode="$" horiz-adv-x="948" 
d="M428 123v606q-86 29 -135 51q-150 69 -197 173q-29 65 -28 151q0 154 102 250t258 112v97q0 41 37 41t37 -41v-93q119 -4 219 -53t100 -108q0 -27 -15 -47q-34 -45 -97 2q-94 69 -207 71v-479q193 -71 241 -107q97 -73 116 -110q48 -94 48 -182q0 -188 -112 -319
q-113 -130 -293 -146v-96q0 -41 -37 -41t-37 41v92q-168 2 -278 57t-109 123q0 23 17 42t54 19t106 -53q74 -53 210 -53zM215 1115q-1 -85 55 -137t158 -91v444q-104 -15 -158 -73t-55 -143zM760 438q0 108 -66 164t-192 100v-575q114 19 186 111t72 200z" />
    <glyph glyph-name="percent" unicode="%" horiz-adv-x="1517" 
d="M1042 1491q49 0 52 -47q0 -18 -19 -64l-532 -1362q-19 -51 -55 -51q-66 0 -66 47q0 19 18 64l533 1362q20 51 69 51zM1120 86q94 0 144 75q49 75 49 183t-52 180q-53 74 -141 74t-140 -74t-52 -181t49 -182t143 -75zM1120 -12q-129 0 -222 98t-93 253t94 256t221 101
t221 -101q95 -101 95 -256t-94 -253t-222 -98zM397 860q94 0 144 75q49 75 49 183t-52 180q-52 74 -140 74t-141 -74q-52 -74 -52 -181t49 -182t143 -75zM397 762q-129 0 -222 98t-93 253t94 256t221 101t221 -101t94 -256t-92 -253q-94 -98 -223 -98z" />
    <glyph glyph-name="ampersand" unicode="&#x26;" horiz-adv-x="1366" 
d="M555 123q90 0 187 53t169 162l-397 457q-125 -63 -198 -159q-72 -96 -72 -219q0 -124 86 -209t225 -85zM762 1200q0 64 -51 106t-127 42q-172 0 -172 -152q0 -33 26 -79q26 -47 46 -69q19 -22 69 -77q119 68 164 116q45 49 45 113zM1232 737q26 0 43 -18t17 -47
q0 -72 -202 -326l188 -211q33 -35 33 -61q0 -80 -74 -80q-29 0 -68 47l-163 188q-200 -241 -434 -241t-361 120t-127 318q0 272 348 473q-96 107 -132 169t-36 128q0 121 84 198q84 76 230 76t238 -70q93 -70 93 -188q1 -120 -71 -196t-195 -150l361 -415l57 81q25 35 51 80
q27 45 41 68q13 23 33 40t46 17z" />
    <glyph glyph-name="quotesingle" unicode="'" horiz-adv-x="380" 
d="M123 1122v271q0 35 19 57t48 20q29 0 49 -21q19 -22 19 -56v-271q0 -34 -19 -56t-49 -22t-48 22q-19 22 -19 56z" />
    <glyph glyph-name="parenleft" unicode="(" horiz-adv-x="417" 
d="M270 -164q-34 0 -56 31t-42 100q-84 303 -84 709t84 708q20 70 42 101t56 31q55 0 60 -50q0 -16 -21 -77q-86 -245 -86 -712t77 -688q14 -47 22 -67t8 -37q-4 -49 -60 -49z" />
    <glyph glyph-name="parenright" unicode=")" horiz-adv-x="417" 
d="M95 1430q-7 20 -7 36q4 49 59 50q35 0 57 -31t42 -101q84 -302 84 -708t-84 -709q-20 -71 -42 -101t-57 -30q-55 0 -59 49q0 16 22 80q85 249 85 726t-100 739z" />
    <glyph glyph-name="asterisk" unicode="*" horiz-adv-x="794" 
d="M397 741q-61 0 -61 71q0 34 12 120l17 115l-152 -115q-43 -31 -68 -31q-63 0 -63 60q0 33 59 61l187 84l-187 84q-59 29 -59 61q0 59 63 60q25 0 68 -31l152 -115l-17 115q-12 86 -12 123q0 67 60 67t63 -67q0 -37 -13 -123l-16 -115l152 115q43 31 67 31q63 0 64 -60
q0 -33 -60 -61l-186 -84l186 -84q59 -29 60 -61q0 -59 -64 -60q-25 0 -67 31l-152 115l16 -115q12 -86 12 -120q2 -69 -61 -71z" />
    <glyph glyph-name="plus" unicode="+" horiz-adv-x="1228" 
d="M547 586v372q0 35 19 57q19 21 48 21t49 -21q19 -22 19 -57v-372h373q35 0 57 -20t21 -48q0 -29 -22 -48t-56 -19h-373v-373q0 -34 -19 -56t-49 -22t-48 22q-19 22 -19 56v373h-373q-34 0 -56 19t-22 48t22 48t56 20h373z" />
    <glyph glyph-name="comma" unicode="," horiz-adv-x="491" 
d="M260 176q40 0 60 -19t20 -44t-16 -62l-117 -258q-19 -43 -61 -43t-61 20t-19 44t16 61l117 258q20 43 61 43z" />
    <glyph glyph-name="hyphen" unicode="-" horiz-adv-x="720" 
d="M162 612h397q35 0 57 -19t21 -48q0 -29 -22 -48t-56 -20h-397q-35 -1 -57 19t-21 49q0 29 21 48q22 19 57 19z" />
    <glyph glyph-name="period" unicode="." horiz-adv-x="491" 
d="M152 82q0 38 28 66t66 28t66 -28t28 -66t-28 -67q-28 -27 -66 -27t-67 27q-27 28 -27 67z" />
    <glyph glyph-name="slash" unicode="/" horiz-adv-x="833" 
d="M679 1470q71 0 73 -53q0 -20 -15 -55l-522 -1321q-23 -53 -61 -53q-72 0 -72 53q0 20 14 55l522 1321q23 53 61 53z" />
    <glyph glyph-name="zero" unicode="0" 
d="M549 1335q-149 0 -227 -167t-78 -439t78 -439t228 -167t226 167q78 167 78 439t-78 439t-227 167zM297 90q-213 192 -213 641q0 448 213 637q115 104 252 103t252 -103q213 -192 213 -639t-213 -639q-113 -102 -251 -102t-253 102z" />
    <glyph glyph-name="one" unicode="1" horiz-adv-x="720" 
d="M360 1323h-186q-34 0 -56 19q-22 18 -22 48t22 49t56 19h256q34 0 56 -19t22 -48v-1309q0 -94 -74 -94t-74 94v1241z" />
    <glyph glyph-name="two" unicode="2" 
d="M899 135q35 0 57 -19t21 -48q0 -28 -22 -48t-56 -20h-682q-78 0 -78 57q0 35 39 90l473 654q125 172 125 284q0 250 -233 250q-131 0 -203 -86t-72 -250q0 -74 -71 -73q-76 0 -76 98q0 190 120 318t302 128t287 -99q106 -99 106 -259t-139 -350l-459 -627h561z" />
    <glyph glyph-name="three" unicode="3" 
d="M719 1082q0 98 -49 176q-50 78 -152 77q-205 0 -207 -229q1 -30 -21 -52t-52 -22t-53 22q-22 22 -21 52q0 150 98 258t254 106q156 0 259 -104t104 -262q0 -217 -166 -326q109 -35 177 -130t68 -216q0 -190 -128 -317t-312 -127t-299 112t-115 207q0 39 20 61t48 21
q51 0 68 -51q72 -215 272 -215q129 0 208 81t79 210t-65 191q-66 61 -138 73t-104 26t-39 26q-6 11 -7 32q0 60 87 72t137 80q49 70 49 168z" />
    <glyph glyph-name="four" unicode="4" 
d="M727 526v822h-4l-471 -822h475zM727 82v309h-586q-76 0 -75 58q0 35 55 122l485 807q53 92 148 92q57 0 89 -32t31 -88v-824h80q35 0 57 -19q21 -19 21 -48t-22 -48t-56 -20h-80v-309q0 -94 -74 -94t-73 94z" />
    <glyph glyph-name="five" unicode="5" 
d="M854 1458q34 0 56 -19t22 -48t-22 -49t-56 -19h-387l-66 -422q70 35 160 35q164 0 281 -124t116 -308q0 -233 -125 -375q-126 -141 -327 -141q-158 0 -281 83t-123 140q0 23 20 49t44 25q26 0 55 -26q29 -25 59 -55t90 -56t134 -25q135 0 215 103q80 102 80 252t-78 236
t-211 87q-56 0 -120 -31t-88 -31q-24 -1 -42 15t-18 36t10 93l76 481q8 49 26 72t62 22h438z" />
    <glyph glyph-name="six" unicode="6" 
d="M539 123q121 0 197 88t77 249q0 161 -73 259t-193 98q-262 0 -262 -356q0 -137 66 -238q67 -100 188 -100zM555 -12q-308 0 -407 325q-24 80 -23 160q0 272 137 525t350 452q45 41 76 41t49 -22q19 -22 19 -49t-34 -61t-84 -80q-50 -45 -127 -151t-146 -245h4
q90 57 211 57q180 0 286 -127t106 -329t-108 -348q-108 -148 -309 -148z" />
    <glyph glyph-name="seven" unicode="7" horiz-adv-x="985" 
d="M283 -12q-29 0 -49 16q-19 16 -19 40t25 79l508 1200h-611q-35 0 -57 19q-22 18 -21 48q0 30 22 49t56 19h717q72 0 72 -45q0 -33 -25 -90l-543 -1282q-23 -53 -75 -53z" />
    <glyph glyph-name="eight" unicode="8" 
d="M549 881q106 0 163 65q56 66 56 164t-62 162t-158 63q-96 0 -158 -62q-60 -63 -60 -161t56 -165q57 -66 163 -66zM549 -12q-197 0 -311 129t-113 313q0 140 68 242t182 133v4q-193 118 -193 340q0 119 106 220t261 101q156 0 261 -101t105 -236q0 -103 -53 -187
t-139 -137v-4q115 -31 183 -133t67 -242q1 -184 -113 -313t-311 -129zM549 745q-123 0 -194 -89t-71 -213t72 -222q70 -98 193 -98t193 98t71 222q-1 124 -71 213t-193 89z" />
    <glyph glyph-name="nine" unicode="9" 
d="M813 997q-1 137 -67 237t-187 101q-121 0 -198 -88t-77 -249t74 -259q72 -98 193 -98q262 0 262 356zM543 1470q113 0 201 -47q148 -79 205 -278q24 -80 24 -160q0 -272 -137 -525t-351 -452q-45 -41 -75 -41t-50 22q-18 22 -18 49t34 61t84 80q50 45 127 151t146 245h-4
q-90 -57 -211 -57q-180 0 -287 127q-106 127 -106 329t108 349q109 147 310 147z" />
    <glyph glyph-name="colon" unicode=":" horiz-adv-x="491" 
d="M152 82q0 38 28 66t66 28t66 -28t28 -66t-28 -67q-28 -27 -66 -27t-67 27q-27 28 -27 67zM152 774q0 39 27 67q28 27 67 27q38 0 66 -28t28 -66t-28 -66t-66 -28t-66 28t-28 66z" />
    <glyph glyph-name="semicolon" unicode=";" horiz-adv-x="491" 
d="M340 774q0 -38 -29 -66t-65 -28t-66 29q-28 29 -28 65t28 66q29 28 66 28q38 0 66 -28t28 -66zM260 176q40 0 60 -19t20 -44t-16 -62l-117 -258q-19 -43 -61 -43t-61 20t-19 44t16 61l117 258q20 43 61 43z" />
    <glyph glyph-name="less" unicode="&#x3c;" horiz-adv-x="1228" 
d="M1153 58q0 -70 -59 -70q-27 0 -64 18l-899 440q-55 27 -55 72t55 72l899 440q72 35 106 3q17 -15 17 -36q0 -55 -70 -88l-800 -391l807 -393q63 -31 63 -67z" />
    <glyph glyph-name="equal" unicode="=" horiz-adv-x="1228" 
d="M174 381h881q35 1 57 -19t21 -49q0 -29 -22 -48t-56 -19h-881q-34 0 -56 19t-22 48t22 49t56 19zM174 791h881q35 1 57 -19t21 -49q0 -29 -22 -48t-56 -20h-881q-34 -1 -56 19t-22 49t22 49t56 19z" />
    <glyph glyph-name="greater" unicode="&#x3e;" horiz-adv-x="1228" 
d="M135 -12q-59 0 -59 70q0 36 63 67l807 393l-801 391q-70 33 -69 88q0 19 17 35q36 33 106 -2l899 -440q55 -27 55 -72t-55 -72l-899 -440q-37 -18 -64 -18z" />
    <glyph glyph-name="question" unicode="?" horiz-adv-x="909" 
d="M338 82q0 38 28 66t66 28t67 -28q27 -28 27 -66t-28 -67q-28 -27 -66 -27t-66 28t-28 66zM358 504v260q0 43 14 59t66 27q256 51 256 256q0 106 -76 168t-167 61q-91 0 -161 -43t-84 -105q-14 -61 -30 -79t-53 -18q-68 0 -68 77q0 131 116 217q115 86 285 86t284 -100
t114 -266t-94 -255t-254 -128v-217q0 -94 -74 -94t-74 94z" />
    <glyph glyph-name="at" unicode="@" horiz-adv-x="1638" 
d="M1188 1122q56 0 55 -47q0 -12 -12 -49l-148 -469q-20 -66 -20 -100q0 -61 55 -62q121 1 220 147t100 308q0 230 -170 370t-434 140t-448 -185t-185 -449q0 -264 186 -446q186 -181 440 -182q141 0 255 38t167 82t97 82t65 38q45 0 45 -45q0 -27 -47 -76t-125 -101
t-200 -90t-248 -38q-315 0 -537 217q-221 217 -221 525t225 524t535 216t516 -172q207 -172 207 -438q1 -120 -51 -232q-93 -201 -283 -300q-82 -43 -148 -43q-139 0 -164 129h-4q-49 -62 -103 -96t-144 -33q-135 0 -211 89t-76 224q0 213 134 387t333 174q76 0 141 -40
t100 -120l27 70q20 53 76 53zM537 608q0 -84 44 -136t121 -52q125 0 223 150q97 151 97 272q0 182 -166 182q-131 0 -225 -138t-94 -278z" />
    <glyph glyph-name="A" unicode="A" horiz-adv-x="1253" 
d="M932 453l-303 825h-4l-303 -825h610zM29 45q0 25 14 61l469 1258q39 106 115 106q35 0 59 -19t34 -37q9 -18 21 -50l469 -1258q28 -74 -3 -102q-17 -16 -50 -16t-50 17t-30 50l-96 262h-709l-96 -262q-12 -25 -29 -46q-16 -21 -50 -21t-51 16t-17 41z" />
    <glyph glyph-name="B" unicode="B" horiz-adv-x="1099" 
d="M283 711v-576h262q158 0 245 74t87 208q-1 134 -93 214t-241 80h-260zM283 1323v-489h215q114 0 190 72t76 174q0 103 -70 173t-192 70h-219zM135 78v1302q0 78 90 78h264q217 0 320 -109q102 -110 102 -255q0 -221 -206 -306v-4q151 -24 235 -118t84 -260t-118 -286
t-345 -120h-336q-90 0 -90 78z" />
    <glyph glyph-name="C" unicode="C" horiz-adv-x="1214" 
d="M700 1470q188 0 323 -78q136 -78 136 -141q0 -37 -20 -57q-21 -20 -43 -20t-68 40t-127 80q-80 41 -186 41q-145 0 -257 -96q-112 -97 -164 -237t-52 -293q0 -248 126 -417t373 -169q88 1 161 23t110 49q36 27 68 49t48 22q61 0 62 -73q0 -57 -137 -131t-336 -74
t-349 100q-286 190 -286 623t282 647q148 112 336 112z" />
    <glyph glyph-name="D" unicode="D" horiz-adv-x="1290" 
d="M283 1323v-1188h286q250 0 365 166t115 444q0 223 -105 393q-53 85 -147 135t-219 50h-295zM135 78v1302q0 78 90 78h365q158 0 282 -66q219 -118 300 -413q36 -127 36 -260q0 -327 -179 -523t-451 -196h-353q-90 0 -90 78z" />
    <glyph glyph-name="E" unicode="E" horiz-adv-x="909" 
d="M283 659v-524h446q35 0 57 -19t21 -48q0 -28 -22 -48t-56 -20h-504q-90 0 -90 78v1302q0 78 90 78h484q35 0 57 -19t20 -48q0 -29 -21 -49q-22 -19 -56 -19h-424v-528h405q34 1 56 -19t22 -49t-22 -48t-56 -20h-407z" />
    <glyph glyph-name="F" unicode="F" horiz-adv-x="833" 
d="M283 659v-577q0 -94 -74 -94t-74 94v1302q0 32 22 52t52 22h518q35 0 57 -19t21 -48q0 -29 -22 -49t-56 -19h-444v-528h393q34 1 56 -19t22 -49t-22 -48t-56 -20h-393z" />
    <glyph glyph-name="G" unicode="G" horiz-adv-x="1366" 
d="M909 821h281q125 0 125 -112q0 -721 -594 -721q-164 0 -291 62q-230 112 -311 405q-37 129 -37 271q0 289 156 509q76 106 200 171q124 64 268 64t265 -44t182 -95t61 -86t-20 -55q-41 -41 -111 5q-39 25 -81 57t-116 58t-180 26q-104 0 -199 -55q-170 -96 -237 -338
q-29 -103 -28 -214q0 -262 126 -434t365 -172q115 0 201 46t136 127q99 160 97 390h-258q-35 0 -57 20t-21 48q-1 29 21 48t57 19z" />
    <glyph glyph-name="H" unicode="H" horiz-adv-x="1366" 
d="M283 680v-598q0 -94 -74 -94t-74 94v1294q0 94 74 94t74 -94v-561h800v561q0 94 74 94t74 -94v-1294q0 -94 -74 -94t-74 94v598h-800z" />
    <glyph glyph-name="I" unicode="I" horiz-adv-x="417" 
d="M283 1376v-1294q0 -94 -74 -94t-74 94v1294q0 94 74 94t74 -94z" />
    <glyph glyph-name="J" unicode="J" horiz-adv-x="720" 
d="M586 1376v-1040q0 -160 -87 -254t-221 -94t-224 49q-89 49 -89 96q1 31 17 48q35 36 88 -4q89 -68 188 -66q180 0 180 225v1040q0 94 74 94t74 -94z" />
    <glyph glyph-name="K" unicode="K" horiz-adv-x="1138" 
d="M283 82q0 -94 -74 -94t-74 94v1294q0 94 74 94t74 -94v-542l653 587q53 49 87 49t50 -18q17 -18 17 -48t-33 -58l-639 -574l688 -655q33 -31 33 -62q-1 -31 -19 -49t-52 -18t-83 49l-702 670v-625z" />
    <glyph glyph-name="L" unicode="L" horiz-adv-x="757" 
d="M283 1376v-1241h385q34 0 56 -19t22 -48t-22 -49q-22 -19 -56 -19h-459q-31 0 -53 22t-21 52v1302q0 94 74 94t74 -94z" />
    <glyph glyph-name="M" unicode="M" horiz-adv-x="1708" 
d="M1294 1470q131 0 150 -114l174 -1168q20 -123 20 -133q0 -68 -69 -67q-37 0 -55 21q-17 22 -23 67l-182 1235h-4l-365 -1225q-16 -55 -36 -77q-20 -21 -51 -21q-32 0 -47 18t-28 57l-375 1244h-4l-182 -1231q-6 -45 -23 -67t-55 -21q-70 0 -69 67q0 10 20 133l174 1168
q18 115 150 114q84 0 112 -96l324 -1130h4l332 1130q29 96 108 96z" />
    <glyph glyph-name="N" unicode="N" horiz-adv-x="1363" 
d="M135 1384q0 88 81 86q40 0 79 -53l782 -1145h4v1104q0 94 74 94t74 -94v-1298q0 -90 -70 -90q-43 0 -80 53l-792 1159h-4v-1118q0 -94 -74 -94t-74 94v1302z" />
    <glyph glyph-name="O" unicode="O" horiz-adv-x="1400" 
d="M700 123q123 0 215 55q91 54 143 146q103 182 102 406q-1 223 -101 404q-51 91 -143 146t-216 55q-123 0 -215 -55q-159 -95 -219 -339q-51 -208 4 -437q56 -229 215 -326q92 -55 215 -55zM82 729q0 193 66 357t211 275q144 109 341 109t341 -110t211 -274
q67 -166 67 -358t-67 -356t-211 -275q-144 -109 -341 -109t-341 110q-145 110 -211 274t-66 357z" />
    <glyph glyph-name="P" unicode="P" horiz-adv-x="1062" 
d="M283 1323v-631h270q162 0 245 95t83 221t-83 220q-83 95 -245 95h-270zM283 557v-475q0 -94 -74 -94t-74 94v1298q0 78 92 78h351q265 0 387 -206q63 -104 63 -232q0 -197 -125 -330t-362 -133h-258z" />
    <glyph glyph-name="Q" unicode="Q" horiz-adv-x="1400" 
d="M862 458q0 24 20 41t51 17q32 0 60 -31l101 -106q66 145 66 364t-101 402q-51 92 -143 147q-92 56 -216 56q-123 0 -215 -56q-160 -96 -215 -327t0 -468q56 -236 215 -331q92 -55 215 -55q207 -1 324 151l-133 139q-29 33 -29 57zM1313 -12q-29 0 -60 32l-135 144
q-164 -176 -418 -176q-197 0 -341 110t-211 274q-66 166 -66 358t66 356t211 275q144 109 341 109t341 -110t211 -274q67 -165 67 -357q0 -266 -121 -463l152 -157q30 -31 30 -60t-19 -45t-48 -16z" />
    <glyph glyph-name="R" unicode="R" horiz-adv-x="1062" 
d="M283 1323v-549h256q145 0 224 67t79 195q0 287 -303 287h-256zM283 82q0 -94 -74 -94t-74 94v1298q0 78 92 78h322q205 0 323 -117t117 -287t-109 -286q-108 -117 -280 -117h-135l504 -538q29 -29 29 -60t-20 -48q-19 -17 -50 -17t-62 32l-583 627v-565z" />
    <glyph glyph-name="S" unicode="S" horiz-adv-x="946" 
d="M460 -12q-190 0 -304 55t-115 119q0 28 20 50q47 51 119 -13q20 -18 98 -47t144 -29q147 0 242 97q94 96 94 206t-72 172t-173 99q-101 36 -203 77t-173 121q-72 80 -71 203q0 168 122 268q123 100 299 104q117 0 225 -53t107 -106q0 -33 -19 -56t-45 -23t-108 52
q-83 51 -183 51q-100 1 -176 -67t-75 -147q0 -137 137 -202q61 -30 135 -57q74 -26 148 -58t135 -74t99 -114t38 -165q0 -201 -128 -332q-127 -131 -317 -131z" />
    <glyph glyph-name="T" unicode="T" horiz-adv-x="872" 
d="M510 1323v-1241q0 -94 -74 -94t-74 94v1241h-282q-34 0 -56 19q-22 18 -22 48t22 49t56 19h713q35 0 57 -19t20 -48q0 -29 -21 -49q-22 -19 -56 -19h-283z" />
    <glyph glyph-name="U" unicode="U" horiz-adv-x="1363" 
d="M135 496v880q0 94 74 94t74 -94v-862q0 -190 116 -291q117 -100 283 -100t283 100t116 291v862q0 94 74 94t74 -94v-880q0 -240 -160 -374t-387 -134t-387 134t-160 374z" />
    <glyph glyph-name="V" unicode="V" horiz-adv-x="1138" 
d="M1044 1470q34 0 54 -19t20 -47t-28 -106l-433 -1220q-31 -90 -88 -90t-88 90l-432 1220q-29 78 -29 106t20 47t54 19q53 0 72 -61l401 -1178h4l402 1178q18 61 71 61z" />
    <glyph glyph-name="W" unicode="W" horiz-adv-x="1671" 
d="M1614 1409q0 -23 -25 -152l-215 -1187q-8 -39 -39 -61t-69 -21q-88 0 -111 82l-317 1169h-4l-326 -1169q-23 -82 -111 -82q-39 0 -69 22t-39 60l-207 1187q-25 129 -25 152q0 61 68 61t80 -73l196 -1237h5l352 1241q20 69 78 69t77 -69l353 -1241h4l196 1237q12 73 80 73
t68 -61z" />
    <glyph glyph-name="X" unicode="X" horiz-adv-x="1216" 
d="M1036 1470q36 0 56 -17t20 -41t-29 -66l-393 -564l473 -669q29 -43 29 -67t-20 -41t-57 -17q-36 0 -71 53l-436 623l-436 -623q-35 -53 -71 -53t-56 17t-20 41t28 67l473 669l-393 564q-29 42 -29 66t20 41t57 17q36 0 71 -53l356 -518l357 518q35 53 71 53z" />
    <glyph glyph-name="Y" unicode="Y" horiz-adv-x="987" 
d="M2 1412q0 58 71 58q39 0 64 -43l357 -593l356 593q25 43 64 43q71 0 71 -57q0 -27 -45 -102l-373 -621v-608q1 -94 -73 -94t-74 94v608l-373 621q-45 75 -45 101z" />
    <glyph glyph-name="Z" unicode="Z" horiz-adv-x="1138" 
d="M1004 135q34 0 56 -19t22 -48t-22 -49q-22 -19 -56 -19h-824q-123 0 -123 82q0 35 60 127l731 1114h-684q-34 0 -56 19q-22 18 -22 48t22 49t56 19h821q70 0 70 -55q0 -33 -29 -74l-784 -1194h762z" />
    <glyph glyph-name="bracketleft" unicode="[" horiz-adv-x="454" 
d="M152 -45v1442q0 31 22 53t51 20h140q33 0 48 -19t15 -42t-15 -42t-48 -19h-66v-1344h66q33 0 48 -19t15 -42t-15 -42t-48 -20h-140q-31 -1 -52 21t-21 53z" />
    <glyph glyph-name="backslash" unicode="\" horiz-adv-x="833" 
d="M679 -12q-38 0 -61 53l-522 1321q-14 34 -14 56t17 37t55 15t61 -53l522 -1321q14 -35 15 -55q0 -53 -73 -53z" />
    <glyph glyph-name="bracketright" unicode="]" horiz-adv-x="454" 
d="M303 1397v-1442q1 -31 -21 -53t-53 -21h-139q-33 -1 -48 19t-15 43t15 42t48 19h66v1344h-66q-33 0 -48 19t-15 42t15 42t48 19h139q31 0 53 -21t21 -52z" />
    <glyph glyph-name="asciicircum" unicode="^" horiz-adv-x="1228" 
d="M614 1470q40 0 66 -45l432 -778q18 -31 18 -57q0 -53 -67 -53q-47 2 -84 71l-365 662l-364 -662q-37 -70 -84 -71q-68 0 -68 53q1 26 19 57l432 778q25 45 65 45z" />
    <glyph glyph-name="underscore" unicode="_" horiz-adv-x="1024" 
d="M1024 -256h-1024q-59 0 -59 51t59 51h1024q59 0 59 -51t-59 -51z" />
    <glyph glyph-name="grave" unicode="`" horiz-adv-x="417" 
d="M-16 1421q0 25 16 47t41 23q25 0 53 -12l283 -109q57 -20 57 -67q0 -25 -16 -48q-26 -38 -94 -10l-283 109q-57 20 -57 67z" />
    <glyph glyph-name="a" unicode="a" horiz-adv-x="1138" 
d="M240 545q0 -242 128 -365q74 -70 182 -70t180 70q126 123 126 364q0 240 -127 365q-72 70 -180 70q-153 0 -231 -131t-78 -303zM856 940v68q0 94 74 94t74 -94v-926q0 -94 -74 -94t-74 94v68h-6q-100 -162 -313 -162t-335 158t-122 386q0 229 113 394q55 80 146 128
t206 48q180 0 305 -162h6z" />
    <glyph glyph-name="b" unicode="b" horiz-adv-x="1138" 
d="M281 545q-1 -109 27 -202t101 -163t181 -70t182 70q128 122 127 364q0 241 -128 365q-73 70 -181 70t-182 -70q-72 -71 -100 -163t-27 -201zM135 82v1405q0 94 74 94t74 -94v-547h6q125 162 305 162q115 0 206 -48t146 -128q113 -164 113 -394q0 -229 -122 -387
q-122 -157 -335 -157t-313 162h-6v-68q0 -94 -74 -94t-74 94z" />
    <glyph glyph-name="c" unicode="c" horiz-adv-x="909" 
d="M549 123q77 0 145 29q68 28 84 28t34 -17q19 -17 19 -42q-1 -63 -83 -98t-199 -35q-217 0 -343 167t-126 390q0 141 55 266t170 208t241 83t208 -35q84 -35 84 -80q0 -82 -82 -82q-8 0 -68 31t-139 31q-143 0 -226 -130t-83 -295t85 -292t224 -127z" />
    <glyph glyph-name="d" unicode="d" horiz-adv-x="1138" 
d="M240 545q0 -242 128 -365q74 -70 182 -70t180 70q126 123 126 364q0 240 -127 365q-72 70 -180 70q-153 0 -231 -131t-78 -303zM856 940v547q0 94 74 94t74 -94v-1405q0 -94 -74 -94t-74 94v68h-6q-100 -162 -313 -162t-335 158t-122 386q0 229 113 394q55 80 146 128
t206 48q180 0 305 -162h6z" />
    <glyph glyph-name="e" unicode="e" horiz-adv-x="1062" 
d="M547 979q-139 1 -221 -113t-86 -264h614q-4 150 -86 264t-221 113zM913 479h-673q4 -149 95 -259t228 -109q80 1 146 27q65 26 99 57t66 57t54 27q70 0 69 -72q0 -61 -126 -140t-295 -79q-170 0 -284 84q-212 156 -212 473q0 223 126 390t344 167t341 -156t123 -377
q-1 -90 -101 -90z" />
    <glyph glyph-name="f" unicode="f" horiz-adv-x="493" 
d="M319 967v-885q1 -94 -73 -94t-74 94v885h-96q-33 0 -48 19t-16 42q0 23 16 42t48 20h96v280q0 104 54 158t141 53h75q100 0 101 -68q0 -68 -78 -67h-68q-35 0 -57 -20t-21 -48v-288h132q33 0 48 -20t15 -42q0 -23 -15 -42t-48 -19h-132z" />
    <glyph glyph-name="g" unicode="g" horiz-adv-x="1138" 
d="M240 545q0 -109 28 -202t100 -163q73 -70 181 -69q139 0 224 102t85 227v209q0 125 -85 227t-209 103q-124 0 -196 -70q-72 -71 -100 -163t-28 -201zM856 942v66q0 94 74 94t74 -94v-957q0 -237 -140 -365t-336 -128q-154 0 -286 68t-131 128q0 76 73 76q23 0 70 -34
q142 -103 273 -103q130 0 230 87q99 87 99 259v115h-4q-94 -166 -311 -166t-339 158t-122 386q0 229 113 394q55 80 146 128t195 48t186 -45q83 -45 132 -115h4z" />
    <glyph glyph-name="h" unicode="h" 
d="M283 682v-600q0 -94 -74 -94t-74 94v1405q0 94 74 94t74 -94v-533h4q102 148 272 148t287 -102t117 -287v-631q0 -94 -74 -94t-74 94v635q0 115 -72 183q-73 68 -189 67q-116 0 -194 -76t-77 -209z" />
    <glyph glyph-name="i" unicode="i" horiz-adv-x="417" 
d="M109 1370q0 41 29 71q30 29 71 29t71 -30t30 -70q0 -41 -30 -71q-30 -29 -71 -29t-71 29q-29 30 -29 71zM283 1008v-926q0 -94 -74 -94t-74 94v926q0 94 74 94t74 -94z" />
    <glyph glyph-name="j" unicode="j" horiz-adv-x="417" 
d="M109 1370q0 41 29 71q30 29 71 29t71 -30t30 -70q0 -41 -30 -71q-30 -29 -71 -29t-71 29q-29 30 -29 71zM283 1006v-1354q0 -94 -74 -94t-74 94v1354q0 96 74 96t74 -96z" />
    <glyph glyph-name="k" unicode="k" horiz-adv-x="909" 
d="M283 82q0 -94 -74 -94t-74 94v1405q0 94 74 94t74 -94v-782l440 356q49 41 75 41t44 -18t18 -54q0 -35 -43 -67l-442 -342l489 -478q89 -86 38 -137q-17 -18 -46 -18q-30 0 -54 16t-73 66l-446 450v-438z" />
    <glyph glyph-name="l" unicode="l" horiz-adv-x="417" 
d="M283 1487v-1405q0 -94 -74 -94t-74 94v1405q0 94 74 94t74 -94z" />
    <glyph glyph-name="m" unicode="m" horiz-adv-x="1703" 
d="M926 682v-600q0 -94 -74 -94t-74 94v600q0 285 -246 285q-98 0 -174 -77t-75 -208v-600q0 -94 -74 -94t-74 94v926q0 94 74 94t74 -94v-54h4q102 147 284 148q96 0 173 -51t114 -140q53 91 141 141t179 50q158 0 274 -102t117 -287v-631q0 -94 -74 -94t-74 94v600
q0 285 -245 285q-98 0 -174 -77t-76 -208z" />
    <glyph glyph-name="n" unicode="n" 
d="M283 682v-600q0 -94 -74 -94t-74 94v926q0 94 74 94t74 -94v-54h4q102 148 272 148t287 -102t117 -287v-631q0 -94 -74 -94t-74 94v635q0 115 -72 183q-73 68 -189 67q-116 0 -194 -76t-77 -209z" />
    <glyph glyph-name="o" unicode="o" 
d="M1018 536q0 -234 -122 -391t-347 -157t-347 158t-122 390q0 234 122 400t347 166t347 -166t122 -400zM240 545q0 -109 28 -202t100 -163q74 -70 182 -70t180 70q128 122 128 364q0 241 -128 365q-74 70 -182 70t-180 -70q-72 -71 -100 -163t-28 -201z" />
    <glyph glyph-name="p" unicode="p" horiz-adv-x="1138" 
d="M281 545q-1 -109 27 -202t101 -163t181 -70t182 70q128 122 127 364q0 241 -128 365q-73 70 -181 70t-182 -70q-72 -71 -100 -163t-27 -201zM135 -348v1356q0 94 74 94t74 -94v-68h6q100 162 313 162t335 -158t122 -387t-113 -393q-55 -80 -146 -128t-206 -48
q-180 0 -305 162h-6v-498q0 -94 -74 -94t-74 94z" />
    <glyph glyph-name="q" unicode="q" horiz-adv-x="1138" 
d="M548 979q-108 0 -180 -70q-130 -125 -129 -366t129 -363q74 -70 182 -70t180 70q128 122 128 364q0 241 -128 365q-74 70 -182 70zM80 545q0 241 122 399t335 158t313 -162h6v68q0 94 74 94t74 -94v-1356q0 -94 -74 -94t-74 94v498h-6q-125 -162 -305 -162
q-115 0 -206 48q-165 87 -230 305q-29 98 -29 204z" />
    <glyph glyph-name="r" unicode="r" horiz-adv-x="645" 
d="M283 612v-530q0 -94 -74 -94t-74 94v926q0 94 74 94t74 -94v-103h4q39 90 104 144q66 53 125 53t84 -24t25 -56q0 -57 -87 -76t-171 -90q-84 -70 -84 -244z" />
    <glyph glyph-name="s" unicode="s" horiz-adv-x="909" 
d="M90 815q0 127 104 207t250 80q144 0 261 -53t112 -115q0 -72 -74 -72q-20 0 -61 30q-119 87 -211 87t-157 -40q-64 -40 -64 -122t100 -121l223 -90q131 -53 202 -120q71 -68 71 -196t-114 -215t-282 -87t-284 72t-115 135q0 20 23 46q22 25 48 25t68 -39
q126 -116 246 -116q119 0 185 54q65 54 65 126q0 71 -39 107t-112 67l-254 104q-91 37 -141 95t-50 151z" />
    <glyph glyph-name="t" unicode="t" horiz-adv-x="491" 
d="M319 967v-885q1 -94 -73 -94t-74 94v885h-96q-33 0 -48 19t-16 42q0 23 16 42t48 20h96v239q0 96 74 96t73 -96v-239h97q33 0 48 -20t15 -42q0 -23 -15 -42t-48 -19h-97z" />
    <glyph glyph-name="u" unicode="u" 
d="M135 358v650q0 94 74 94t74 -94v-613q-1 -137 69 -211t197 -74t197 74t69 211v613q0 94 74 94t74 -94v-650q0 -172 -117 -271t-297 -99t-297 99t-117 271z" />
    <glyph glyph-name="v" unicode="v" horiz-adv-x="872" 
d="M780 1102q29 0 54 -27t6 -84l-328 -948q-18 -55 -76 -55t-76 55l-327 948q-8 23 -8 47t19 43q19 20 48 21q55 0 78 -68l264 -790h4l264 790q23 68 78 68z" />
    <glyph glyph-name="w" unicode="w" horiz-adv-x="1515" 
d="M759 1102q62 0 83 -68l252 -809h4l254 809q23 68 82 68q31 0 50 -20t19 -42q0 -20 -12 -61l-311 -926q-23 -66 -82 -65q-30 0 -52 19t-38 73l-248 792h-4l-256 -819q-20 -66 -82 -65q-24 0 -48 17t-34 48l-311 926q-13 41 -13 61t20 41q20 20 50 21q59 0 82 -68l254 -809
h4l252 809q23 68 85 68z" />
    <glyph glyph-name="x" unicode="x" horiz-adv-x="946" 
d="M94 -12q-35 0 -54 19q-44 44 7 110l340 465l-295 391q-51 65 -7 109q19 20 54 20t72 -51l262 -359l262 359q37 51 72 51t54 -20q44 -45 -7 -109l-295 -391l340 -465q27 -35 27 -63t-20 -47t-54 -19q-35 0 -72 51l-307 432l-307 -432q-37 -51 -72 -51z" />
    <glyph glyph-name="y" unicode="y" horiz-adv-x="872" 
d="M25 1038q0 24 19 43q19 20 48 21q55 0 78 -68l264 -790h4l264 790q23 68 78 68q29 0 54 -27t6 -84l-471 -1360q-25 -74 -80 -73q-31 0 -49 18q-34 34 -7 102l134 351l-334 962q-8 23 -8 47z" />
    <glyph glyph-name="z" unicode="z" horiz-adv-x="909" 
d="M776 135q35 0 57 -19q21 -19 21 -48t-21 -49q-22 -19 -57 -19h-633q-86 0 -86 59q0 39 33 86l547 809h-479q-35 0 -57 20t-21 48q0 29 21 48q22 19 57 20h587q82 0 82 -56q1 -43 -32 -90l-547 -809h528z" />
    <glyph glyph-name="braceleft" unicode="{" horiz-adv-x="528" 
d="M195 1010v239q0 123 51 172t149 49h60q33 0 49 -17t16 -37t-16 -38t-49 -18h-43q-82 0 -82 -158v-225q0 -133 -56 -208t-106 -91v-4q49 -16 105 -91t57 -208v-225q0 -158 82 -158h43q33 0 49 -18t16 -37t-16 -37t-49 -19h-60q-98 0 -149 49t-51 172v240q0 147 -30 213
t-106 66q-20 0 -35 16t-16 39q0 23 16 39t35 16q76 0 106 66t30 213z" />
    <glyph glyph-name="bar" unicode="|" horiz-adv-x="454" 
d="M160 -512v2048q0 34 19 56t48 22t48 -22t20 -56v-2048q1 -34 -19 -56t-49 -22t-48 22t-19 56z" />
    <glyph glyph-name="braceright" unicode="}" horiz-adv-x="528" 
d="M199 977v225q0 158 -82 158h-43q-33 0 -49 17q-36 38 0 76q16 17 49 17h59q97 0 149 -49t52 -172v-239q0 -147 30 -213t105 -66q19 0 35 -16t16 -39t-15 -39t-36 -16q-75 0 -105 -66t-30 -213v-240q0 -123 -51 -172t-150 -49h-59q-33 -1 -49 17q-36 39 0 76q16 17 49 18
h43q82 0 82 158v225q0 133 56 208t105 91v4q-49 16 -105 91t-56 208z" />
    <glyph glyph-name="asciitilde" unicode="~" horiz-adv-x="1228" 
d="M1087 604q-1 -80 -83 -152t-178 -73q-96 0 -224 77q-127 76 -180 76q-92 -1 -126 -73q-13 -29 -37 -53q-25 -24 -53 -28q-28 -3 -46 14t-19 50q0 80 83 153t182 73t247 -91q89 -54 121 -59q30 -4 58 -4t58 23t43 51t37 54q24 24 52 27t47 -15q18 -18 18 -50z" />
    <glyph glyph-name="uni00A0" unicode="&#xa0;" horiz-adv-x="491" 
 />
    <glyph glyph-name="exclamdown" unicode="&#xa1;" horiz-adv-x="569" 
d="M358 582v-869q0 -94 -74 -94t-73 94v869q-1 94 73 94t74 -94zM285 1102q37 0 65 -28t29 -65q0 -38 -29 -67q-30 -29 -66 -29t-65 29t-29 67q0 37 29 65t66 28z" />
    <glyph glyph-name="cent" unicode="&#xa2;" horiz-adv-x="909" 
d="M481 -125v115q-188 28 -297 190q-108 162 -108 365t108 367t297 190v112q0 41 37 41t37 -41v-112q127 -2 203 -37t76 -88q0 -63 -66 -64q-20 0 -87 32t-126 32v-866q73 1 139 29t78 28q55 0 55 -59q0 -47 -90 -84t-182 -37v-113q0 -41 -37 -41t-37 41zM236 574
q0 -124 22 -209q22 -86 80 -158q57 -72 143 -90v862q-125 -29 -185 -155t-60 -250z" />
    <glyph glyph-name="sterling" unicode="&#xa3;" horiz-adv-x="1214" 
d="M229 0q-77 0 -77 66q0 34 51 84t89 96t72 121q59 132 11 307h-223q-35 0 -57 19t-21 48q0 29 21 49q22 19 57 19h180q-66 115 -89 174q-24 59 -24 125q0 162 119 262q118 100 314 100t326 -124t130 -248q0 -72 -66 -72q-49 0 -65 51q-90 258 -334 258q-115 0 -189 -61
t-75 -184q0 -86 102 -281h250q35 0 57 -19q22 -18 21 -48q0 -30 -22 -49t-56 -19h-209q23 -74 23 -162q0 -180 -195 -377h713q35 0 57 -19t21 -48q0 -28 -22 -48t-56 -20h-834z" />
    <glyph glyph-name="currency" unicode="&#xa4;" 
d="M176 729q0 -161 108 -273t266 -112t264 112q108 112 108 274t-108 272q-108 112 -266 112t-264 -112q-108 -112 -108 -273zM41 730q0 192 104 310l-65 66q-33 34 -33 60q-1 26 17 46t47 20t65 -36l66 -66q125 106 307 106t307 -106l66 66q38 37 66 37q28 -1 45 -21
q42 -51 -15 -106l-66 -66q104 -120 104 -312t-104 -310l66 -66q33 -34 33 -60q1 -26 -17 -46t-47 -20t-65 36l-66 66q-125 -106 -307 -106t-307 106l-66 -66q-38 -37 -66 -37q-28 1 -45 21q-41 50 15 106l65 66q-104 120 -104 312z" />
    <glyph glyph-name="yen" unicode="&#xa5;" 
d="M481 61v328h-288q-33 -1 -49 19t-15 43q0 23 15 42t49 19h288v156h-288q-33 0 -49 19q-15 19 -15 42t15 42t49 20h227l-311 520q-45 75 -45 101t16 42t52 16t61 -43l356 -598l356 598q25 43 61 43q68 0 68 -57q0 -27 -45 -102l-309 -520h225q33 1 48 -19q34 -44 0 -85
q-15 -19 -48 -19h-289v-156h289q33 0 48 -19q34 -43 0 -84q-15 -19 -48 -20h-289v-328q0 -31 -20 -53t-47 -20q-27 0 -47 21t-21 52z" />
    <glyph glyph-name="brokenbar" unicode="&#xa6;" horiz-adv-x="454" 
d="M160 -281v562q0 35 19 57t48 20q29 0 48 -22t20 -55v-562q1 -35 -19 -57t-49 -20q-29 0 -48 21t-19 56zM160 743v562q0 35 19 57t48 20q29 0 48 -22t20 -55v-562q1 -35 -19 -57t-49 -20q-29 0 -48 21t-19 56z" />
    <glyph glyph-name="section" unicode="&#xa7;" horiz-adv-x="1138" 
d="M219 595q0 -89 34 -139t120 -96l350 -180q74 35 135 116t62 165q0 141 -144 219l-311 160q-98 -32 -172 -94t-74 -151zM973 -124q0 -154 -124 -236q-125 -82 -275 -82q-278 0 -375 127q-80 102 -80 194q0 27 25 47q26 20 57 21q68 0 78 -92q6 -63 75 -113q70 -49 184 -49
t195 42q80 42 80 132q0 65 -33 101t-131 87l-305 156q-272 139 -272 354q0 135 65 206q66 71 199 134q-160 102 -160 240q0 111 68 189q122 139 346 136q160 0 282 -78t123 -218q0 -47 -19 -75t-48 -28q-72 0 -80 96q-6 68 -79 118t-185 50t-188 -49q-75 -49 -72 -131
q0 -35 30 -78q31 -42 92 -73l334 -166q141 -72 216 -154t71 -221q-4 -197 -231 -340q137 -93 137 -247z" />
    <glyph glyph-name="dieresis" unicode="&#xa8;" horiz-adv-x="417" 
d="M291 1311q0 41 30 71q31 30 71 29q40 0 70 -30q30 -31 30 -71t-30 -70t-71 -30t-71 30t-29 71zM-74 1311q0 41 30 71t71 29q41 0 71 -30q30 -31 29 -71q0 -40 -30 -70q-31 -30 -71 -30t-70 30t-30 71z" />
    <glyph glyph-name="copyright" unicode="&#xa9;" horiz-adv-x="1638" 
d="M213 729q0 -256 179 -437t427 -181t427 181t179 437t-179 437q-179 182 -427 182t-427 -182t-179 -437zM78 729q0 307 217 524t524 217t524 -217t217 -524t-216 -524q-218 -217 -525 -217t-524 217t-217 524zM526 720q0 -148 83 -242q83 -95 222 -95q74 0 124 33
q50 34 72 72t48 71q27 33 58 33q51 0 51 -55q0 -81 -98 -179t-255 -98q-197 0 -319 131t-121 330q0 199 117 328t298 129q182 0 286 -94t104 -161q0 -69 -57 -69t-96 71q-17 29 -41 59q-56 69 -188 70q-132 2 -210 -92t-78 -242z" />
    <glyph glyph-name="ordfeminine" unicode="&#xaa;" horiz-adv-x="739" 
d="M352 899q185 0 185 237t-185 236q-86 0 -129 -70t-43 -164q0 -93 44 -166t128 -73zM659 1413v-555q0 -25 -17 -41t-45 -16t-44 16t-16 41v47h-5q-59 -104 -191 -104t-214 101q-82 102 -82 234t82 233t210 101t195 -88h5v31q0 25 16 41t44 16t45 -16t17 -41z" />
    <glyph glyph-name="guillemotleft" unicode="&#xab;" horiz-adv-x="796" 
d="M339 954q34 0 51 -16q36 -34 -3 -96l-172 -297l172 -297q37 -65 3 -96q-17 -16 -51 -16t-67 57l-166 292q-22 43 -22 59t22 60l166 293q33 57 67 57zM389 544q0 16 23 60l166 293q32 57 66 57t51 -16q36 -34 -3 -96l-172 -297l172 -297q37 -65 3 -96q-17 -16 -51 -16
t-66 57l-166 292q-23 43 -23 59z" />
    <glyph glyph-name="logicalnot" unicode="&#xac;" horiz-adv-x="1228" 
d="M997 297v358h-823q-34 -1 -56 19t-22 49t22 48t56 20h856q57 0 80 -24t23 -73v-397q1 -35 -19 -57t-49 -21q-29 -1 -49 21t-19 57z" />
    <glyph glyph-name="uni00AD" unicode="&#xad;" horiz-adv-x="720" 
d="M162 612h397q35 0 57 -19t21 -48q0 -29 -22 -48t-56 -20h-397q-35 -1 -57 19t-21 49q0 29 21 48q22 19 57 19z" />
    <glyph glyph-name="registered" unicode="&#xae;" horiz-adv-x="1638" 
d="M213 729q0 -256 179 -437t427 -181t427 181t179 437t-179 437q-179 182 -427 182t-427 -182t-179 -437zM78 729q0 307 217 524t524 217t524 -217t217 -524t-216 -524q-218 -217 -525 -217t-524 217t-217 524zM664 1049v-285h151q175 0 210 66q17 32 17 81q0 137 -194 138
h-184zM664 666v-308q0 -36 -16 -60t-46 -24q-29 0 -45 24t-16 60v754q0 35 39 35h288q297 0 297 -242q0 -109 -58 -166t-149 -69l181 -281q27 -41 27 -62t-18 -37q-17 -16 -51 -16t-65 50l-209 342h-159z" />
    <glyph glyph-name="macron" unicode="&#xaf;" horiz-adv-x="417" 
d="M401 1223h-385q-94 -1 -94 73t94 74h385q94 0 95 -74q-1 -73 -95 -73z" />
    <glyph glyph-name="degree" unicode="&#xb0;" horiz-adv-x="819" 
d="M215 1178q0 -80 57 -138q58 -58 138 -57q80 0 137 57q57 58 57 138t-57 137t-137 57t-138 -57t-57 -137zM117 1178q0 124 85 208t208 84q124 0 208 -85t84 -207t-85 -208q-85 -85 -207 -85t-208 85q-85 85 -85 208z" />
    <glyph glyph-name="plusminus" unicode="&#xb1;" horiz-adv-x="1228" 
d="M1055 0h-881q-34 0 -56 19t-22 49t22 48q22 19 56 19h881q35 0 57 -19t21 -48q1 -28 -21 -48t-57 -20zM547 692v266q0 35 19 57q19 21 48 21t49 -21q19 -22 19 -57v-266h373q35 0 57 -19t21 -48q0 -29 -22 -48t-56 -20h-373v-266q0 -35 -19 -57t-49 -22t-48 22
q-19 22 -19 57v266h-373q-34 -1 -56 19t-22 49t22 48t56 19h373z" />
    <glyph glyph-name="twosuperior" unicode="&#xb2;" horiz-adv-x="712" 
d="M592 707q23 -1 37 -17t14 -39t-14 -39t-37 -16h-436q-57 0 -58 43q0 27 25 59l283 385q82 109 82 164t-39 84t-97 29q-135 0 -159 -160q-8 -53 -66 -53q-25 0 -41 14t-16 39q0 121 74 196q75 74 208 74t202 -58t69 -145t-91 -206l-272 -354h332z" />
    <glyph glyph-name="threesuperior" unicode="&#xb3;" horiz-adv-x="712" 
d="M590 1251q0 -133 -109 -188q160 -59 160 -211q0 -123 -77 -196q-77 -72 -213 -72t-208 62t-71 124q0 27 17 41t40 14q49 0 72 -55q31 -76 147 -76q66 0 112 44t46 120q0 121 -141 131q-61 6 -62 45q0 27 16 38t56 22q80 20 80 143t-117 123q-45 0 -75 -27t-34 -69
q-2 -57 -65 -58q-23 0 -40 16t-18 42q0 80 62 143t182 63t180 -62t60 -157z" />
    <glyph glyph-name="acute" unicode="&#xb4;" horiz-adv-x="417" 
d="M378 1491q24 0 40 -23t16 -47q0 -47 -57 -67l-283 -109q-30 -12 -54 -12q-24 1 -40 23t-16 47q0 47 57 67l283 109q30 12 54 12z" />
    <glyph glyph-name="mu" unicode="&#xb5;" 
d="M135 -348v1356q0 94 74 94t74 -94v-613q-1 -137 69 -211t197 -74t197 74t69 211v613q0 94 74 94t74 -94v-947q0 -31 -22 -53q-23 -22 -53 -20q-30 0 -52 22t-21 51q-106 -73 -264 -73t-264 114h-4v-450q0 -94 -74 -94t-74 94z" />
    <glyph glyph-name="paragraph" unicode="&#xb6;" horiz-adv-x="1228" 
d="M528 -365v1049q-186 0 -308 110t-122 288t123 277t344 99h375q68 0 90 -20t23 -86v-1717q1 -35 -19 -57t-49 -20q-29 0 -48 22t-19 55v1700h-254v-1700q0 -35 -20 -57t-48 -20q-28 0 -48 21t-20 56z" />
    <glyph glyph-name="periodcentered" unicode="&#xb7;" horiz-adv-x="491" 
d="M152 653q0 37 28 66q29 29 66 29q38 0 66 -29t28 -66t-29 -65t-65 -29q-36 1 -66 29q-28 28 -28 65z" />
    <glyph glyph-name="cedilla" unicode="&#xb8;" horiz-adv-x="417" 
d="M272 -78q42 0 76 -34q35 -34 35 -96t-58 -108t-149 -46q-154 0 -153 73q0 49 53 49q16 0 50 -12t70 -12q64 0 64 52t-90 52q-45 0 -61 4q-36 9 14 93l41 63h92l-53 -80l4 -4q23 6 65 6z" />
    <glyph glyph-name="onesuperior" unicode="&#xb9;" horiz-adv-x="468" 
d="M205 1348h-115q-25 0 -40 15t-15 40t15 40t40 15h182q25 0 40 -14t16 -35v-764q0 -61 -62 -61t-61 61v703z" />
    <glyph glyph-name="ordmasculine" unicode="&#xba;" horiz-adv-x="712" 
d="M45 1137q0 135 83 234t229 99q147 0 229 -100t82 -235t-83 -235t-229 -99t-228 101q-83 100 -83 235zM180 1137q0 -92 45 -165t131 -73t131 72t45 165q0 92 -45 164t-131 72t-131 -72t-45 -163z" />
    <glyph glyph-name="guillemotright" unicode="&#xbb;" horiz-adv-x="796" 
d="M713 545q0 -16 -23 -60l-166 -292q-32 -57 -66 -57t-51 16q-35 34 3 96l172 297l-172 297q-37 64 -3 96q17 16 51 16t66 -57l166 -293q23 -43 23 -59zM408 545q0 -16 -23 -60l-166 -292q-33 -57 -67 -57t-51 16t-17 38t20 58l172 297l-172 297q-20 35 -20 57q0 23 17 39
t51 16t67 -57l166 -293q23 -43 23 -59z" />
    <glyph glyph-name="onequarter" unicode="&#xbc;" horiz-adv-x="1648" 
d="M258 1348h-115q-25 0 -40 15t-15 40t15 40t40 15h183q25 0 40 -14t15 -35v-764q1 -61 -61 -61t-62 61v703zM995 1491q49 0 52 -47q0 -18 -19 -64l-532 -1362q-20 -51 -56 -51q-66 0 -65 47q0 19 18 64l533 1362q20 51 69 51zM1313 317v459h-4l-287 -459h291zM1436 207
v-162q0 -23 -16 -40t-46 -17q-29 0 -45 17t-16 40v162h-361q-59 0 -59 51q0 25 29 70l307 483q41 63 117 63q90 0 90 -92v-465h45q23 0 37 -15t14 -40t-14 -40t-37 -15h-45z" />
    <glyph glyph-name="onehalf" unicode="&#xbd;" horiz-adv-x="1648" 
d="M1434 111q22 -1 36 -17t14 -39t-14 -39t-36 -16h-437q-57 0 -57 43q0 27 25 59l282 385q82 109 82 164t-39 84t-96 29q-135 0 -160 -160q-8 -53 -65 -53q-25 0 -41 14t-17 39q0 121 75 196q75 74 208 74t202 -58q149 -125 -22 -351l-272 -354h332zM258 1348h-115
q-25 0 -40 15t-15 40t15 40t40 15h183q25 0 40 -14t15 -35v-764q1 -61 -61 -61t-62 61v703zM995 1491q49 0 52 -47q0 -18 -19 -64l-532 -1362q-20 -51 -56 -51q-66 0 -65 47q0 19 18 64l533 1362q20 51 69 51z" />
    <glyph glyph-name="threequarters" unicode="&#xbe;" horiz-adv-x="1648" 
d="M551 1251q0 -133 -109 -188q160 -59 160 -211q0 -123 -77 -196q-77 -72 -213 -72t-208 62t-71 124q0 27 17 41t40 14q49 0 72 -55q31 -76 147 -76q66 0 112 44t46 120q0 121 -141 131q-61 6 -62 45q0 27 16 38t56 22q80 20 80 143t-117 123q-45 0 -75 -27t-34 -69
q-2 -57 -65 -58q-23 0 -40 16t-17 42q0 80 61 143t182 63t181 -62q59 -63 59 -157zM1084 1491q66 0 65 -47q0 -18 -19 -64l-532 -1362q-20 -51 -55 -51q-64 0 -66 47q1 19 19 64l532 1362q20 51 56 51zM1313 317v459h-4l-287 -459h291zM1436 207v-162q0 -23 -16 -40t-46 -17
q-29 0 -45 17t-16 40v162h-361q-59 0 -59 51q0 25 29 70l307 483q41 63 117 63q90 0 90 -92v-465h45q23 0 37 -15t14 -40t-14 -40t-37 -15h-45z" />
    <glyph glyph-name="questiondown" unicode="&#xbf;" horiz-adv-x="909" 
d="M571 1008q1 -39 -27 -67t-67 -28t-67 28t-27 67q0 38 28 66q29 28 67 28t66 -28t27 -66zM551 586v-260q0 -44 -14 -60t-66 -26q-256 -51 -256 -256q0 -106 76 -168t167 -62t162 43t84 105t29 80t53 18q68 0 68 -78q0 -131 -116 -217t-286 -86t-283 100q-114 101 -114 267
q1 166 95 255t253 128v217q0 94 74 94t74 -94z" />
    <glyph glyph-name="Agrave" unicode="&#xc0;" horiz-adv-x="1253" 
d="M459 1819q25 0 53 -13l283 -108q57 -20 57 -68q0 -26 -16 -48q-27 -38 -95 -9l-282 108q-57 20 -58 68q1 25 17 47t41 23zM932 453l-303 825h-4l-303 -825h610zM29 45q0 25 14 61l469 1258q39 106 115 106q35 0 59 -19t34 -37q9 -18 21 -50l469 -1258q28 -74 -3 -102
q-17 -16 -50 -16t-50 17t-30 50l-96 262h-709l-96 -262q-12 -25 -29 -46q-16 -21 -50 -21t-51 16t-17 41z" />
    <glyph glyph-name="Aacute" unicode="&#xc1;" horiz-adv-x="1253" 
d="M852 1749q0 -47 -57 -68l-283 -108q-30 -12 -54 -12q-24 1 -40 23t-17 46q1 48 58 68l282 108q68 28 95 -10q16 -23 16 -47zM932 453l-303 825h-4l-303 -825h610zM29 45q0 25 14 61l469 1258q39 106 115 106q35 0 59 -19t34 -37q9 -18 21 -50l469 -1258q28 -74 -3 -102
q-17 -16 -50 -16t-50 17t-30 50l-96 262h-709l-96 -262q-12 -25 -29 -46q-16 -21 -50 -21t-51 16t-17 41z" />
    <glyph glyph-name="Acircumflex" unicode="&#xc2;" horiz-adv-x="1253" 
d="M946 1614q0 -23 -17 -42q-30 -33 -98 -9l-204 92l-205 -92q-70 -23 -97 9q-17 19 -18 42q0 53 60 76l260 100l260 -100q59 -23 59 -76zM932 453l-303 825h-4l-303 -825h610zM29 45q0 25 14 61l469 1258q39 106 115 106q35 0 59 -19t34 -37q9 -18 21 -50l469 -1258
q28 -74 -3 -102q-17 -16 -50 -16t-50 17t-30 50l-96 262h-709l-96 -262q-12 -25 -29 -46q-16 -21 -50 -21t-51 16t-17 41z" />
    <glyph glyph-name="Atilde" unicode="&#xc3;" horiz-adv-x="1253" 
d="M767 1585q-54 1 -138 27t-119 26t-65 -24t-54 -25q-59 0 -59 56q0 49 50 89t104 40t139 -28q84 -28 119 -28q34 0 64 26t54 25q59 0 60 -67q0 -41 -50 -79t-105 -38zM932 453l-303 825h-4l-303 -825h610zM29 45q0 25 14 61l469 1258q39 106 115 106q35 0 59 -19t34 -37
q9 -18 21 -50l469 -1258q28 -74 -3 -102q-17 -16 -50 -16t-50 17t-30 50l-96 262h-709l-96 -262q-12 -25 -29 -46q-16 -21 -50 -21t-51 16t-17 41z" />
    <glyph glyph-name="Adieresis" unicode="&#xc4;" horiz-adv-x="1253" 
d="M709 1638q0 41 29 71q30 30 71 30t71 -30t30 -71q0 -40 -30 -70t-71 -30t-71 30t-29 70zM344 1638q0 41 30 71t70 30t71 -30q30 -30 30 -71q0 -40 -30 -70t-71 -30q-40 0 -70 30t-30 70zM932 453l-303 825h-4l-303 -825h610zM29 45q0 25 14 61l469 1258q39 106 115 106
q35 0 59 -19t34 -37q9 -18 21 -50l469 -1258q28 -74 -3 -102q-17 -16 -50 -16t-50 17t-30 50l-96 262h-709l-96 -262q-12 -25 -29 -46q-16 -21 -50 -21t-51 16t-17 41z" />
    <glyph glyph-name="Aring" unicode="&#xc5;" horiz-adv-x="1253" 
d="M522 1698q0 -43 31 -74t74 -31t73 31t31 74q0 43 -31 74q-32 30 -74 30t-73 -30t-31 -74zM436 1698q0 78 56 134t135 56q78 0 134 -56t56 -134t-56 -134t-134 -56q-79 0 -135 56t-56 134zM932 453l-303 825h-4l-303 -825h610zM29 45q0 25 14 61l469 1258q39 106 115 106
q35 0 59 -19t34 -37q9 -18 21 -50l469 -1258q28 -74 -3 -102q-17 -16 -50 -16t-50 17t-30 50l-96 262h-709l-96 -262q-12 -25 -29 -46q-16 -21 -50 -21t-51 16t-17 41z" />
    <glyph glyph-name="AE" unicode="&#xc6;" horiz-adv-x="1517" 
d="M780 451v835h-4l-414 -835h418zM928 659v-524h446q35 0 57 -19q21 -19 21 -48t-21 -49q-22 -19 -57 -19h-520q-30 0 -52 24t-22 60v244h-477l-123 -250q-49 -90 -100 -90q-23 0 -40 15t-17 42t36 100l635 1276q18 37 54 37h606q34 0 56 -19t22 -48t-22 -49t-56 -19h-424
v-528h405q35 1 57 -19t22 -49t-22 -48t-57 -20h-407z" />
    <glyph glyph-name="Ccedilla" unicode="&#xc7;" horiz-adv-x="1214" 
d="M772 -78q43 0 78 -34t35 -96q-1 -62 -59 -108t-148 -46q-154 0 -154 73q0 49 54 49q16 0 50 -12t70 -12q64 0 64 52t-90 52q-45 0 -62 4q-16 4 -16 22t31 71l34 55q-190 16 -323 120q-254 198 -254 597q0 435 282 649q148 112 336 112t323 -78q136 -78 136 -141
q0 -37 -20 -57q-21 -20 -43 -20t-68 40t-127 80q-80 41 -186 41q-145 0 -257 -96q-112 -97 -164 -237t-52 -293q0 -248 126 -417t373 -169q88 1 161 23t110 49q36 27 68 49t48 22q61 0 62 -73q0 -55 -132 -128t-308 -75l-45 -70l4 -4q20 6 63 6z" />
    <glyph glyph-name="Egrave" unicode="&#xc8;" horiz-adv-x="909" 
d="M287 1819q25 0 53 -13l283 -108q57 -20 57 -68q0 -26 -16 -48q-27 -38 -95 -9l-282 108q-57 20 -58 68q1 25 17 47t41 23zM283 659v-524h446q35 0 57 -19t21 -48q0 -28 -22 -48t-56 -20h-504q-90 0 -90 78v1302q0 78 90 78h484q35 0 57 -19t20 -48q0 -29 -21 -49
q-22 -19 -56 -19h-424v-528h405q34 1 56 -19t22 -49t-22 -48t-56 -20h-407z" />
    <glyph glyph-name="Eacute" unicode="&#xc9;" horiz-adv-x="909" 
d="M680 1749q0 -47 -57 -68l-283 -108q-30 -12 -54 -12q-24 1 -40 23t-17 46q1 48 58 68l282 108q68 28 95 -10q16 -23 16 -47zM283 659v-524h446q35 0 57 -19t21 -48q0 -28 -22 -48t-56 -20h-504q-90 0 -90 78v1302q0 78 90 78h484q35 0 57 -19t20 -48q0 -29 -21 -49
q-22 -19 -56 -19h-424v-528h405q34 1 56 -19t22 -49t-22 -48t-56 -20h-407z" />
    <glyph glyph-name="Ecircumflex" unicode="&#xca;" horiz-adv-x="909" 
d="M774 1614q0 -23 -17 -42q-30 -33 -98 -9l-204 92l-205 -92q-70 -23 -97 9q-17 19 -18 42q0 53 60 76l260 100l260 -100q59 -23 59 -76zM283 659v-524h446q35 0 57 -19t21 -48q0 -28 -22 -48t-56 -20h-504q-90 0 -90 78v1302q0 78 90 78h484q35 0 57 -19t20 -48
q0 -29 -21 -49q-22 -19 -56 -19h-424v-528h405q34 1 56 -19t22 -49t-22 -48t-56 -20h-407z" />
    <glyph glyph-name="Edieresis" unicode="&#xcb;" horiz-adv-x="909" 
d="M537 1638q0 41 29 71q30 30 71 30t71 -30t30 -71q0 -40 -30 -70t-71 -30t-71 30t-29 70zM172 1638q0 41 30 71t70 30t71 -30q30 -30 30 -71q0 -40 -30 -70t-71 -30q-40 0 -70 30t-30 70zM283 659v-524h446q35 0 57 -19t21 -48q0 -28 -22 -48t-56 -20h-504q-90 0 -90 78
v1302q0 78 90 78h484q35 0 57 -19t20 -48q0 -29 -21 -49q-22 -19 -56 -19h-424v-528h405q34 1 56 -19t22 -49t-22 -48t-56 -20h-407z" />
    <glyph glyph-name="Igrave" unicode="&#xcc;" horiz-adv-x="417" 
d="M-16 1749q0 25 16 47t41 23q25 0 53 -13l283 -108q57 -20 57 -68q0 -26 -16 -48q-27 -37 -94 -9l-283 108q-57 20 -57 68zM283 1376v-1294q0 -94 -74 -94t-74 94v1294q0 94 74 94t74 -94z" />
    <glyph glyph-name="Iacute" unicode="&#xcd;" horiz-adv-x="417" 
d="M434 1749q0 -47 -57 -68l-283 -108q-30 -12 -54 -12q-24 1 -40 23t-16 46q0 48 57 68l283 108q68 28 94 -10q16 -23 16 -47zM283 1376v-1294q0 -94 -74 -94t-74 94v1294q0 94 74 94t74 -94z" />
    <glyph glyph-name="Icircumflex" unicode="&#xce;" horiz-adv-x="417" 
d="M528 1614q0 -23 -17 -42q-30 -34 -97 -9l-205 92l-205 -92q-70 -23 -97 9q-17 19 -18 42q0 53 60 76l260 100l260 -100q59 -23 59 -76zM283 1376v-1294q0 -94 -74 -94t-74 94v1294q0 94 74 94t74 -94z" />
    <glyph glyph-name="Idieresis" unicode="&#xcf;" horiz-adv-x="417" 
d="M291 1638q0 41 30 71q31 30 71 30t70 -30t30 -71q0 -40 -30 -70t-71 -30t-71 30t-29 70zM-74 1638q0 41 30 71t71 30t71 -30t29 -71q0 -40 -30 -70q-31 -30 -71 -30t-70 30t-30 70zM283 1376v-1294q0 -94 -74 -94t-74 94v1294q0 94 74 94t74 -94z" />
    <glyph glyph-name="Eth" unicode="&#xd0;" horiz-adv-x="1290" 
d="M135 74v594h-57q-35 0 -58 19t-22 48q0 29 22 48q23 19 58 20h57v581q0 31 22 53t52 21h381q158 0 282 -66q219 -118 300 -413q36 -127 36 -260q0 -327 -179 -523t-451 -196h-369q-31 0 -53 22t-21 52zM283 1323v-520h288q35 1 58 -19t23 -49t-24 -48q-22 -19 -57 -19
h-288v-533h286q250 0 365 166t115 444q0 223 -105 393q-53 85 -147 135t-219 50h-295z" />
    <glyph glyph-name="Ntilde" unicode="&#xd1;" horiz-adv-x="1363" 
d="M822 1585q-54 1 -138 27t-119 26t-65 -24t-54 -25q-59 0 -59 56q0 49 50 89q51 40 105 40t138 -28t119 -28t65 26t54 25q59 0 59 -67q0 -41 -50 -79q-51 -38 -105 -38zM135 1384q0 88 81 86q40 0 79 -53l782 -1145h4v1104q0 94 74 94t74 -94v-1298q0 -90 -70 -90
q-43 0 -80 53l-792 1159h-4v-1118q0 -94 -74 -94t-74 94v1302z" />
    <glyph glyph-name="Ograve" unicode="&#xd2;" horiz-adv-x="1400" 
d="M475 1749q1 25 17 47t40 23q24 0 54 -13l282 -108q57 -20 58 -68q0 -26 -16 -48q-27 -37 -95 -9l-283 108q-57 20 -57 68zM700 123q123 0 215 55q91 54 143 146q103 182 102 406q-1 223 -101 404q-51 91 -143 146t-216 55q-123 0 -215 -55q-159 -95 -219 -339
q-51 -208 4 -437q56 -229 215 -326q92 -55 215 -55zM82 729q0 193 66 357t211 275q144 109 341 109t341 -110t211 -274q67 -166 67 -358t-67 -356t-211 -275q-144 -109 -341 -109t-341 110q-145 110 -211 274t-66 357z" />
    <glyph glyph-name="Oacute" unicode="&#xd3;" horiz-adv-x="1400" 
d="M532 1561q-24 1 -40 23t-17 46q0 48 57 68l283 108q68 28 94 -10q16 -23 17 -47q0 -47 -58 -68l-282 -108q-29 -12 -54 -12zM700 123q123 0 215 55q91 54 143 146q103 182 102 406q-1 223 -101 404q-51 91 -143 146t-216 55q-123 0 -215 -55q-159 -95 -219 -339
q-51 -208 4 -437q56 -229 215 -326q92 -55 215 -55zM82 729q0 193 66 357t211 275q144 109 341 109t341 -110t211 -274q67 -166 67 -358t-67 -356t-211 -275q-144 -109 -341 -109t-341 110q-145 110 -211 274t-66 357z" />
    <glyph glyph-name="Ocircumflex" unicode="&#xd4;" horiz-adv-x="1400" 
d="M1020 1614q0 -23 -18 -42q-31 -33 -97 -9l-205 92l-204 -92q-71 -23 -98 9q-17 19 -17 42q0 53 59 76l260 100l261 -100q59 -23 59 -76zM700 123q123 0 215 55q91 54 143 146q103 182 102 406q-1 223 -101 404q-51 91 -143 146t-216 55q-123 0 -215 -55
q-159 -95 -219 -339q-51 -208 4 -437q56 -229 215 -326q92 -55 215 -55zM82 729q0 193 66 357t211 275q144 109 341 109t341 -110t211 -274q67 -166 67 -358t-67 -356t-211 -275q-144 -109 -341 -109t-341 110q-145 110 -211 274t-66 357z" />
    <glyph glyph-name="Otilde" unicode="&#xd5;" horiz-adv-x="1400" 
d="M840 1585q-54 1 -138 27t-118 26q-35 0 -65 -24t-54 -25q-59 0 -59 56q0 49 50 89t104 40t138 -28t119 -28t65 26t54 25q59 0 59 -67q0 -41 -50 -79q-51 -38 -105 -38zM700 123q123 0 215 55q91 54 143 146q103 182 102 406q-1 223 -101 404q-51 91 -143 146t-216 55
q-123 0 -215 -55q-159 -95 -219 -339q-51 -208 4 -437q56 -229 215 -326q92 -55 215 -55zM82 729q0 193 66 357t211 275q144 109 341 109t341 -110t211 -274q67 -166 67 -358t-67 -356t-211 -275q-144 -109 -341 -109t-341 110q-145 110 -211 274t-66 357z" />
    <glyph glyph-name="Odieresis" unicode="&#xd6;" horiz-adv-x="1400" 
d="M782 1638q0 41 30 71t71 30t71 -30t29 -71q0 -40 -30 -70q-31 -30 -71 -30t-70 30t-30 70zM418 1638q0 41 29 71q30 30 71 30t71 -30q29 -30 29 -71q0 -40 -30 -70t-70 -30t-70 30t-30 70zM700 123q123 0 215 55q91 54 143 146q103 182 102 406q-1 223 -101 404
q-51 91 -143 146t-216 55q-123 0 -215 -55q-159 -95 -219 -339q-51 -208 4 -437q56 -229 215 -326q92 -55 215 -55zM82 729q0 193 66 357t211 275q144 109 341 109t341 -110t211 -274q67 -166 67 -358t-67 -356t-211 -275q-144 -109 -341 -109t-341 110q-145 110 -211 274
t-66 357z" />
    <glyph glyph-name="multiply" unicode="&#xd7;" horiz-adv-x="1228" 
d="M206 47q-28 1 -45 19t-17 46t30 58l346 348l-346 348q-31 31 -31 59q-1 28 17 46t47 18t57 -28l350 -351l351 351q29 29 57 29t46 -19q17 -18 17 -46t-30 -59l-346 -348l346 -348q57 -57 13 -104q-18 -18 -46 -18t-57 28l-351 350l-350 -350q-30 -29 -58 -29z" />
    <glyph glyph-name="Oslash" unicode="&#xd8;" horiz-adv-x="1400" 
d="M82 729q0 193 66 357t211 275q144 110 341 109q244 0 402 -161l117 141q35 41 65 41q55 0 55 -49q0 -31 -43 -82l-118 -141q141 -203 141 -490q0 -193 -67 -357t-211 -275q-144 -110 -341 -109q-246 0 -405 166l-123 -150q-30 -37 -56 -37q-26 1 -41 17t-15 40t46 82
l115 140q-139 201 -139 483zM700 1335q-123 0 -215 -55q-159 -95 -219 -339q-25 -101 -24 -212q-1 -208 77 -362l691 831q-117 137 -310 137zM700 123q123 0 215 55q91 54 143 146q103 182 102 400t-83 374l-690 -834q117 -141 313 -141z" />
    <glyph glyph-name="Ugrave" unicode="&#xd9;" horiz-adv-x="1363" 
d="M457 1749q0 25 16 47t41 23q25 0 53 -13l283 -108q57 -20 57 -68q0 -26 -16 -48q-27 -37 -94 -9l-283 108q-57 20 -57 68zM135 496v880q0 94 74 94t74 -94v-862q0 -190 116 -291q117 -100 283 -100t283 100t116 291v862q0 94 74 94t74 -94v-880q0 -240 -160 -374
t-387 -134t-387 134t-160 374z" />
    <glyph glyph-name="Uacute" unicode="&#xda;" horiz-adv-x="1363" 
d="M907 1749q0 -47 -57 -68l-283 -108q-29 -12 -53 -12q-24 1 -41 23q-16 22 -16 46q0 48 57 68l283 108q68 28 94 -10q16 -23 16 -47zM135 496v880q0 94 74 94t74 -94v-862q0 -190 116 -291q117 -100 283 -100t283 100t116 291v862q0 94 74 94t74 -94v-880
q0 -240 -160 -374t-387 -134t-387 134t-160 374z" />
    <glyph glyph-name="Ucircumflex" unicode="&#xdb;" horiz-adv-x="1363" 
d="M1001 1614q0 -23 -17 -42q-30 -34 -97 -9l-205 92l-205 -92q-70 -23 -97 9q-17 19 -18 42q0 53 60 76l260 100l260 -100q59 -23 59 -76zM135 496v880q0 94 74 94t74 -94v-862q0 -190 116 -291q117 -100 283 -100t283 100t116 291v862q0 94 74 94t74 -94v-880
q0 -240 -160 -374t-387 -134t-387 134t-160 374z" />
    <glyph glyph-name="Udieresis" unicode="&#xdc;" horiz-adv-x="1363" 
d="M764 1638q0 41 30 71t70 30t71 -30q30 -30 30 -71q0 -40 -30 -70t-71 -30q-40 0 -70 30t-30 70zM399 1638q0 41 30 71t71 30q40 0 70 -30t30 -71q0 -40 -30 -70t-70 -30t-71 30q-30 30 -30 70zM135 496v880q0 94 74 94t74 -94v-862q0 -190 116 -291q117 -100 283 -100
t283 100t116 291v862q0 94 74 94t74 -94v-880q0 -240 -160 -374t-387 -134t-387 134t-160 374z" />
    <glyph glyph-name="Yacute" unicode="&#xdd;" horiz-adv-x="987" 
d="M326 1561q-24 1 -41 23q-16 22 -17 46q1 48 58 68l282 108q69 29 94 -10q16 -23 17 -47q0 -47 -57 -68l-283 -108q-29 -12 -53 -12zM2 1412q0 58 71 58q39 0 64 -43l357 -593l356 593q25 43 64 43q71 0 71 -57q0 -27 -45 -102l-373 -621v-608q1 -94 -73 -94t-74 94v608
l-373 621q-45 75 -45 101z" />
    <glyph glyph-name="Thorn" unicode="&#xde;" horiz-adv-x="1062" 
d="M283 1073v-631h270q162 0 245 96t83 220q0 125 -83 220t-245 95h-270zM283 307v-225q0 -94 -74 -94t-74 94v1294q0 94 74 94t74 -94v-168h295q265 0 387 -206q63 -104 63 -232q0 -197 -125 -330t-362 -133h-258z" />
    <glyph glyph-name="germandbls" unicode="&#xdf;" horiz-adv-x="1138" 
d="M283 1143v-1061q0 -94 -74 -94t-74 94v1077q0 201 109 311q108 110 278 111q170 0 279 -112t108 -281q0 -221 -157 -324q145 -38 212 -156q66 -118 66 -281t-98 -301t-277 -138q-117 0 -120 75q-2 19 2 33q5 14 27 26t65 13q131 0 186 92q55 93 55 229t-58 219t-175 97
q-70 8 -88 24t-19 46q-1 50 72 71q72 21 116 80t44 176t-62 197t-186 80q-123 0 -177 -86t-54 -217z" />
    <glyph glyph-name="agrave" unicode="&#xe0;" horiz-adv-x="1138" 
d="M344 1421q0 25 16 47t41 23q25 0 54 -12l282 -109q57 -20 58 -67q-1 -25 -17 -48q-27 -38 -94 -10l-283 109q-57 20 -57 67zM240 545q0 -242 128 -365q74 -70 182 -70t180 70q126 123 126 364q0 240 -127 365q-72 70 -180 70q-153 0 -231 -131t-78 -303zM856 940v68
q0 94 74 94t74 -94v-926q0 -94 -74 -94t-74 94v68h-6q-100 -162 -313 -162t-335 158t-122 386q0 229 113 394q55 80 146 128t206 48q180 0 305 -162h6z" />
    <glyph glyph-name="aacute" unicode="&#xe1;" horiz-adv-x="1138" 
d="M738 1491q24 0 40 -23t17 -47q0 -47 -58 -67l-282 -109q-29 -12 -54 -12q-25 1 -41 23t-16 47q0 47 57 67l283 109q30 12 54 12zM240 545q0 -242 128 -365q74 -70 182 -70t180 70q126 123 126 364q0 240 -127 365q-72 70 -180 70q-153 0 -231 -131t-78 -303zM856 940v68
q0 94 74 94t74 -94v-926q0 -94 -74 -94t-74 94v68h-6q-100 -162 -313 -162t-335 158t-122 386q0 229 113 394q55 80 146 128t206 48q180 0 305 -162h6z" />
    <glyph glyph-name="acircumflex" unicode="&#xe2;" horiz-adv-x="1138" 
d="M829 1225q-25 0 -55 10l-205 92l-204 -92q-31 -10 -56 -10t-42 19t-17 42q0 53 59 76l260 100l260 -100q59 -23 60 -76q1 -23 -17 -42t-43 -19zM240 545q0 -242 128 -365q74 -70 182 -70t180 70q126 123 126 364q0 240 -127 365q-72 70 -180 70q-153 0 -231 -131
t-78 -303zM856 940v68q0 94 74 94t74 -94v-926q0 -94 -74 -94t-74 94v68h-6q-100 -162 -313 -162t-335 158t-122 386q0 229 113 394q55 80 146 128t206 48q180 0 305 -162h6z" />
    <glyph glyph-name="atilde" unicode="&#xe3;" horiz-adv-x="1138" 
d="M452 1311q-34 0 -64 -25t-54 -24q-60 0 -60 52t50 92t105 40q54 0 138 -28t119 -28t65 26t54 26q59 0 59 -68q0 -41 -50 -79t-104 -38t-139 27q-84 27 -119 27zM240 545q0 -242 128 -365q74 -70 182 -70t180 70q126 123 126 364q0 240 -127 365q-72 70 -180 70
q-153 0 -231 -131t-78 -303zM856 940v68q0 94 74 94t74 -94v-926q0 -94 -74 -94t-74 94v68h-6q-100 -162 -313 -162t-335 158t-122 386q0 229 113 394q55 80 146 128t206 48q180 0 305 -162h6z" />
    <glyph glyph-name="adieresis" unicode="&#xe4;" horiz-adv-x="1138" 
d="M651 1311q0 41 30 71t71 29q40 0 70 -30q30 -31 30 -71t-30 -70t-70 -30t-71 30q-30 30 -30 71zM287 1311q-1 41 29 71t71 29q41 0 71 -30q30 -31 30 -71t-30 -70t-71 -30t-71 30q-29 30 -29 71zM240 545q0 -242 128 -365q74 -70 182 -70t180 70q126 123 126 364
q0 240 -127 365q-72 70 -180 70q-153 0 -231 -131t-78 -303zM856 940v68q0 94 74 94t74 -94v-926q0 -94 -74 -94t-74 94v68h-6q-100 -162 -313 -162t-335 158t-122 386q0 229 113 394q55 80 146 128t206 48q180 0 305 -162h6z" />
    <glyph glyph-name="aring" unicode="&#xe5;" horiz-adv-x="1138" 
d="M465 1391q0 -43 31 -74q32 -31 74 -31t73 31t31 74t-31 73t-74 31q-43 -1 -73 -31t-31 -73zM379 1391q0 78 56 134t134 56t134 -56q57 -56 57 -134q0 -79 -56 -135t-135 -56q-78 0 -134 56t-56 135zM240 545q0 -242 128 -365q74 -70 182 -70t180 70q126 123 126 364
q0 240 -127 365q-72 70 -180 70q-153 0 -231 -131t-78 -303zM856 940v68q0 94 74 94t74 -94v-926q0 -94 -74 -94t-74 94v68h-6q-100 -162 -313 -162t-335 158t-122 386q0 229 113 394q55 80 146 128t206 48q180 0 305 -162h6z" />
    <glyph glyph-name="ae" unicode="&#xe6;" horiz-adv-x="1820" 
d="M1292 979q-137 1 -217 -113t-84 -264h606q-4 150 -86 264t-219 113zM856 82v72h-4q-96 -166 -312 -166t-338 158t-122 386q0 229 113 394q55 80 146 128t197 48t177 -38q70 -38 139 -120h4v64q0 94 68 94t67 -94v-56h17q34 58 118 104t166 46q219 0 342 -156t123 -377
q0 -90 -100 -90h-666q4 -149 95 -259t229 -109q77 1 141 27t96 57q88 84 119 84q70 0 70 -72q0 -59 -120 -139t-271 -80q-240 0 -355 151h-4v-57q1 -94 -67 -94t-68 94zM240 545q0 -242 128 -365q74 -70 182 -70t180 70q126 123 126 364q0 240 -127 365q-72 70 -180 70
q-153 0 -231 -131t-78 -303z" />
    <glyph glyph-name="ccedilla" unicode="&#xe7;" horiz-adv-x="909" 
d="M620 -78q42 0 76 -34q35 -34 35 -96t-58 -108t-149 -46q-154 0 -153 73q0 49 53 49q16 0 50 -12t70 -12q64 0 64 52t-90 52q-45 0 -61 4q-36 9 14 93l35 53q-198 18 -312 182t-114 373q0 141 55 266t170 208t241 83t208 -35q84 -35 84 -80q0 -82 -82 -82q-8 0 -68 31
t-139 31q-143 0 -226 -130t-83 -295t85 -292t224 -127q77 0 145 29q68 28 84 28t34 -17q19 -17 19 -42q-1 -57 -67 -91t-166 -38l-47 -72l4 -4q23 6 65 6z" />
    <glyph glyph-name="egrave" unicode="&#xe8;" horiz-adv-x="1062" 
d="M365 1491q25 0 53 -12l282 -109q57 -20 58 -67q0 -25 -16 -48q-27 -38 -95 -10l-282 109q-57 20 -58 67q1 25 17 47t41 23zM547 979q-139 1 -221 -113t-86 -264h614q-4 150 -86 264t-221 113zM913 479h-673q4 -149 95 -259t228 -109q80 1 146 27q65 26 99 57t66 57t54 27
q70 0 69 -72q0 -61 -126 -140t-295 -79q-170 0 -284 84q-212 156 -212 473q0 223 126 390t344 167t341 -156t123 -377q-1 -90 -101 -90z" />
    <glyph glyph-name="eacute" unicode="&#xe9;" horiz-adv-x="1062" 
d="M700 1491q24 0 41 -23q16 -23 17 -47q0 -47 -58 -67l-282 -109q-30 -12 -54 -12q-24 1 -40 23t-17 47q1 47 58 67l282 109q29 12 53 12zM547 979q-139 1 -221 -113t-86 -264h614q-4 150 -86 264t-221 113zM913 479h-673q4 -149 95 -259t228 -109q80 1 146 27q65 26 99 57
t66 57t54 27q70 0 69 -72q0 -61 -126 -140t-295 -79q-170 0 -284 84q-212 156 -212 473q0 223 126 390t344 167t341 -156t123 -377q-1 -90 -101 -90z" />
    <glyph glyph-name="ecircumflex" unicode="&#xea;" horiz-adv-x="1062" 
d="M852 1286q0 -23 -17 -42t-42 -19t-56 10l-205 92l-204 -92q-31 -10 -56 -10t-42 19t-17 42q0 53 59 76l260 100l261 -100q59 -23 59 -76zM547 979q-139 1 -221 -113t-86 -264h614q-4 150 -86 264t-221 113zM913 479h-673q4 -149 95 -259t228 -109q80 1 146 27
q65 26 99 57t66 57t54 27q70 0 69 -72q0 -61 -126 -140t-295 -79q-170 0 -284 84q-212 156 -212 473q0 223 126 390t344 167t341 -156t123 -377q-1 -90 -101 -90z" />
    <glyph glyph-name="edieresis" unicode="&#xeb;" horiz-adv-x="1062" 
d="M614 1311q0 41 30 71t71 29q41 0 71 -30q30 -31 29 -71q0 -40 -30 -70q-31 -30 -71 -30t-70 30t-30 71zM250 1311q0 41 30 71t70 29q40 0 71 -30q30 -31 30 -71t-30 -70t-71 -30q-40 0 -70 30t-30 71zM547 979q-139 1 -221 -113t-86 -264h614q-4 150 -86 264t-221 113z
M913 479h-673q4 -149 95 -259t228 -109q80 1 146 27q65 26 99 57t66 57t54 27q70 0 69 -72q0 -61 -126 -140t-295 -79q-170 0 -284 84q-212 156 -212 473q0 223 126 390t344 167t341 -156t123 -377q-1 -90 -101 -90z" />
    <glyph glyph-name="igrave" unicode="&#xec;" horiz-adv-x="417" 
d="M-16 1421q0 25 16 47t41 23q25 0 53 -12l283 -109q57 -20 57 -67q0 -25 -16 -48q-26 -38 -94 -10l-283 109q-57 20 -57 67zM283 1008v-926q0 -94 -74 -94t-74 94v926q0 94 74 94t74 -94z" />
    <glyph glyph-name="iacute" unicode="&#xed;" horiz-adv-x="417" 
d="M378 1491q24 0 40 -23t16 -47q0 -47 -57 -67l-283 -109q-30 -12 -54 -12q-24 1 -40 23t-16 47q0 47 57 67l283 109q30 12 54 12zM283 1008v-926q0 -94 -74 -94t-74 94v926q0 94 74 94t74 -94z" />
    <glyph glyph-name="icircumflex" unicode="&#xee;" horiz-adv-x="417" 
d="M528 1286q0 -23 -17 -42t-42 -19t-55 10l-205 92l-205 -92q-32 -10 -56 -10t-41 19t-18 42q0 53 60 76l260 100l260 -100q59 -23 59 -76zM283 1008v-926q0 -94 -74 -94t-74 94v926q0 94 74 94t74 -94z" />
    <glyph glyph-name="idieresis" unicode="&#xef;" horiz-adv-x="417" 
d="M291 1311q0 41 30 71q31 30 71 29q40 0 70 -30q30 -31 30 -71t-30 -70t-71 -30t-71 30t-29 71zM-74 1311q0 41 30 71t71 29q41 0 71 -30q30 -31 29 -71q0 -40 -30 -70q-31 -30 -71 -30t-70 30t-30 71zM283 1008v-926q0 -94 -74 -94t-74 94v926q0 94 74 94t74 -94z" />
    <glyph glyph-name="eth" unicode="&#xf0;" 
d="M240 538q0 -106 28 -198t102 -161q73 -69 179 -69t179 70q130 122 130 356q0 235 -130 360q-73 69 -179 70t-179 -68q-74 -69 -102 -162t-28 -198zM80 537q0 217 125 385t344 168q77 0 151 -36t117 -102l4 4q-76 209 -272 365l-197 -98q-57 -29 -79 -2q-11 15 -11 39
t41 47l172 88q-35 29 -89 51t-83 36q-29 15 -29 39t18 42t48 18q76 0 260 -123l174 86q35 16 51 17q45 0 45 -50q0 -29 -28 -43l-162 -79q338 -287 338 -783q0 -178 -46 -307t-121 -193q-140 -118 -294 -118q-155 0 -266 84t-161 207t-50 258z" />
    <glyph glyph-name="ntilde" unicode="&#xf1;" 
d="M432 1311q-34 0 -64 -25t-55 -24q-59 0 -59 55q0 49 50 89t104 40t139 -28q84 -28 119 -28q34 0 64 26t54 26q59 0 60 -68q0 -41 -50 -79t-104 -38t-139 27q-84 27 -119 27zM283 682v-600q0 -94 -74 -94t-74 94v926q0 94 74 94t74 -94v-54h4q102 148 272 148t287 -102
t117 -287v-631q0 -94 -74 -94t-74 94v635q0 115 -72 183q-73 68 -189 67q-116 0 -194 -76t-77 -209z" />
    <glyph glyph-name="ograve" unicode="&#xf2;" 
d="M324 1421q0 25 16 47t41 23q25 0 53 -12l283 -109q57 -20 57 -67q0 -25 -16 -48q-26 -38 -94 -10l-283 109q-57 20 -57 67zM1018 536q0 -234 -122 -391t-347 -157t-347 158t-122 390q0 234 122 400t347 166t347 -166t122 -400zM240 545q0 -109 28 -202t100 -163
q74 -70 182 -70t180 70q128 122 128 364q0 241 -128 365q-74 70 -182 70t-180 -70q-72 -71 -100 -163t-28 -201z" />
    <glyph glyph-name="oacute" unicode="&#xf3;" 
d="M718 1491q24 0 40 -23t16 -47q0 -47 -57 -67l-283 -109q-30 -12 -54 -12q-24 1 -40 23t-16 47q0 47 57 67l283 109q30 12 54 12zM1018 536q0 -234 -122 -391t-347 -157t-347 158t-122 390q0 234 122 400t347 166t347 -166t122 -400zM240 545q0 -109 28 -202t100 -163
q74 -70 182 -70t180 70q128 122 128 364q0 241 -128 365q-74 70 -182 70t-180 -70q-72 -71 -100 -163t-28 -201z" />
    <glyph glyph-name="ocircumflex" unicode="&#xf4;" 
d="M868 1286q0 -23 -17 -42t-42 -19t-55 10l-205 92l-205 -92q-32 -10 -56 -10t-41 19t-18 42q0 53 60 76l260 100l260 -100q59 -23 59 -76zM1018 536q0 -234 -122 -391t-347 -157t-347 158t-122 390q0 234 122 400t347 166t347 -166t122 -400zM240 545q0 -109 28 -202
t100 -163q74 -70 182 -70t180 70q128 122 128 364q0 241 -128 365q-74 70 -182 70t-180 -70q-72 -71 -100 -163t-28 -201z" />
    <glyph glyph-name="otilde" unicode="&#xf5;" 
d="M432 1311q-34 0 -64 -25t-55 -24q-59 0 -59 55q0 49 50 89t104 40t139 -28q84 -28 119 -28q34 0 64 26t54 26q59 0 60 -68q0 -41 -50 -79t-104 -38t-139 27q-84 27 -119 27zM1018 536q0 -234 -122 -391t-347 -157t-347 158t-122 390q0 234 122 400t347 166t347 -166
t122 -400zM240 545q0 -109 28 -202t100 -163q74 -70 182 -70t180 70q128 122 128 364q0 241 -128 365q-74 70 -182 70t-180 -70q-72 -71 -100 -163t-28 -201z" />
    <glyph glyph-name="odieresis" unicode="&#xf6;" 
d="M631 1311q-1 41 29 71t71 29q41 0 71 -30q30 -31 30 -71t-30 -70t-71 -30t-71 30q-29 30 -29 71zM266 1311q0 41 30 71t71 29q41 0 71 -30q30 -31 29 -71q0 -40 -30 -70q-31 -30 -71 -30t-70 30t-30 71zM1018 536q0 -234 -122 -391t-347 -157t-347 158t-122 390
q0 234 122 400t347 166t347 -166t122 -400zM240 545q0 -109 28 -202t100 -163q74 -70 182 -70t180 70q128 122 128 364q0 241 -128 365q-74 70 -182 70t-180 -70q-72 -71 -100 -163t-28 -201z" />
    <glyph glyph-name="divide" unicode="&#xf7;" horiz-adv-x="1228" 
d="M485 948q0 53 38 91t91 38q54 0 92 -38t38 -91t-38 -91t-92 -38t-91 38q-38 38 -38 91zM485 88q0 53 38 91t91 38q54 0 92 -38t38 -91t-38 -91t-92 -38t-91 38q-38 38 -38 91zM1055 451h-881q-34 0 -56 19t-22 48t22 48t56 20h881q35 0 57 -20t21 -48q1 -29 -21 -48
t-57 -19z" />
    <glyph glyph-name="oslash" unicode="&#xf8;" 
d="M541 111q117 -1 189 69q128 122 128 365q0 141 -45 239l-465 -583q76 -90 193 -90zM976 1143q26 -1 42 -17t16 -40t-35 -68l-86 -109q105 -145 105 -375t-122 -389q-122 -158 -347 -157q-176 0 -289 100l-84 -104q-29 -37 -54 -37t-42 16q-38 38 18 109l84 104
q-102 142 -102 368t122 392t347 166q172 -1 287 -105l86 109q29 37 54 37zM557 979q-117 0 -189 -70q-130 -125 -128 -364q0 -136 45 -240l465 584q-76 90 -193 90z" />
    <glyph glyph-name="ugrave" unicode="&#xf9;" 
d="M324 1421q0 25 16 47t41 23q25 0 53 -12l283 -109q57 -20 57 -67q0 -25 -16 -48q-26 -38 -94 -10l-283 109q-57 20 -57 67zM135 358v650q0 94 74 94t74 -94v-613q-1 -137 69 -211t197 -74t197 74t69 211v613q0 94 74 94t74 -94v-650q0 -172 -117 -271t-297 -99t-297 99
t-117 271z" />
    <glyph glyph-name="uacute" unicode="&#xfa;" 
d="M718 1491q24 0 40 -23t16 -47q0 -47 -57 -67l-283 -109q-30 -12 -54 -12q-24 1 -40 23t-16 47q0 47 57 67l283 109q30 12 54 12zM135 358v650q0 94 74 94t74 -94v-613q-1 -137 69 -211t197 -74t197 74t69 211v613q0 94 74 94t74 -94v-650q0 -172 -117 -271t-297 -99
t-297 99t-117 271z" />
    <glyph glyph-name="ucircumflex" unicode="&#xfb;" 
d="M868 1286q0 -23 -17 -42t-42 -19t-55 10l-205 92l-205 -92q-32 -10 -56 -10t-41 19t-18 42q0 53 60 76l260 100l260 -100q59 -23 59 -76zM135 358v650q0 94 74 94t74 -94v-613q-1 -137 69 -211t197 -74t197 74t69 211v613q0 94 74 94t74 -94v-650q0 -172 -117 -271
t-297 -99t-297 99t-117 271z" />
    <glyph glyph-name="udieresis" unicode="&#xfc;" 
d="M631 1311q-1 41 29 71t71 29q41 0 71 -30q30 -31 30 -71t-30 -70t-71 -30t-71 30q-29 30 -29 71zM266 1311q0 41 30 71t71 29q41 0 71 -30q30 -31 29 -71q0 -40 -30 -70q-31 -30 -71 -30t-70 30t-30 71zM135 358v650q0 94 74 94t74 -94v-613q-1 -137 69 -211t197 -74
t197 74t69 211v613q0 94 74 94t74 -94v-650q0 -172 -117 -271t-297 -99t-297 99t-117 271z" />
    <glyph glyph-name="yacute" unicode="&#xfd;" horiz-adv-x="872" 
d="M604 1491q24 0 41 -23q16 -23 17 -47q0 -47 -58 -67l-282 -109q-29 -12 -54 -12q-25 1 -41 23t-16 47q0 47 57 67l283 109q29 12 53 12zM25 1038q0 24 19 43q19 20 48 21q55 0 78 -68l264 -790h4l264 790q23 68 78 68q29 0 54 -27t6 -84l-471 -1360q-25 -74 -80 -73
q-31 0 -49 18q-34 34 -7 102l134 351l-334 962q-8 23 -8 47z" />
    <glyph glyph-name="thorn" unicode="&#xfe;" horiz-adv-x="1138" 
d="M281 545q-1 -109 27 -202t101 -163t181 -70t182 70q128 122 127 364q0 241 -128 365q-73 70 -181 70t-182 -70q-72 -71 -100 -163t-27 -201zM135 -348v1835q0 94 74 94t74 -94v-547h6q125 162 301 162q217 0 343 -167t126 -390t-126 -390t-343 -167q-176 0 -301 162h-6
v-498q0 -94 -74 -94t-74 94z" />
    <glyph glyph-name="ydieresis" unicode="&#xff;" horiz-adv-x="872" 
d="M518 1311q0 41 30 71t70 29q40 0 71 -30q30 -31 30 -71t-30 -70t-71 -30q-40 0 -70 30t-30 71zM154 1311q0 41 30 71t70 29q41 0 71 -30q29 -31 29 -71t-30 -70t-70 -30q-41 0 -71 30q-29 30 -29 71zM25 1038q0 24 19 43q19 20 48 21q55 0 78 -68l264 -790h4l264 790
q23 68 78 68q29 0 54 -27t6 -84l-471 -1360q-25 -74 -80 -73q-31 0 -49 18q-34 34 -7 102l134 351l-334 962q-8 23 -8 47z" />
    <glyph glyph-name="dotlessi" unicode="&#x131;" horiz-adv-x="417" 
d="M283 1008v-926q0 -94 -74 -94t-74 94v926q0 94 74 94t74 -94z" />
    <glyph glyph-name="Lslash" unicode="&#x141;" horiz-adv-x="757" 
d="M283 135h385q34 0 56 -19t22 -48t-22 -49q-22 -19 -56 -19h-459q-31 0 -53 22t-21 52v555l-88 -54q-25 -12 -39 -12q-53 0 -53 58q0 45 41 67l139 82v606q0 94 74 94t74 -94v-520l168 98q57 34 84 -2q14 -18 14 -50t-45 -58l-221 -129v-580z" />
    <glyph glyph-name="lslash" unicode="&#x142;" horiz-adv-x="417" 
d="M283 82q0 -94 -74 -94t-74 94v582l-61 -52q-29 -22 -55 -22q-25 0 -39 15q-39 43 34 108l121 100v674q0 94 74 94t74 -94v-549l53 45q33 25 63 25q55 0 56 -54q0 -29 -52 -71l-120 -99v-702z" />
    <glyph glyph-name="OE" unicode="&#x152;" horiz-adv-x="1896" 
d="M1159 729q0 225 -100 405q-51 91 -143 146t-216 55q-123 0 -215 -55q-160 -95 -219 -340q-51 -207 4 -436t215 -326q92 -55 215 -55t215 55q160 96 220 340q24 102 24 211zM82 729q0 190 66 355q67 165 211 276t341 110q150 0 273 -66t182 -185h4v165q0 74 101 74h473
q35 0 57 -19t20 -48q0 -29 -21 -49q-22 -19 -56 -19h-424v-528h405q34 1 56 -19t22 -49t-22 -48t-56 -20h-407v-524h446q35 0 57 -19t21 -48q0 -28 -22 -48t-56 -20h-520q-31 0 -53 22t-21 52v176h-4q-160 -262 -455 -262q-197 0 -341 110t-211 276q-66 165 -66 355z" />
    <glyph glyph-name="oe" unicode="&#x153;" horiz-adv-x="1859" 
d="M1297 979q-131 0 -209 -115t-82 -262h591q-4 150 -86 264t-214 113zM549 1102q260 0 385 -230q60 104 156 166t202 64q219 0 342 -156t123 -377q0 -90 -100 -90h-651q4 -149 90 -259t221 -109q76 1 139 27t96 57q89 84 119 84q70 0 70 -72q0 -59 -120 -139t-271 -80
q-287 -6 -416 221q-123 -221 -385 -221q-225 0 -347 158t-122 390q0 234 122 400t347 166zM240 545q0 -109 28 -202t100 -163q74 -70 182 -70t180 70q128 122 128 364q0 241 -128 365q-74 70 -182 70t-180 -70q-72 -71 -100 -163t-28 -201z" />
    <glyph glyph-name="Scaron" unicode="&#x160;" horiz-adv-x="946" 
d="M154 1729q0 23 17 41q29 32 97 10l205 -92l205 92q32 10 56 10t41 -20t18 -41q0 -53 -60 -76l-260 -101l-260 101q-59 23 -59 76zM460 -12q-190 0 -304 55t-115 119q0 28 20 50q47 51 119 -13q20 -18 98 -47t144 -29q147 0 242 97q94 96 94 206t-72 172t-173 99
q-101 36 -203 77t-173 121q-72 80 -71 203q0 168 122 268q123 100 299 104q117 0 225 -53t107 -106q0 -33 -19 -56t-45 -23t-108 52q-83 51 -183 51q-100 1 -176 -67t-75 -147q0 -137 137 -202q61 -30 135 -57q74 -26 148 -58t135 -74t99 -114t38 -165q0 -201 -128 -332
q-127 -131 -317 -131z" />
    <glyph glyph-name="scaron" unicode="&#x161;" horiz-adv-x="909" 
d="M195 1462q25 0 55 -10l205 -92l204 92q31 10 56 10t42 -19t17 -42q0 -53 -59 -76l-260 -100l-260 100q-59 23 -60 76q-1 23 17 42t43 19zM90 815q0 127 104 207t250 80q144 0 261 -53t112 -115q0 -72 -74 -72q-20 0 -61 30q-119 87 -211 87t-157 -40q-64 -40 -64 -122
t100 -121l223 -90q131 -53 202 -120q71 -68 71 -196t-114 -215t-282 -87t-284 72t-115 135q0 20 23 46q22 25 48 25t68 -39q126 -116 246 -116q119 0 185 54q65 54 65 126q0 71 -39 107t-112 67l-254 104q-91 37 -141 95t-50 151z" />
    <glyph glyph-name="Ydieresis" unicode="&#x178;" horiz-adv-x="987" 
d="M575 1638q0 41 30 71t71 30q40 0 70 -30t30 -71q0 -40 -30 -70t-70 -30t-71 30q-30 30 -30 70zM211 1638q0 41 30 71q31 30 71 30t70 -30t30 -71q0 -40 -30 -70t-71 -30t-71 30t-29 70zM2 1412q0 58 71 58q39 0 64 -43l357 -593l356 593q25 43 64 43q71 0 71 -57
q0 -27 -45 -102l-373 -621v-608q1 -94 -73 -94t-74 94v608l-373 621q-45 75 -45 101z" />
    <glyph glyph-name="Zcaron" unicode="&#x17d;" horiz-adv-x="1138" 
d="M250 1729q0 23 17 41q29 32 98 10l204 -92l205 92q32 10 56 10t41 -20t18 -41q0 -53 -60 -76l-260 -101l-260 101q-59 23 -59 76zM1004 135q34 0 56 -19t22 -48t-22 -49q-22 -19 -56 -19h-824q-123 0 -123 82q0 35 60 127l731 1114h-684q-34 0 -56 19q-22 18 -22 48
t22 49t56 19h821q70 0 70 -55q0 -33 -29 -74l-784 -1194h762z" />
    <glyph glyph-name="zcaron" unicode="&#x17e;" horiz-adv-x="909" 
d="M195 1462q25 0 55 -10l205 -92l204 92q31 10 56 10t42 -19t17 -42q0 -53 -59 -76l-260 -100l-260 100q-59 23 -60 76q-1 23 17 42t43 19zM776 135q35 0 57 -19q21 -19 21 -48t-21 -49q-22 -19 -57 -19h-633q-86 0 -86 59q0 39 33 86l547 809h-479q-35 0 -57 20t-21 48
q0 29 21 48q22 19 57 20h587q82 0 82 -56q1 -43 -32 -90l-547 -809h528z" />
    <glyph glyph-name="florin" unicode="&#x192;" 
d="M311 999h123l41 242q57 340 297 340h84q34 0 56 -19q22 -18 22 -48t-22 -49t-56 -19h-65q-129 0 -164 -197l-45 -250h108q37 0 61 -16q23 -16 23 -45t-24 -45t-60 -16h-131l-137 -775q-41 -236 -128 -332t-210 -98h-55q-35 0 -57 20t-21 48q0 29 21 48q22 19 57 19h53
q74 -1 120 57t74 226l136 787h-101q-37 0 -61 16t-23 45q-1 29 23 45t61 16z" />
    <glyph glyph-name="circumflex" unicode="&#x2c6;" horiz-adv-x="417" 
d="M528 1286q0 -23 -17 -42t-42 -19t-55 10l-205 92l-205 -92q-32 -10 -56 -10t-41 19t-18 42q0 53 60 76l260 100l260 -100q59 -23 59 -76z" />
    <glyph glyph-name="caron" unicode="&#x2c7;" horiz-adv-x="417" 
d="M-51 1462q25 0 55 -10l205 -92l205 92q32 10 56 10t41 -19t17 -42q0 -53 -59 -76l-260 -100l-260 100q-59 23 -60 76q-1 23 17 42t43 19z" />
    <glyph glyph-name="uni02C9" unicode="&#x2c9;" horiz-adv-x="417" 
d="M401 1223h-385q-94 -1 -94 73t94 74h385q94 0 95 -74q-1 -73 -95 -73z" />
    <glyph glyph-name="breve" unicode="&#x2d8;" horiz-adv-x="417" 
d="M-66 1403q0 72 56 72q43 0 78 -59q12 -22 48 -40t93 -18t93 18t48 40q31 57 78 59q55 0 55 -72q-1 -72 -75 -126t-199 -54t-200 54t-75 126z" />
    <glyph glyph-name="dotaccent" unicode="&#x2d9;" horiz-adv-x="417" 
d="M109 1311q-1 41 29 71t71 29q41 0 71 -30q30 -31 30 -71t-30 -70t-71 -30t-71 30q-29 30 -29 71z" />
    <glyph glyph-name="ring" unicode="&#x2da;" horiz-adv-x="417" 
d="M104 1391q0 -43 31 -74t74 -31t74 31t30 74t-31 73t-73 31q-43 -1 -74 -31t-31 -73zM18 1391q0 78 56 134t135 56q78 0 134 -56t56 -134q0 -79 -56 -135t-134 -56q-79 0 -135 56t-56 135z" />
    <glyph glyph-name="ogonek" unicode="&#x2db;" horiz-adv-x="417" 
d="M104 -192q0 -60 58 -60q23 0 73 16t70 -11q12 -15 12 -34q0 -37 -48 -59t-130 -22q-170 0 -170 133q1 137 189 229h104q-158 -132 -158 -192z" />
    <glyph glyph-name="tilde" unicode="&#x2dc;" horiz-adv-x="417" 
d="M92 1311q-34 0 -64 -25t-55 -24q-59 0 -59 55q0 49 50 89t104 40t139 -28q84 -28 119 -28q34 0 64 26t54 26q59 0 60 -68q0 -41 -50 -79t-104 -38t-139 27q-84 27 -119 27z" />
    <glyph glyph-name="hungarumlaut" unicode="&#x2dd;" horiz-adv-x="417" 
d="M582 1491q25 0 41 -23t16 -47q0 -47 -57 -67l-283 -109q-29 -12 -53 -12q-24 1 -41 23q-16 22 -17 47q1 47 58 67l282 109q29 12 54 12zM172 1491q24 0 41 -23q16 -23 16 -47q0 -47 -57 -67l-283 -109q-29 -12 -53 -12q-24 1 -41 23q-16 22 -16 47q0 47 57 67l283 109
q29 12 53 12z" />
    <glyph glyph-name="uni03A9" unicode="&#x3a9;" horiz-adv-x="1421" 
d="M395 119v6q-119 111 -195 275t-75 368q0 300 169 492t424 192t415 -198t159 -478q0 -209 -80 -380t-192 -271v-6h301v-119h-471v88q127 88 213 261t86 393t-108 398q-52 85 -137 137t-189 52q-201 0 -323 -167q-122 -166 -122 -400t88 -412t211 -262v-88h-471v119h297z
" />
    <glyph glyph-name="uni03BC" unicode="&#x3bc;" 
d="M135 -348v1356q0 94 74 94t74 -94v-613q-1 -137 69 -211t197 -74t197 74t69 211v613q0 94 74 94t74 -94v-947q0 -31 -22 -53q-23 -22 -53 -20q-30 0 -52 22t-21 51q-106 -73 -264 -73t-264 114h-4v-450q0 -94 -74 -94t-74 94z" />
    <glyph glyph-name="pi" unicode="&#x3c0;" horiz-adv-x="1124" 
d="M911 938v-639q0 -193 29 -299h-137q-35 61 -35 285v653h-362q-8 -219 -52 -510t-94 -428h-141q55 158 96 436t49 502q-152 0 -221 -25l-23 97q86 53 281 53h784l-14 -125h-160z" />
    <glyph glyph-name="uni2010" unicode="&#x2010;" horiz-adv-x="720" 
d="M162 612h397q35 0 57 -19t21 -48q0 -29 -22 -48t-56 -20h-397q-35 -1 -57 19t-21 49q0 29 21 48q22 19 57 19z" />
    <glyph glyph-name="endash" unicode="&#x2013;" horiz-adv-x="1024" 
d="M961 483h-898q-33 -1 -48 19t-15 43t15 42t48 19h898q33 0 48 -19t15 -42t-15 -43t-48 -19z" />
    <glyph glyph-name="emdash" unicode="&#x2014;" horiz-adv-x="2048" 
d="M2048 483h-2048q-33 -1 -48 19t-15 43t15 42t48 19h2048q33 0 48 -19t15 -42t-15 -43t-48 -19z" />
    <glyph glyph-name="quoteleft" unicode="&#x2018;" horiz-adv-x="380" 
d="M248 1470q42 0 60 -19q36 -36 3 -105l-116 -259q-19 -43 -61 -43t-61 20t-19 44t16 61l116 258q20 43 62 43z" />
    <glyph glyph-name="quoteright" unicode="&#x2019;" horiz-adv-x="380" 
d="M248 1470q42 0 60 -19q36 -36 3 -105l-116 -259q-19 -43 -61 -43t-61 20t-19 44t16 61l116 258q20 43 62 43z" />
    <glyph glyph-name="quotesinglbase" unicode="&#x201a;" horiz-adv-x="380" 
d="M248 176q42 0 60 -19q35 -35 3 -106l-116 -258q-19 -43 -61 -43t-61 20t-19 44t16 61l116 258q20 43 62 43z" />
    <glyph glyph-name="quotedblleft" unicode="&#x201c;" horiz-adv-x="645" 
d="M512 1470q41 0 60 -19q36 -36 3 -105l-116 -259q-19 -43 -61 -43t-61 20t-19 44t16 61l117 258q20 43 61 43zM248 1470q42 0 60 -19q36 -36 3 -105l-116 -259q-19 -43 -61 -43t-61 20t-19 44t16 61l116 258q20 43 62 43z" />
    <glyph glyph-name="quotedblright" unicode="&#x201d;" horiz-adv-x="645" 
d="M512 1470q41 0 60 -19q36 -36 3 -105l-116 -259q-19 -43 -61 -43t-61 20t-19 44t16 61l117 258q20 43 61 43zM248 1470q42 0 60 -19q36 -36 3 -105l-116 -259q-19 -43 -61 -43t-61 20t-19 44t16 61l116 258q20 43 62 43z" />
    <glyph glyph-name="quotedblbase" unicode="&#x201e;" horiz-adv-x="645" 
d="M512 176q41 0 60 -19q35 -35 3 -106l-116 -258q-19 -43 -61 -43t-61 20t-19 44t16 61l117 258q20 43 61 43zM248 176q42 0 60 -19q35 -35 3 -106l-116 -258q-19 -43 -61 -43t-61 20t-19 44t16 61l116 258q20 43 62 43z" />
    <glyph glyph-name="dagger" unicode="&#x2020;" horiz-adv-x="1249" 
d="M692 801v-1149q0 -94 -68 -94t-67 94v1149h-407q-94 0 -95 67q0 68 95 68h407v440q0 94 68 94t67 -94v-440h408q94 0 94 -68t-94 -67h-408z" />
    <glyph glyph-name="daggerdbl" unicode="&#x2021;" horiz-adv-x="1249" 
d="M557 178v680h-424q-35 0 -57 20t-21 48q0 29 22 48t56 19h424v408q-1 35 19 57t49 21q29 0 48 -22t19 -56v-408h424q34 0 56 -19t22 -48t-22 -48t-56 -20h-424v-680h424q34 0 56 -19t22 -48t-22 -49t-56 -19h-424v-408q0 -35 -19 -57t-48 -20q-29 0 -48 22t-20 55v408
h-424q-35 0 -57 19q-22 18 -21 48q0 30 22 49t56 19h424z" />
    <glyph glyph-name="bullet" unicode="&#x2022;" horiz-adv-x="1024" 
d="M147 729q1 152 107 258q106 107 258 107t258 -106t106 -259q0 -152 -106 -258t-258 -106t-258 106t-107 258z" />
    <glyph glyph-name="ellipsis" unicode="&#x2026;" horiz-adv-x="2048" 
d="M1612 82q0 38 28 66t66 28q39 0 67 -28q27 -28 27 -66t-28 -67q-28 -27 -66 -27q-39 0 -67 27q-27 28 -27 67zM930 82q0 38 28 66t66 28q39 0 67 -28q27 -28 27 -66t-28 -67q-28 -27 -66 -27q-39 0 -67 27q-27 28 -27 67zM248 82q0 38 28 66t66 28q39 0 67 -28
q27 -28 27 -66t-28 -67q-28 -27 -66 -27q-39 0 -67 27q-27 28 -27 67z" />
    <glyph glyph-name="perthousand" unicode="&#x2030;" horiz-adv-x="2238" 
d="M1040 1491q49 0 52 -47q0 -18 -19 -64l-532 -1362q-19 -51 -55 -51q-66 0 -66 47q0 19 18 64l533 1362q20 51 69 51zM1120 86q94 0 144 75q49 75 49 183t-52 180q-53 74 -141 74t-140 -74t-52 -181t49 -182t143 -75zM1120 -12q-129 0 -222 98t-93 253t94 256t221 101
t221 -101q95 -101 95 -256t-94 -253t-222 -98zM397 860q94 0 144 75q49 75 49 183t-52 180q-52 74 -140 74t-141 -74q-52 -74 -52 -181t49 -182t143 -75zM397 762q-129 0 -222 98t-93 253t94 256t221 101t221 -101t94 -256t-92 -253q-94 -98 -223 -98zM1841 86q94 0 144 75
q49 75 49 183t-52 180q-52 74 -141 74q-88 0 -140 -74t-52 -181t49 -182t143 -75zM1841 -12q-129 0 -222 98t-93 253t94 256t221 101t221 -101t94 -256t-92 -253q-94 -98 -223 -98z" />
    <glyph glyph-name="guilsinglleft" unicode="&#x2039;" horiz-adv-x="491" 
d="M339 954q34 0 51 -16q36 -34 -3 -96l-172 -297l172 -297q37 -65 3 -96q-17 -16 -51 -16t-67 57l-166 292q-22 43 -22 59t22 60l166 293q33 57 67 57z" />
    <glyph glyph-name="guilsinglright" unicode="&#x203a;" horiz-adv-x="491" 
d="M408 545q0 -16 -23 -60l-166 -292q-33 -57 -67 -57t-51 16t-17 38t20 58l172 297l-172 297q-20 35 -20 57q0 23 17 39t51 16t67 -57l166 -293q23 -43 23 -59z" />
    <glyph glyph-name="fraction" unicode="&#x2044;" horiz-adv-x="339" 
d="M454 1491q49 0 52 -47q0 -18 -19 -64l-532 -1362q-19 -51 -55 -51q-66 0 -66 47q1 19 19 64l532 1362q20 51 69 51z" />
    <glyph glyph-name="Euro" unicode="&#x20ac;" 
d="M348 535q47 -412 376 -412q167 0 286 104v-151q-98 -86 -316 -86q-434 0 -495 545h-146l39 116h94q-4 41 -4 77t4 81h-133l39 119h105q68 541 497 540q205 0 316 -90v-151q-109 104 -285 104q-176 -1 -267 -111t-110 -292h574l-39 -119h-549q-2 -20 -2 -78l2 -80h493
l-39 -116h-440z" />
    <glyph glyph-name="afii61289" unicode="&#x2113;" horiz-adv-x="958" 
d="M352 1110v-457q311 348 312 604q0 221 -144 222q-68 1 -118 -89t-50 -280zM545 -2q-162 0 -242 108t-84 275v27q-51 -39 -115 -97l-45 86q125 106 158 142v563q0 256 88 371t211 115t184 -92q61 -91 62 -236q0 -338 -410 -752l2 -70q0 -166 62 -246t152 -79q91 0 161 57
t113 137l69 -59q-129 -250 -366 -250z" />
    <glyph glyph-name="trademark" unicode="&#x2122;" horiz-adv-x="2027" 
d="M973 688v655q0 59 29 94q30 34 81 33q96 0 140 -108l215 -543l209 543q43 109 139 108q51 0 81 -34t29 -93v-655q0 -34 -19 -56t-48 -22t-48 22t-20 56v635h-4l-252 -645q-27 -68 -69 -68t-70 68l-254 645h-4v-635q0 -34 -19 -56t-49 -22t-48 22q-19 22 -19 56zM397 692
v643h-202q-33 -1 -49 19t-15 43q0 23 15 42t49 19h540q33 0 48 -19q34 -43 0 -84q-15 -19 -48 -20h-203v-643q0 -34 -19 -56t-48 -22t-49 22t-19 56z" />
    <glyph glyph-name="Omega" unicode="&#x2126;" horiz-adv-x="1421" 
d="M395 119v6q-119 111 -195 275t-75 368q0 300 169 492t424 192t415 -198t159 -478q0 -209 -80 -380t-192 -271v-6h301v-119h-471v88q127 88 213 261t86 393t-108 398q-52 85 -137 137t-189 52q-201 0 -323 -167q-122 -166 -122 -400t88 -412t211 -262v-88h-471v119h297z
" />
    <glyph glyph-name="estimated" unicode="&#x212e;" horiz-adv-x="1787" 
d="M1413 762v405q0 29 -18 47q-217 211 -504 211t-500 -217q-18 -18 -18 -51v-395q0 -14 10 -14h1022q8 0 8 14zM1716 709h-1333q-10 0 -10 -9v-403q0 -27 16 -47q213 -219 517 -219t519 245h117q-110 -134 -282 -210t-369 -76q-340 0 -581 216q-240 216 -240 523t240 524
q241 217 582 217t583 -217t241 -526v-18z" />
    <glyph glyph-name="partialdiff" unicode="&#x2202;" horiz-adv-x="1079" 
d="M475 117h2q137 0 230 154q92 155 112 378q-27 82 -105 153q-79 70 -194 70t-204 -118t-89 -280q1 -161 69 -259t179 -98zM488 1616q198 0 344 -199t147 -575q0 -376 -134 -610t-380 -234q-182 0 -281 138q-98 138 -98 350t125 358t297 145q121 0 207 -63t121 -129h2
q2 25 2 90q0 268 -110 438t-261 170t-266 -98l-51 106q138 113 336 113z" />
    <glyph glyph-name="uni2206" unicode="&#x2206;" horiz-adv-x="1277" 
d="M207 119h856l-291 794q-14 43 -65 185t-66 196h-8q-11 -45 -59 -177t-60 -173zM63 0v100l498 1366h164l492 -1364v-102h-1154z" />
    <glyph glyph-name="product" unicode="&#x220f;" horiz-adv-x="1382" 
d="M1327 1296h-215v-1493h-141v1493h-561v-1493h-142v1493h-215v134h1274v-134z" />
    <glyph glyph-name="summation" unicode="&#x2211;" 
d="M1051 -197h-1006v97l539 712l-514 715v103h950v-125h-754v-9l479 -661l-518 -688v-8h824v-136z" />
    <glyph glyph-name="minus" unicode="&#x2212;" horiz-adv-x="1228" 
d="M1055 451h-881q-34 0 -56 19t-22 48t22 48t56 20h881q35 0 57 -20t21 -48q1 -29 -21 -48t-57 -19z" />
    <glyph glyph-name="uni2215" unicode="&#x2215;" horiz-adv-x="339" 
d="M454 1491q49 0 52 -47q0 -18 -19 -64l-532 -1362q-19 -51 -55 -51q-66 0 -66 47q1 19 19 64l532 1362q20 51 69 51z" />
    <glyph glyph-name="uni2219" unicode="&#x2219;" horiz-adv-x="491" 
d="M152 653q0 37 28 66q29 29 66 29q38 0 66 -29t28 -66t-29 -65t-65 -29q-36 1 -66 29q-28 28 -28 65z" />
    <glyph glyph-name="radical" unicode="&#x221a;" horiz-adv-x="1134" 
d="M1133 1698l-441 -2005h-127l-319 954l-148 -57l-30 90l268 104l256 -766q25 -92 33 -147h4q2 21 12 77t12 70l371 1680h109z" />
    <glyph glyph-name="infinity" unicode="&#x221e;" horiz-adv-x="1554" 
d="M1151 813h-2q-81 0 -146 -54q-64 -54 -110 -105q-47 -52 -57 -62q112 -125 178 -175t148 -50q82 1 138 67t56 161t-58 157t-147 61zM414 367h2q91 0 174 75q47 41 88 87q41 45 49 53q-85 102 -135 149q-88 82 -186 82q-97 0 -152 -67q-55 -66 -54 -160t60 -157
q60 -62 154 -62zM1452 596v-4q0 -139 -91 -227q-91 -89 -197 -89t-190 56q-83 56 -194 182q-68 -76 -112 -119t-119 -81q-74 -38 -150 -38q-123 0 -211 90t-88 223q0 134 89 223t208 89t205 -62t184 -177q59 66 83 90q102 104 167 127q66 22 125 22q131 0 211 -85t80 -220z
" />
    <glyph glyph-name="integral" unicode="&#x222b;" horiz-adv-x="710" 
d="M566 1636q-157 0 -156 -415q0 -158 13 -511t13 -522q0 -281 -86 -413q-63 -102 -194 -103q-74 0 -129 33l26 107q55 -25 90 -25q164 0 162 401q0 168 -13 528t-13 524q0 165 23 265q24 100 81 160q74 80 186 80q60 0 107 -29l-25 -100q-33 20 -85 20z" />
    <glyph glyph-name="approxequal" unicode="&#x2248;" horiz-adv-x="1120" 
d="M770 293q-55 0 -100 17q-46 17 -148 77q-183 107 -278 21q-43 -39 -90 -113l-64 49q100 193 275 193q62 1 103 -19q63 -30 152 -82q89 -51 153 -51q65 1 107 35t87 112l59 -51q-96 -188 -256 -188zM770 631q-55 0 -102 18q-48 18 -146 76q-98 57 -166 57t-114 -39
q-45 -39 -88 -110l-64 51q100 190 275 190q86 0 189 -61q26 -16 37 -22t34 -19q23 -14 43 -23q20 -8 34 -14t24 -7t24 -3t26 -2q107 -1 191 149l59 -51q-94 -190 -256 -190z" />
    <glyph glyph-name="notequal" unicode="&#x2260;" horiz-adv-x="1120" 
d="M1018 821v-94h-352l-136 -293h488v-94h-526l-107 -236l-76 35l92 201h-299v94h338l135 293h-473v94h510l107 234l74 -35l-91 -199h316z" />
    <glyph glyph-name="lessequal" unicode="&#x2264;" horiz-adv-x="1120" 
d="M1018 20h-916v99h916v-99zM1012 201l-899 454v99l899 454v-114l-797 -385v-4l797 -390v-114z" />
    <glyph glyph-name="greaterequal" unicode="&#x2265;" horiz-adv-x="1120" 
d="M1016 20h-912v99h912v-99zM115 1208l899 -454v-99l-899 -454v114l794 387v5l-794 387v114z" />
    <glyph glyph-name="lozenge" unicode="&#x25ca;" horiz-adv-x="1136" 
d="M893 711l-287 575q-18 43 -37 107h-6q-16 -61 -39 -107l-284 -569l288 -580q27 -61 35 -104h8q14 59 35 102zM1026 713l-403 -803h-117l-395 803l401 805h117z" />
    <glyph glyph-name="fi" unicode="&#xfb01;" horiz-adv-x="909" 
d="M700 1270q-40 0 -70 30t-30 70q0 41 30 71q30 29 70 29t71 -30q30 -30 30 -70t-30 -70t-71 -30zM774 1008v-926q0 -94 -74 -94t-73 94v926q-1 94 73 94t74 -94zM319 967v-885q1 -94 -73 -94t-74 94v885h-96q-33 0 -48 19t-16 42q0 23 16 42t48 20h96v280q0 104 54 158
t141 53h75q100 0 101 -68q0 -68 -78 -67h-68q-35 0 -57 -20t-21 -48v-288h132q33 0 48 -20t15 -42q0 -23 -15 -42t-48 -19h-132z" />
    <glyph glyph-name="fl" unicode="&#xfb02;" horiz-adv-x="909" 
d="M774 1487v-1405q0 -94 -74 -94t-73 94v1405q-1 94 73 94t74 -94zM319 967v-885q1 -94 -73 -94t-74 94v885h-96q-33 0 -48 19t-16 42q0 23 16 42t48 20h96v280q0 104 54 158t141 53h75q100 0 101 -68q0 -68 -78 -67h-68q-35 0 -57 -20t-21 -48v-288h132q33 0 48 -20
t15 -42q0 -23 -15 -42t-48 -19h-132z" />
    <glyph glyph-name="a.superior" horiz-adv-x="739" 
d="M352 899q185 0 185 237t-185 236q-86 0 -129 -70t-43 -164q0 -93 44 -166t128 -73zM659 1413v-555q0 -25 -17 -41t-45 -16t-44 16t-16 41v47h-5q-59 -104 -191 -104t-214 101q-82 102 -82 234t82 233t210 101t195 -88h5v31q0 25 16 41t44 16t45 -16t17 -41z" />
    <glyph glyph-name="o.superior" horiz-adv-x="712" 
d="M45 1137q0 135 83 234t229 99q147 0 229 -100t82 -235t-83 -235t-229 -99t-228 101q-83 100 -83 235zM180 1137q0 -92 45 -165t131 -73t131 72t45 165q0 92 -45 164t-131 72t-131 -72t-45 -163z" />
    <glyph glyph-name="one.superior" horiz-adv-x="468" 
d="M205 1348h-115q-25 0 -40 15t-15 40t15 40t40 15h182q25 0 40 -14t16 -35v-764q0 -61 -62 -61t-61 61v703z" />
    <glyph glyph-name="two.superior" horiz-adv-x="712" 
d="M592 707q23 -1 37 -17t14 -39t-14 -39t-37 -16h-436q-57 0 -58 43q0 27 25 59l283 385q82 109 82 164t-39 84t-97 29q-135 0 -159 -160q-8 -53 -66 -53q-25 0 -41 14t-16 39q0 121 74 196q75 74 208 74t202 -58t69 -145t-91 -206l-272 -354h332z" />
    <glyph glyph-name="three.superior" horiz-adv-x="712" 
d="M590 1251q0 -133 -109 -188q160 -59 160 -211q0 -123 -77 -196q-77 -72 -213 -72t-208 62t-71 124q0 27 17 41t40 14q49 0 72 -55q31 -76 147 -76q66 0 112 44t46 120q0 121 -141 131q-61 6 -62 45q0 27 16 38t56 22q80 20 80 143t-117 123q-45 0 -75 -27t-34 -69
q-2 -57 -65 -58q-23 0 -40 16t-18 42q0 80 62 143t182 63t180 -62t60 -157z" />
    </font>
</defs>
</svg>
