<?xml version="1.0" standalone="no"?>
<!DOCTYPE svg PUBLIC "-//W3C//DTD SVG 20010904//EN"
 "http://www.w3.org/TR/2001/REC-SVG-20010904/DTD/svg10.dtd">
<svg version="1.0" xmlns="http://www.w3.org/2000/svg"
 width="1237.000000pt" height="1280.000000pt" viewBox="0 0 1237.000000 1280.000000"
 preserveAspectRatio="xMidYMid meet">
<g transform="translate(0.000000,1280.000000) scale(0.100000,-0.100000)"
fill="#000000" stroke="none">
<path d="M11650 12789 c-36 -4 -119 -13 -185 -19 -569 -52 -1026 -239 -1345
-552 -142 -139 -774 -904 -1216 -1473 -781 -1004 -1550 -2078 -2411 -3370
-414 -622 -681 -1035 -1251 -1935 -61 -97 -129 -197 -153 -223 -56 -64 -131
-107 -188 -107 -40 0 -49 5 -87 46 -96 103 -230 408 -425 967 -51 144 -109
298 -130 342 -81 171 -189 289 -309 337 -46 19 -74 22 -170 22 -221 -2 -476
-91 -768 -270 -323 -198 -488 -372 -547 -579 -57 -194 60 -691 410 -1740 241
-724 402 -1109 568 -1364 122 -186 207 -249 362 -271 124 -17 641 -30 802 -19
319 20 540 100 670 243 27 29 138 192 248 362 1948 3023 4061 5918 6320 8654
243 294 321 394 395 504 69 103 134 241 126 269 -17 66 -92 129 -174 148 -161
36 -387 48 -542 28z"/>
<path d="M5720 12069 c-296 -17 -534 -47 -815 -100 -1572 -298 -2976 -1231
-3878 -2577 -572 -853 -921 -1856 -997 -2867 -6 -82 -15 -191 -21 -242 -12
-120 -12 -347 1 -487 6 -61 17 -192 26 -291 218 -2588 2132 -4774 4684 -5349
491 -111 1185 -176 1550 -147 80 7 201 16 270 22 2850 230 5177 2486 5494
5324 52 462 48 1011 -9 1462 -135 1056 -535 2037 -1183 2897 l-75 99 -20 -24
c-10 -13 -132 -158 -271 -322 -138 -164 -252 -304 -254 -312 -2 -8 21 -45 50
-82 427 -540 718 -1197 847 -1913 98 -547 120 -1220 55 -1740 -96 -772 -348
-1481 -759 -2135 -537 -853 -1322 -1537 -2245 -1955 -864 -391 -1834 -535
-2790 -414 -1111 140 -2142 640 -2949 1429 -232 227 -390 409 -573 660 -1254
1722 -1318 4058 -160 5845 832 1284 2181 2133 3692 2324 244 31 395 40 690 39
867 -1 1459 -125 2097 -440 95 -47 177 -83 183 -81 15 5 520 672 517 683 -2 6
-94 56 -205 111 -424 213 -904 377 -1387 473 -491 98 -1073 139 -1565 110z"/>
</g>
</svg>
